<?xml version="1.0" standalone="no"?>
<!DOCTYPE svg PUBLIC "-//W3C//DTD SVG 20010904//EN"
 "http://www.w3.org/TR/2001/REC-SVG-20010904/DTD/svg10.dtd">
<svg version="1.0" xmlns="http://www.w3.org/2000/svg"
 width="512.000000pt" height="512.000000pt" viewBox="0 0 512.000000 512.000000"
 preserveAspectRatio="xMidYMid meet">
<metadata>
Created by potrace 1.11, written by Peter Selinger 2001-2013
</metadata>
<g transform="translate(0.000000,512.000000) scale(0.100000,-0.100000)"
fill="#000000" stroke="none">
<path d="M0 2560 l0 -2560 1279 0 1278 0 18 73 c48 197 146 404 241 507 23 25
23 25 7 95 -21 90 -24 356 -5 435 24 96 54 182 94 270 l40 85 -17 260 c-12
190 -14 292 -8 380 5 67 6 134 1 152 -8 28 -49 73 -68 73 -3 0 -35 -78 -69
-173 -35 -94 -77 -201 -94 -236 -40 -81 -106 -154 -172 -192 -70 -40 -84 -57
-101 -128 -17 -75 -59 -160 -129 -262 -58 -84 -70 -127 -61 -211 7 -68 -10
-116 -52 -144 -18 -13 -38 -24 -44 -26 -8 -3 -3 -38 16 -113 31 -124 29 -162
-12 -239 -30 -56 -72 -87 -154 -115 -50 -17 -97 -24 -303 -45 -58 -6 -101 12
-212 91 -145 104 -229 201 -253 292 -6 24 -23 60 -36 81 -56 84 -51 130 21
195 l44 40 6 375 c7 370 7 377 -18 525 -14 83 -28 176 -32 208 -11 96 -55 205
-131 324 l-33 52 44 116 c46 119 77 177 114 209 17 15 21 31 21 77 l0 58 -57
-20 c-68 -23 -153 -25 -216 -3 -53 18 -53 29 -2 38 20 4 33 11 30 16 -3 5 -39
33 -81 61 -44 31 -94 77 -125 116 -28 35 -70 78 -95 96 -24 17 -44 34 -44 38
0 3 30 0 67 -7 37 -8 70 -11 75 -6 4 4 -33 32 -82 61 -50 29 -90 56 -90 58 0
18 118 -14 263 -72 176 -69 223 -82 246 -66 11 7 3 21 -39 68 -110 121 -153
272 -176 620 -7 109 0 133 36 133 10 0 71 -54 136 -120 105 -108 309 -280 330
-280 5 0 18 14 29 31 45 69 154 131 291 164 20 5 57 157 59 248 3 97 20 137
58 137 31 0 59 -21 142 -101 l70 -69 210 70 c251 84 329 96 505 80 63 -6 159
-19 212 -29 l97 -17 108 93 c122 106 236 169 368 205 74 19 107 21 415 22 443
2 465 7 718 163 68 41 125 73 127 71 3 -2 5 -74 6 -159 1 -124 -2 -162 -16
-197 -10 -24 -15 -45 -13 -47 15 -15 198 52 265 97 74 50 73 45 73 305 l0 233
-2560 0 -2560 0 0 -2560z"/>
<path d="M4606 4590 c-48 -31 -182 -70 -294 -86 -79 -11 -178 -14 -382 -12
-304 3 -353 -4 -474 -62 -73 -34 -160 -100 -149 -111 5 -5 98 -33 208 -63 271
-74 366 -109 608 -220 296 -136 271 -131 592 -131 149 0 300 4 338 8 l67 9 0
254 c0 140 -2 254 -5 254 -3 0 -27 -11 -53 -24 -149 -75 -333 -101 -538 -76
-107 13 -123 23 -54 34 54 8 103 54 139 129 33 68 48 117 35 116 -5 0 -22 -9
-38 -19z"/>
<path d="M2775 4180 c-115 -6 -205 -22 -205 -36 0 -3 4 -13 10 -23 8 -16 30
-19 170 -25 163 -7 205 -15 251 -47 26 -18 67 -84 58 -93 -3 -3 -63 4 -134 15
-78 13 -178 21 -250 21 -105 0 -136 -4 -252 -35 l-133 -35 -67 79 c-66 79
-101 101 -88 57 4 -13 51 -113 106 -223 115 -233 135 -300 123 -432 -3 -46
-10 -83 -14 -83 -18 0 -64 46 -76 76 -8 19 -14 67 -14 109 0 82 -23 162 -61
216 l-22 32 -28 -31 c-18 -20 -32 -54 -44 -104 -9 -40 -25 -92 -35 -116 l-19
-43 -43 24 c-24 13 -65 37 -92 52 -48 27 -50 27 -63 9 -22 -31 -27 -65 -15
-111 21 -76 15 -114 -29 -197 -51 -98 -55 -146 -14 -208 l28 -42 -29 -21 c-15
-11 -46 -37 -69 -57 -35 -32 -40 -41 -39 -80 0 -24 13 -85 29 -137 30 -102 30
-163 1 -203 -9 -13 -28 -39 -42 -58 l-25 -35 37 -8 c21 -4 40 -9 42 -12 2 -2
-10 -24 -27 -49 -48 -69 -107 -200 -137 -301 -20 -71 -28 -124 -34 -255 -6
-102 -19 -219 -35 -305 -35 -181 -39 -215 -30 -215 4 0 23 13 42 30 28 25 53
38 53 28 -1 -16 -47 -144 -70 -198 -37 -85 -38 -125 -3 -176 14 -21 32 -68 40
-104 12 -57 20 -72 66 -118 81 -82 180 -147 227 -147 45 0 86 27 112 72 10 16
25 78 34 139 9 60 32 157 52 216 l36 107 48 21 c42 18 48 24 43 43 -13 45 -42
72 -90 84 -26 7 -50 15 -54 18 -11 12 -5 170 9 200 l13 30 13 -69 c14 -70 27
-96 49 -96 6 0 27 50 46 112 31 103 34 123 32 223 -2 61 -4 127 -5 149 -5 63
14 67 126 22 110 -45 154 -45 211 -2 71 55 141 195 191 382 38 146 44 350 15
492 -28 132 -45 178 -124 321 l-65 116 15 85 c8 47 16 99 19 116 7 51 38 80
112 106 58 20 85 23 197 22 149 -1 251 -26 385 -92 70 -35 190 -136 190 -160
0 -7 -16 -6 -47 3 -81 23 -131 27 -168 15 -20 -7 -35 -16 -33 -21 2 -6 33 -20
69 -33 364 -127 634 -509 739 -1044 24 -125 40 -165 73 -187 13 -8 94 -35 180
-60 249 -70 258 -80 184 -196 -58 -90 -103 -197 -124 -296 -19 -87 -23 -311
-10 -456 l9 -88 62 -28 c77 -35 124 -82 188 -191 28 -47 63 -104 79 -127 16
-23 29 -44 29 -48 0 -11 -64 27 -170 100 -251 173 -311 176 -461 24 -37 -38
-103 -113 -147 -166 -157 -195 -271 -275 -582 -411 -20 -8 7 -11 123 -11 l149
-1 45 39 c54 49 114 69 335 116 242 52 293 79 399 212 33 43 65 78 70 77 5 -1
18 -2 29 -2 30 -3 26 -60 -10 -142 -16 -38 -30 -73 -30 -78 0 -24 -67 -97
-121 -132 -64 -41 -130 -67 -207 -80 -33 -5 6 -8 131 -9 175 -1 179 -1 211 24
18 13 49 31 69 40 37 15 167 21 167 7 0 -4 -26 -21 -57 -37 l-58 -30 159 -3
c87 -1 161 -1 163 2 2 2 -18 35 -45 72 l-50 68 24 35 c37 54 63 154 73 279 5
62 11 116 14 118 7 7 62 -93 77 -141 8 -23 14 -97 15 -175 1 -103 6 -149 21
-195 l20 -60 52 -3 52 -3 -1 1118 0 1118 -35 -90 c-128 -334 -191 -426 -321
-475 -86 -32 -141 -37 -157 -14 -17 23 -11 37 49 104 61 69 84 118 160 340 36
105 79 220 95 256 41 90 111 187 165 225 l45 32 0 202 0 202 -156 161 c-305
315 -562 513 -899 688 -214 112 -407 185 -670 254 -218 57 -375 72 -620 60z
m-745 -904 c-27 -64 -25 -89 12 -154 32 -57 43 -131 22 -152 -8 -8 -40 -4
-115 12 -114 26 -118 30 -104 104 l6 34 66 -25 c36 -14 68 -23 70 -21 3 2 -1
14 -7 27 -21 38 -29 77 -21 105 6 23 82 125 89 119 1 -1 -7 -23 -18 -49z m99
-433 c17 -153 17 -199 3 -216 -7 -8 -44 -33 -81 -56 -37 -22 -73 -47 -80 -55
-7 -8 -34 -126 -62 -263 -56 -282 -58 -288 -69 -277 -4 5 1 164 12 354 16 272
24 352 37 377 22 44 199 243 215 243 10 0 17 -31 25 -107z m1901 -92 c111 -90
240 -137 563 -201 l58 -12 -40 -43 c-107 -116 -195 -267 -231 -396 -11 -39
-21 -73 -23 -75 -2 -2 -31 17 -65 41 -66 48 -156 161 -257 321 -60 96 -87 160
-106 250 -15 74 -7 109 29 128 35 20 32 20 72 -13z m-2330 -1131 c6 -11 24
-83 40 -161 34 -156 51 -198 105 -249 20 -19 44 -48 53 -65 19 -36 21 -156 4
-198 l-12 -27 -70 80 c-39 44 -83 86 -98 94 -39 21 -79 65 -97 110 -22 53 -33
287 -16 339 13 39 56 97 72 97 4 0 13 -9 19 -20z m19 -596 c32 -16 64 -43 82
-67 35 -48 62 -135 54 -170 -21 -83 -171 -112 -242 -45 -25 23 -27 56 -8 114
5 18 -2 28 -38 56 l-45 34 19 36 c38 73 90 86 178 42z"/>
<path d="M1138 3878 c16 -29 50 -92 76 -140 26 -49 49 -88 51 -88 8 0 55 99
55 115 0 23 -78 97 -141 133 -31 18 -60 32 -63 32 -4 0 6 -24 22 -52z"/>
<path d="M1595 3856 c-27 -13 -58 -32 -67 -43 -17 -19 -17 -19 45 -15 l62 4
-90 -60 c-99 -66 -172 -137 -204 -200 -12 -23 -21 -44 -21 -47 0 -2 29 15 65
40 56 38 128 66 140 54 1 -2 -42 -61 -96 -131 -105 -134 -156 -178 -229 -198
-38 -11 -42 -14 -25 -21 33 -13 150 -10 193 5 22 8 43 12 46 8 4 -3 -17 -30
-46 -60 l-53 -55 33 7 c91 17 153 75 201 191 17 40 36 86 42 101 12 28 13 26
27 -48 15 -81 32 -104 32 -43 0 46 21 86 80 155 26 30 55 70 64 89 17 33 17
35 -9 110 -68 191 -62 181 -103 181 -20 0 -59 -11 -87 -24z"/>
<path d="M5037 3751 l-38 -6 60 -27 61 -26 0 34 c0 37 -3 38 -83 25z"/>
<path d="M4751 3637 c30 -28 126 -119 212 -200 l157 -148 0 124 0 125 -47 30
c-98 63 -267 122 -347 122 l-31 0 56 -53z"/>
<path d="M2681 3149 c24 -35 46 -67 49 -71 5 -6 226 22 298 38 34 7 15 25 -61
60 -56 25 -75 28 -196 32 l-133 4 43 -63z"/>
<path d="M1382 2822 c-29 -70 -52 -142 -52 -160 0 -33 61 -205 66 -187 6 21
45 456 42 465 -2 5 -27 -48 -56 -118z"/>
<path d="M3037 2934 c-4 -4 15 -20 41 -36 69 -43 150 -126 180 -183 26 -49 26
-54 33 -320 11 -415 38 -570 161 -930 61 -178 62 -181 63 -292 l0 -112 37 36
c20 20 51 63 69 97 28 52 34 74 37 146 4 81 1 96 -62 313 -80 272 -116 423
-190 781 -45 215 -62 280 -88 328 -37 70 -124 153 -176 168 -42 11 -95 13
-105 4z"/>
<path d="M3848 3 c23 -2 59 -2 80 0 20 2 1 4 -43 4 -44 0 -61 -2 -37 -4z"/>
</g>
</svg>
