<?xml version="1.0" encoding="utf-8"?>
<!-- Generator: Adobe Illustrator 24.3.0, SVG Export Plug-In . SVG Version: 6.00 Build 0)  -->
<svg version="1.1" id="Layer_1" xmlns="http://www.w3.org/2000/svg" xmlns:xlink="http://www.w3.org/1999/xlink" x="0px" y="0px"
	 viewBox="0 0 576 512" style="enable-background:new 0 0 576 512;" xml:space="preserve">
<style type="text/css">
	.st0{fill:#FFFFFF;}
</style>
<path class="st0" d="M571.3,193.9l-22.6-22.6c-6.2-6.2-16.4-6.2-22.6,0l-11.3,11.3l-28.9-28.9c5.6-21.3,0.4-44.9-16.4-61.6
	l-45.2-45.2c-62.5-62.5-163.8-62.5-226.3,0l90.5,45.2v18.8c0,17,6.7,33.2,18.8,45.2l49.1,49.1c16.7,16.7,40.3,22,61.6,16.4
	l28.9,28.9l-11.3,11.3c-6.2,6.2-6.2,16.4,0,22.6l22.6,22.6c6.2,6.2,16.4,6.2,22.6,0l90.5-90.5C577.6,210.3,577.6,200.2,571.3,193.9
	L571.3,193.9z M284.6,178.7c-3.7-3.7-6.8-7.8-9.9-11.9L19.6,405c-25.6,23.9-26.3,64.2-1.5,88.9c24.7,24.7,65.1,24.1,88.9-1.5
	l238.1-255.1c-4-2.9-7.9-5.9-11.4-9.4L284.6,178.7L284.6,178.7z"/>
</svg>
