<?xml version="1.0" encoding="utf-8"?>
<!-- Generator: Adobe Illustrator 25.0.0, SVG Export Plug-In . SVG Version: 6.00 Build 0)  -->
<svg version="1.1" id="Layer_1" xmlns="http://www.w3.org/2000/svg" xmlns:xlink="http://www.w3.org/1999/xlink" x="0px" y="0px"
	 viewBox="0 0 105.2 90.6" style="enable-background:new 0 0 105.2 90.6;" xml:space="preserve">
<style type="text/css">
	.st0{opacity:0.1;}
	.st1{fill:#010101;}
</style>
<g class="st0">
	<path class="st1" d="M1.5,13.1c0.1,0.1,0.2,0.3,0.3,0.4C2,13.7,2.3,13.8,2.5,14l0.2,0.1l0.1,0.1c0.1,0,0.1,0.1,0.1,0.1l-0.8,0.2
		l0.3,0.2c0.7,0.4,1.6,0.4,2.3,0.1v0.5c-0.5,0.4-0.8,1-1,1.7c-0.1,0.3-0.2,0.6-0.3,0.8v0.1l0.1,0.1c0.6,0.8,1,1.8,1.2,2.8
		c0,0.5,0.1,1,0.2,1.4c0.1,0.3,0.2,0.7,0.2,1c0,0.4,0,0.8,0,1.2l-0.1,2c0,0.5,0,0.9,0,1.4c0,0.2,0,0.4,0,0.6c0,0.1,0,0.1,0,0.2
		l-0.1,0.1l-0.1,0.1c-0.3,0.2-0.5,0.4-0.6,0.8c0,0.3,0.1,0.7,0.3,0.9v0.1c0,0.1,0.1,0.1,0.1,0.2c0.1,0.6,0.5,1.2,1,1.6
		c0.4,0.4,0.9,0.8,1.4,1.1l0.2,0.1c0.2,0.2,0.5,0.2,0.8,0.2c0.2-0.1,0.4-0.1,0.6-0.1c0.8,0,1.6-0.2,2.3-0.5c0.7-0.4,1-1.3,0.8-2.1
		c-0.1-0.2-0.1-0.5-0.2-0.8l-0.1-0.3c0.6-0.2,0.9-0.8,0.7-1.5c-0.1-0.4,0.1-0.9,0.3-1.2c0.6-0.7,0.9-1.5,1.1-2.3
		c0.1-0.2,0.2-0.3,0.3-0.4c0.7-0.4,1.2-1,1.5-1.7c0-0.1,0.1-0.1,0.1-0.2c0.3-0.6,0.5-1.2,0.7-1.9c0-0.1,0.1-0.2,0.1-0.3
		c0-0.1,0.1-0.2,0.1-0.3c0,0,0-0.1,0-0.1c0.3,0.1,0.4,0.4,0.4,0.7c0,0.2,0,0.4,0,0.6c0,0.4,0,0.8,0,1.3c0.1,0.6,0.1,1.3,0.2,1.9
		c0,0.4,0.1,0.8,0.1,1.2c0,0.2,0,0.4,0,0.6c-1,1.8-1.3,3.9-0.8,5.9c-1,1.2-1.7,2.7-2,4.2c-0.1,0.4-0.4,0.8-0.8,1.1
		c-0.5,0.3-1,0.7-1.6,1.1c-0.6,0.3-0.9,1-0.9,1.6c0,1.3,0.5,2.5,1.4,3.4c1,1,1.7,2.3,2.2,3.6c0.1,0.3,0.2,0.7,0.3,1
		c0,0.2,0.1,0.4,0.1,0.6l0.1,0.3c0.1,0.4,0.2,0.8,0.3,1.2c0.2,0.5,0.6,0.9,1.1,1c1.4,0.6,2.5,1.7,3.1,3.1c0.2,0.6,0.6,1,1.2,1.2
		c0.2,0.1,0.3,0.1,0.5,0.2l0.4,0.2l0.5,0.1c0.5,0.2,1,0.4,1.5,0.6c0.6,0.2,1.3,0,1.6-0.6c0.4-0.6,0.5-1.3,0.3-2
		c-0.2-1-0.6-2-1.3-2.8c-0.2-0.3-0.5-0.5-0.8-0.6c-0.6-0.2-1.2-0.4-1.8-0.5c-0.3,0-0.5,0-0.8,0.1c-0.2,0.1-0.3,0.1-0.5,0.2l-0.1,0.1
		l-1-0.9l0.3-0.5v-0.1c-0.4-0.9-1.1-1.6-2-2c-0.2-0.1-0.4-0.3-0.5-0.5c-0.5-1-1-2-1.5-3.1c-0.1-0.5,0-1.1,0.1-1.6l0.5,0.5
		c0.5,0.3,0.9,0.6,1.2,1l0.5,0.6c0.5,0.6,1,1.3,1.4,2c0.3,0.6,0.6,1.2,0.8,1.9c0.1,0.6,0.4,1.1,0.9,1.5c0.9,0.9,2.3,1.2,3.5,0.9
		c0.9-0.2,1.8-0.3,2.7-0.2c1.2,0.1,2.4-0.1,3.4-0.7c0.4-0.2,0.7-0.5,0.8-0.9c0.1-0.4,0-0.8-0.2-1.1c0,0,0,0,0,0c0,0,0-0.1-0.1-0.1
		c-0.4-0.5-0.8-1-1.2-1.5c0,0-0.1-0.1-0.1-0.1c-0.2-0.2-0.3-0.3-0.5-0.5c-0.3-0.2-0.5-0.4-0.8-0.6c-0.1-0.1-0.2-0.1-0.3-0.1
		c-0.9-0.1-1.8,0.2-2.4,0.9c0,0,0,0-0.1,0.1c0,0,0,0-0.1,0l-0.1,0.1c-0.6,0.5-0.6,0.6-0.5,1.3L24.8,47c-0.2-0.7-0.8-1.2-1.5-1.5
		c-0.2-0.1-0.4-0.1-0.6-0.2c-0.8-1.1-1.6-2.3-2.2-3.5c-0.2-0.4-0.2-0.5,0.1-1.1c0.4,0.1,0.8,0.2,1.1,0.2c0.7,0.1,1.4,0.2,2,0.5
		c2,0.8,4,1.8,5.9,2.9c0.4,0.3,0.7,0.5,1.1,0.9c0.2,0.2,0.4,0.3,0.6,0.5c2.5,2.1,5.2,3.8,8.2,5c0.8,0.3,1.6,0.6,2.5,0.8
		c0.6,0.1,1.1,0.3,1.7,0.4l0.8,0.1c0.8,1.4,1.9,2.6,3.1,3.5l0.1,0.1c0.3,0.2,0.5,0.5,0.7,0.8l1,1.8c0.4,0.7,0.8,1.3,1.2,2
		c0.4,0.6,1,1.1,1.7,1.4c2.2,1,4.2,2,5.9,3c1.1,0.6,2.2,1.3,3.2,2l1.2,0.8c0.2,0.1,0.3,0.3,0.4,0.4l1.2,1.9l1.1,1.7
		c0.4,0.6,0.6,1.2,0.7,1.9c0.2,1.2,0.9,2.2,2,2.7c0.5,0.4,1,0.8,1.5,1.2l0.4,0.3c0.1,0,0.1,0.3,0.1,0.3s0,0.1,0,0.1
		c0.1,0.6,0.4,1.2,1,1.5c0.5,0.2,0.9,0.5,1.3,0.8c0.4,0.3,0.9,0.6,1.4,0.8c0.3,0.2,0.6,0.2,0.9,0.3c0.2,0,0.4-0.1,0.5-0.1
		c0,0,0,0,0-0.1c0,0,0,0,0,0c0.7-0.9,1.1-2.1,0.9-3.3c0,0,0,0,0,0c0-0.1,0-0.2-0.1-0.3c0,0,0,0,0-0.1c-0.1-0.4-0.3-0.8-0.6-1
		L75,76.2c-0.4-0.4-0.7-0.7-1.1-1c-0.5-0.4-1.2-0.4-1.7,0c-0.1,0-0.2,0.1-0.2,0.1h-0.1l-1-1c0,0,0-0.1,0-0.1
		c0.3-1.3-0.5-2.5-1.7-2.9c-1.6-0.7-2.3-2.1-3-3.5c-0.1-0.1-0.2-0.3-0.2-0.4c-0.1-0.3-0.2-0.6-0.2-0.8c0-0.2,0-0.5-0.1-0.7
		c-0.2-1-0.5-2-0.9-3.1c-0.2-0.7-0.8-1.2-1.5-1.3l-0.5-0.1l-1.1-0.2c-0.6,0-1.1-0.3-1.4-0.8c-0.3-0.5-0.7-1-1.1-1.5
		c-0.9-1.1-1.4-2.4-1.6-3.8c-0.1-0.2-0.1-0.5-0.2-0.8c0.2-0.1,0.3,0,0.6,0.1l0.1,0.1c0.5,0.4,1,0.7,1.5,1.1c0.6,0.6,1.3,1.2,1.9,1.9
		l0.4,0.4c0.4,0.4,0.9,0.7,1.4,0.9c1.4,0.6,2.8,1.3,4,2.2l0.5,0.3c0.1,0.1,0.3,0.3,0.3,0.5c0.6,1.2,1.4,2.2,2.5,3
		c0.7,0.5,1.3,1.1,1.7,1.9c0.1,0.2,0.2,0.5,0.4,0.7c0.9,1.6,1.6,3.3,2.3,5c0.2,0.9,1,1.6,1.9,1.9c0.3,0.1,0.6,0.3,0.9,0.5
		c0.2,0.2,0.4,0.3,0.5,0.5c0.1,0.1,0.3,0.3,0.4,0.4c0.5,0.4,0.8,0.9,1,1.5c0.1,0.2,0.2,0.5,0.4,0.6l0.2,0.2c0.9,0.7,1.8,1.5,2.7,2.1
		c0.7,0.5,1,0.4,1.6-0.2c0.8-0.9,1.1-2.2,0.8-3.4c-0.2-1.4-1.1-2.6-2.4-3.2c-0.5-0.2-0.9-0.2-1.4-0.1c-0.6,0.2-1.3-0.1-1.7-0.6
		L79.1,72c0.2-1-0.3-2-1.1-2.5L78,69.4c-0.1-0.1-0.2-0.2-0.3-0.2c-0.9-0.6-1.7-1.4-2.2-2.4l-0.4-0.6c-0.7-1-1.1-2.2-1.1-3.4
		c-0.1-0.7-0.1-1.4-0.3-2c-0.1-0.4-0.2-0.8-0.4-1.1c-0.2-0.4-0.6-0.8-1.1-0.9c-1-0.2-1.8-0.7-2.5-1.4l-0.1-0.1
		c-0.1-0.1-0.1-0.2-0.2-0.2c-0.7-0.5-1-1.3-0.9-2c-0.1-2.9-0.4-5.9-0.9-8.8c-0.2-0.9-0.5-1.9-0.8-2.8c-0.1-0.3-0.2-0.7-0.3-1
		c0.6,0.1,1.1,0.5,1.2,1.1c0.2,0.7,0.3,1.3,0.4,2c0.1,0.7,0.2,1.4,0.2,2.2c0.1,0.9,0.1,1.8,0.2,2.8c0.2,2.2,0.9,4.3,2.2,6.1
		c0.7,1,1.7,1.8,2.8,2.3l0.4,0.2l-0.3-0.4c-1-1.4-1.7-3-2-4.6c0.1,0.2,0.2,0.4,0.4,0.6c0.7,1.3,1.9,2.4,3.3,3
		c0.6,0.2,1.1,0.4,1.7,0.4c1.2,0.1,2.4,0.1,3.5,0.1h0.8l-0.8-0.2c-2-0.6-3.9-1.3-5.1-3.1l0.1,0.1c0.4,0.3,0.9,0.5,1.3,0.7
		c1.1,0.5,2.3,0.9,3.5,1.3l1.2,0.5l0.8,0.3c0.4,0.2,0.9,0.3,1.3,0.5c1.2,0.5,2.2,1.1,3.1,2l0.3,0.3l-0.1-0.4
		c-0.4-1.5-1.5-2.8-2.8-3.5l1.5,0.7c0.8,0.4,1.6,0.8,2.5,1.1c3.3,1.4,7,1.5,10.4,0.2c0.1,0,0.2-0.1,0.2-0.1l0.2-0.1l0.5-0.2l-0.5,0
		l-1-0.1c-0.7-0.1-1.3-0.1-2-0.2c-0.8-0.1-1.7-0.4-2.4-0.8c1.6,0.2,3.2-0.3,4.4-1.3l0.4-0.4l-0.5,0.1H98c-0.1,0-0.2,0.1-0.3,0.1
		c-1.6,0.7-3.5,0.2-4.6-1.1L93,54.5c-0.7-0.8-1.5-1.6-2.2-2.4c-1.8-1.8-4.1-3.1-6.5-3.6L84,48.4c-0.3-0.1-0.7-0.2-1-0.3
		c0.4,0,0.7,0.1,1.1,0.1c0.8,0.1,1.5,0.2,2.2,0.3c0.7,0.1,1.4,0.3,2.1,0.5l0.9,0.3c0.3,0.1,0.7,0.3,1.1,0.4l0.6,0.2l-0.5-0.4
		c-1.6-1.3-3.6-2.3-5.6-2.8c0.4-0.1,0.8-0.1,1.2-0.2c0.6-0.1,1.1-0.3,1.7-0.6l0.3-0.2l-0.4-0.1l-0.5-0.1c-0.4-0.1-0.8-0.1-1.2-0.2
		c-2.6-0.6-5-1.8-7.1-3.5c-1.5-1.2-3-2.5-4.4-3.9c-3.3-3.3-8.3-4.2-12.5-2.1l-0.3,0.2h-0.1h-0.1c-1.8-2-4.2-3.2-6.8-3.6
		c-2.8-0.6-5.4-1.7-7.6-3.4c-1.9-1.3-3.5-2.9-4.7-4.9c-0.1-0.2-0.2-0.4-0.3-0.6c-0.4-1.2-0.8-2.4-1.2-3.6l-0.1-0.3
		c0.7,0.6,0.8,0.6,1.4,0.6h0.2l-0.2-0.2L42.2,20c-0.1-0.1-0.2-0.2-0.3-0.4c-0.1-0.1-0.1-0.2-0.2-0.4c0.7,0.3,1.5,0.3,2.3,0l0.3-0.1
		L44,19l-0.2,0l-0.3-0.1c0,0,0,0,0,0c-1-0.1-1.8-0.9-1.7-1.9c0-0.1,0-0.3,0-0.5s0-0.2,0-0.4c0-0.7-0.2-1.4-0.7-1.9
		c1.1,0.2,1.3,0.1,1.8-0.6l0.2-0.3l-0.4,0.1c-0.5,0.2-0.7,0-1.1-0.3L41.5,13c-0.2-0.1-0.4-0.3-0.6-0.4l-0.1-0.1
		c0.2-0.2,0.5-0.3,0.7-0.3c0.3-0.1,0.6-0.1,0.9-0.1h0.2c0.5,0,0.9-0.2,1.2-0.6l0.2-0.2h-0.3c-0.9,0-1.8-0.1-2.6-0.4l-0.7-0.2
		c-1.1-0.2-2.2-0.1-3.2,0.3c-0.6,0.2-1.1,0.3-1.7,0.4h-0.2c-0.5-0.1-0.9-0.3-1.2-0.6c-0.6-0.4-1.2-0.8-1.8-1c0.5,0,1-0.1,1.4-0.2
		c0.7-0.2,1.3-0.4,1.9-0.7C36.4,8.4,37,7.6,37,6.6c0-0.9-0.1-1.8-0.5-2.6l-1.7-4l-0.1,3.1L34,1.7l-1,1.4c-0.4,0.5-0.6,0.9-2,1.3
		c-0.2,0.1-0.5,0.1-0.8,0.1c0.2-0.4,0.3-0.8,0.3-1.2V1.6L29,2.5c-1,0.6-2.2,0.9-3.4,0.9h-0.3c-0.3,0-0.6,0-1,0s-0.9,0-1.1,0
		s-0.5,0-0.7,0c-1.1,0.1-2.2,0.5-3.1,1.1L19,4.8L18.8,5l-0.6,0.5c-1.4-0.3-2.9-0.4-4.3-0.3c-0.3,0-0.5,0.1-0.8,0.2h-0.1l-1.3,0.5
		l-1,0.3c-0.1-0.1-0.2-0.2-0.3-0.3l-0.1-0.1c-0.2-0.2-0.4-0.4-0.7-0.6C9.5,5,9.3,5,9.1,5.1C8.9,5.2,8.7,5.3,8.7,5.6
		c0,0.1,0,0.2,0,0.3c0,0.5,0,1.1-0.2,1.6c0,0.1-0.1,0.2-0.1,0.3C7.4,7.9,6.6,8.4,6,9.2L5.6,8.8c-0.4-0.4-0.8-0.7-1.2-1
		s-0.7-0.7-1-1.1L3,6.3H2.9c-0.2,0-0.3,0.1-0.4,0.2C2.4,6.6,2.4,6.7,2.4,6.9c0.1,0.3,0.1,0.6,0.1,0.8c0,1.2,0.2,2.3,0.7,3.4
		c0.2,0.3,0.4,0.6,0.7,0.9L4,12.2c-0.1,0-0.2,0-0.3,0c-0.4-0.1-0.8-0.3-1.1-0.4L2,11.6l-0.3-0.1c-0.4-0.2-0.9-0.3-1.4-0.3l-0.4,0
		L1.4,12l-0.8-0.2l-0.1,0.3l0.1,0l0.2,0.2c0.2,0.1,0.3,0.2,0.5,0.3C1.4,12.8,1.4,12.9,1.5,13.1z M14.3,41.2
		c-0.2-0.6-0.1-1.3,0.4-1.8v0c0,0,0.1,0.1,0.1,0.1c0,0.2,0,0.3,0,0.5c0,0.2-0.1,0.4-0.1,0.6c0,0.2-0.1,0.3-0.1,0.5
		c0,0.2-0.1,0.4-0.2,0.5C14.3,41.4,14.3,41.3,14.3,41.2z M51.8,57.9c0.9,0.7,2,1.3,3.1,1.7c0.7,0.3,1.4,0.7,1.9,1.3
		c0,0.1,0.1,0.1,0.1,0.2c-0.8,0.1-1.6-0.1-2.2-0.6C53.4,59.9,52.4,59,51.8,57.9L51.8,57.9z M6.1,12.4l0.8-1l0.5-0.6H7.1
		c-0.5,0-0.9,0.2-1.3,0.5c0.4-0.6,1-1.2,1.7-1.5l0.4-0.3l0.4-0.3L7.3,9.4C7.6,9.1,8,9,8.4,9L9,10.7c-0.1,0.3-0.3,0.6-0.6,0.8
		C8.2,11.7,8,12,7.8,12.4l-0.2-1l-0.2,0.4c-0.1,0.2-0.2,0.4-0.2,0.6C7,13.1,6.7,13.8,5.9,14l0.6-0.6l-0.2-0.3l-0.1,0
		c-0.4,0.2-0.9,0.3-1.3,0.2C5.4,13.2,5.8,12.9,6.1,12.4z M5.8,17.4c0.2-0.4,0.3-0.8,0.5-1.2L6,18.5c-0.1-0.2-0.2-0.4-0.2-0.6
		C5.7,17.7,5.7,17.6,5.8,17.4z M20.4,19c0.2,1.1,0.5,2.3,0.7,3.4c0.2,0.8,0.5,1.7,0.7,2.5l0.4,1.4c0.2,0.9-0.1,1.9-0.7,2.5
		c0.1-0.8-0.1-1.7-0.4-2.4h0c-1-2.5-1.4-5.2-1.2-7.9c0.1-1-0.5-2-1.4-2.6l-0.3-0.2c0.3,0,0.7,0.1,0.9,0.3c0.5,0.4,0.9,1,1,1.7
		L20.4,19z M17.8,14.2l-2,0.3l-0.5-0.7C16.1,13.6,17,13.8,17.8,14.2z M20.8,45.1c0.3,0.4,0.7,0.8,1.2,1.2c0.3,0.2,0.6,0.4,1,0.4
		c0.9,0.2,0.9,0.2,1,1c0.1,0.1,0.3,0.2,0.4,0.3c0.2,0.1,0.5,0.3,0.5,0.5c-0.1,0.2-0.2,0.3-0.5,0.2s-0.6-0.1-0.9-0.2
		c-0.6-0.1-1.1-0.6-1.1-1.2c0-0.3-0.2-0.6-0.3-0.8C21.6,46.1,21.2,45.6,20.8,45.1z M19.5,41.6l1.8,3l-0.7-0.6l-0.2,0.2v0.1
		c0,0.1,0.1,0.1,0.1,0.2c-0.2-0.3-0.3-0.5-0.5-0.8l-0.2-0.3c-0.2-0.4-0.5-0.8-0.7-1.2L19,41.9l-0.1-0.1l-0.7,0.6L18,42.2
		c-0.2-0.1-0.4-0.2-0.6-0.4c-0.1-0.1-0.2-0.2-0.3-0.3c-0.2-0.2-0.3-0.3-0.5-0.5c-0.3-0.2-0.5-0.5-0.5-0.8C16,39.8,16,39.4,16,38.9
		c0.1-1.1,1-1.9,2.1-1.8c0.3,0,0.6,0,0.9-0.1c1.2-0.4,2.3-1,3.4-1.7c0.5-0.4,1-0.8,1.4-1.3c0.5-0.6,1-1.2,1.6-1.8c0,0,0,0,0,0
		c0.5-0.6,1.3-0.6,1.9-0.1c0.3,0.2,0.6,0.4,0.8,0.6l0.6,0.4l0.6,0.3l0.3,0.2l0.5,0.3l-0.3-0.4c-0.1-0.2-0.2-0.3-0.3-0.4
		c-0.2-0.2-0.3-0.5-0.5-0.7c-0.3-0.8-1-1.5-1.9-1.7c-0.3-2.1-0.4-4.2,1-6.1c0.1-0.1,0.2-0.3,0.2-0.5c-0.1-0.2-0.2-0.3-0.4-0.4
		c-0.3-0.1-0.6-0.2-0.9-0.3l-0.2,0l-0.5-0.1c-0.2-0.1-0.5-0.1-0.7-0.2c-0.3-0.1-0.6-0.4-0.6-0.8c-0.2-1.4-0.6-2.8-1.3-4.1
		c-0.8-2-2.5-3.6-4.6-4.3c0.4-0.1,0.8-0.1,1.1,0.1c0.2,0.1,0.3,0.1,0.5,0.1l0.3,0l-0.2-0.2c-0.2-0.4-0.5-0.7-0.9-0.9
		c-1.1-0.7-2.5-1.1-3.8-1c-0.5,0-0.9,0.1-1.4,0.3c-0.4,0.1-0.6,0.5-0.6,0.9c0,0.3-0.1,0.6-0.1,0.9c0,0.1-0.1,0.3-0.1,0.4l0.3,0.7
		c0.3,0.5,0.5,1,0.7,1.5c0.7,2.1,0.5,4.3-0.5,6.3c-0.1,0.2-0.3,0.5-0.5,0.7c-0.3,0.4-0.8,0.5-1.2,0.2c-0.2-0.1-0.3-0.2-0.7-0.3
		c-0.4-0.2-0.6-0.1-0.8,0.2v0.1l0.1,0.3c0.1,0.4,0.2,0.9,0.1,1.3c-0.1,0.5-0.2,0.9-0.4,1.4C11.1,26.7,11,26.8,11,27
		c-0.1-0.2-0.2-0.4-0.2-0.6c0-0.2,0-0.3-0.1-0.5l-0.1-0.3l-0.1,0.3c-0.3,0.6-0.3,1.2-0.2,1.8v0.1h0.1c0.7,0.1,0.8,0.1,0.9,0.6
		l-0.6,0.3v-0.1L10.6,29c-0.1,0.4-0.2,0.7-0.3,1c0,0.1,0,0.2,0,0.3c0,0.1,0,0.1,0,0.2l-0.1,0.4c0,0.3-0.1,0.6-0.2,0.9
		c-0.1,0.2-0.3,0.4-0.5,0.5c-0.2,0.1-0.4,0.1-0.6,0c-0.5-0.3-1-0.7-1.5-1.2c-0.1-0.2-0.2-0.4-0.2-0.6c0-0.2,0-0.3-0.1-0.5
		c-0.4-0.3-0.5-0.8-0.1-1.4c0.2-0.3,0.3-0.6,0.4-0.9c0-0.1,0.1-0.3,0.1-0.4v-0.1l-0.3-0.1l-0.5,0.4c0-0.1,0-0.1,0-0.2l0.1-0.5
		c0.3-1.1,0.4-2.2,0.4-3.4c0-0.1,0-0.3,0-0.4V23c0.2-1.2,0.7-2.4,1.5-3.3l0.1-0.2l-0.7-0.1c0.1-0.1,0.1-0.2,0.2-0.2
		c0.4-0.4,0.5-0.9,0.3-1.4c0-0.1,0-0.1-0.1-0.2l-0.1-0.2c-0.3-1.2-0.3-1.2,0.7-1.8c0,0,0.1-0.1,0.1-0.1c0,0,0,0,0,0l0.1-0.1
		l-0.1-0.1c0,0,0,0,0,0l1.6,0.4l0-0.1c0.1-0.4,0.1-0.8-0.2-1.1c-0.2-0.3-0.3-0.5-0.2-0.8l0.3-0.7l-0.5,0.6c-0.3,0.3-0.3,0.8,0,1.1
		l0.1,0.2l-1-0.4l-0.1,0.8c-0.5-0.5-0.5-0.9-0.1-1.6c0.3-0.4,0.4-1,0.2-1.5c-0.1-0.2-0.1-0.5,0.1-0.7l1.4,0.7l0.1-0.1
		c0.2-0.3,0.4-0.6,0.4-1c0-0.4,0.2-0.7,0.4-1c0.4,0.6,0.6,1.2,0.5,1.9c-0.1,0.5,0.2,1,0.7,1.2l0.2,0.1v-0.2c0-0.1,0-0.3,0-0.4
		c0-0.3,0-0.6,0-0.8c-0.1-0.9-0.4-1.7-0.9-2.4C12.1,8.9,12,8.4,11.8,8c0-0.1-0.1-0.3-0.2-0.4l0.9,1.1h0.1l0.4-0.1
		c0.3-0.1,0.5-0.1,0.8-0.2c1.3-0.3,2.6-0.3,3.8,0c0.1,0,0.2,0,0.3,0h0.4l-0.1-0.2c-0.2-0.5-0.7-0.9-1.2-1c-0.6-0.1-1.2-0.1-1.8-0.1
		H15c-0.2,0-0.4,0-0.4-0.2h0.1c0.1,0,0.3-0.1,0.4-0.1c1.5-0.2,3-0.1,4.5,0.2c4.8,1.1,9.1,3.7,12.3,7.4c0.7,0.8,1.6,1.5,2.7,1.8
		l0.2,0.1c0.2,0.1,0.4,0.1,0.6,0.2l0.2,0.1c0.3,0.2,0.6,0.4,0.9,0.7c1.1,1.5,2.1,2.9,3,4.3c0.3,0.4,0.5,0.9,0.7,1.4
		c0.1,0.2,0.1,0.3,0.2,0.5c0.1,0.2,0.1,0.4,0.2,0.5c0.1,0.3,0.2,0.6,0.4,0.9c0.8,1.4,1.9,2.6,3.2,3.7c2.6,2,5.4,3.6,8.5,4.7
		c0.2,0.1,0.4,0.1,0.6,0.1h0.1c2.3,0.1,4.5,0.9,6.2,2.4l0.4,0.3l0.5,0.4c2.3,2.1,4.2,4.7,5.3,7.6c0.4,1,0.5,2.2,0.3,3.3
		c-0.2,1.1-0.3,2.2-0.4,3.4l-0.1,1.1c0,0.3,0,0.6,0.1,0.8c0,0.1,0.1,0.2,0.2,0.3c0,0,0.1,0.1,0.1,0.1l0.1,0.2l0.3-0.8l0.4,3
		c-0.5-0.1-1-0.4-1.3-0.7c-1.5-1.2-2.7-2.7-3.7-4.3c-0.4-0.5-0.6-1.1-0.6-1.8c-0.1-1.1-0.1-2.2-0.2-3.2V45c0-1.3-0.2-2.7-0.7-3.9
		c-0.2-0.6-0.6-1.2-1.1-1.7l-0.2-0.2l0,0.4c0,0.4,0.1,0.8,0.1,1.1c0.3,1.3,0.2,2.8-0.4,4c0-0.1-0.1-0.2-0.1-0.2
		c-0.1-0.4-0.2-0.8-0.4-1.2c-0.2-0.7-0.4-1.4-0.6-2c-0.2-0.5-0.2-1,0-1.4c0.7-1.3,0.3-2.9-0.9-3.8c-0.3-0.3-0.7-0.5-1-0.8L55.3,35
		c-0.1-0.1-0.2-0.1-0.3-0.1l-0.2-0.1l-0.3-0.1l0.1,0.3l0.1,0.3l0.2,0.4c1.1,2.2,0.6,4.8-1.3,6.4c-1,0.9-2.2,1.6-3.5,1.9l-0.3,0.1
		c-0.7,0.2-1.5,0.4-2.3,0.3c-2.9-0.3-5.6-1.5-7.8-3.4c-0.7-0.6-1.3-1.3-1.9-2c0.4-0.6,0.6-1.3,0.6-2c0-0.4-0.1-0.9-0.1-1.3
		c0-0.4-0.1-0.8-0.1-1.2c-0.1-0.6-0.2-1.3-0.2-1.9c-0.2-1.3,0.3-2.6,1.3-3.5c0.6-0.6,1.3-1,2.1-1.3l0.4-0.2l0.2-0.1l0.1-0.1L42,27.2
		c-0.3-0.4-0.6-0.9-0.8-1.3c-0.3-0.7-0.7-1.3-1.2-1.9l-0.2-0.2l-0.1,0.2l-0.1,0.5c-0.1,0.3-0.2,0.5-0.2,0.8v0.1
		C39.3,26,39,26.6,38.5,27c-0.2,0.1-0.4,0.3-0.5,0.5l-0.2,0.2l-0.3,0.4l-0.1,0.1L37,27.3h-0.4v0.1l-0.1,0.4c-0.1,0.3-0.2,0.7-0.2,1
		c-0.2,1-0.4,2-0.6,3c-0.3,1.3-0.5,2.7-0.8,4.1c-0.2,1-0.5,2.1-1,3c-0.6,1.1-1.7,1.7-2.9,1.5v-1.7l-0.2,0.2l-0.3,0.3
		c-0.2,0.2-0.4,0.4-0.5,0.6c-0.9,1.2-2.4,1.5-3.7,0.8c-1.3-0.6-2.7-0.9-4.1-1.1c-0.5-0.1-0.9-0.1-1.4-0.1h-0.6h-0.1L19.5,41.6z
		 M28.3,5.4l-0.7,0.2l0.7,0.1h0.1c1,0.2,1.9,0.1,2.9-0.1c1-0.2,1.9-0.8,2.5-1.6c0.4,0.6,0.7,1.3,0.9,2.1l0.1,0.3L35,6
		c0.2-0.4,0.4-0.8,0.6-1.2c0.2,0.6,0.3,1.1,0.3,1.7c0,0.6-0.3,1.1-0.8,1.3c-0.5,0.3-1.1,0.5-1.7,0.6c-1,0.2-2.1,0.3-3.1,0.3h-1.3
		h-0.4c-0.7,0-1.4-0.2-2-0.5c-0.3-0.2-0.9-0.5-1.3-0.6l-0.3-0.1c-1.1-0.5-2.2-0.9-3.4-1.2l-1.1-0.3l-0.5-0.2h-0.1l0.3-0.3
		c0.7-0.5,1.6-0.9,2.5-0.9c0.2,0,0.4,0,0.6,0c0.3,0,0.7,0,1.1,0c0.4,0,0.7,0,1.1,0h0.4c1.3,0,2.6-0.3,3.7-0.9
		C29.3,4.2,28.9,5.2,28.3,5.4z M38.8,13.5c0.6-0.2,1.2-0.2,1.7-0.1c-0.3,0.1-0.7,0.2-1,0.4l-0.1,0.1l0.1,0.1
		c0.1,0.1,0.2,0.3,0.4,0.4c0.3,0.3,0.6,0.8,0.7,1.3c0.2,0.6,0.2,1.2,0.1,1.9c0,0.1,0,0.3,0,0.4c0,0.3,0,0.6,0,0.9
		c-0.1-0.1-0.3-0.3-0.4-0.4c-0.2-0.3-0.5-0.6-0.8-0.7l-0.3-0.1l0.2,0.3c0.2,0.4,0.3,0.8,0.4,1.3c0,0.3,0.1,0.6,0.2,0.9
		c-0.3-0.2-0.5-0.5-0.6-0.8l-0.1-0.1c-0.1-0.1-0.1-0.2-0.2-0.3c-0.2-0.4-0.5-0.8-0.7-1.2c-0.6-1.1-1.7-1.9-2.8-2.3
		c-0.4-0.1-0.8-0.3-1.2-0.5l-0.1-0.1c-0.1-0.1-0.3-0.2-0.4-0.3c-0.7-1-1.5-1.9-2.5-2.7l-1.1-1L30,10.3c1.3,0.2,2.5,0.7,3.4,1.6
		c0.8,0.8,2,1.1,3,0.7c2-0.9,2.6-0.9,3.3-0.9c-0.3,0.6-0.7,1.1-1.1,1.6c0,0-0.1,0.1-0.1,0.2C38.6,13.6,38.7,13.5,38.8,13.5z
		 M56.5,43.8c0-0.1,0-0.3,0-0.4c0.1,0.1,0.1,0.2,0.1,0.2c0.1,0.4,0.2,0.8,0.2,1.2L57,46c0.1,1.7,0.5,3.4,1.2,4.9
		c-0.7-0.6-1.2-1.3-1.5-2.1c-0.2-0.6-0.6-1-1.2-1.3C56.4,46.5,56.7,45.1,56.5,43.8z M5.2,10.3L4.4,8.8c0.5,0.2,0.9,0.5,1.1,1
		L5.2,10.3z M74,44.4c-0.3-1-0.7-1.9-1.3-2.8C73.3,42.4,73.7,43.4,74,44.4c0,0.2,0.1,0.4,0.1,0.6C74.1,44.8,74.1,44.6,74,44.4z
		 M63.7,36.7c0.2-0.1,0.4-0.2,0.6-0.3c1-0.3,2-0.4,3-0.3c2.1,0.3,4.1,1.1,5.7,2.4c1.1,0.8,2.1,1.8,3.1,2.6l0.6,0.5l0.5,0.4
		c0.7,0.7,1.5,1.3,2.4,1.7c-0.5,0-1-0.1-1.5-0.3l-0.6-0.2l0.3,0.3c0.9,0.9,2.2,1.4,3.5,1.3c-0.8,0.2-1.6,0.3-2.4,0.3
		c-1,0-2-0.4-2.8-1.1L75.7,44l0.1,0.4c0.5,1.7,1.7,3.1,3.2,3.9c0.7,0.3,1.4,0.7,2.1,1l0.7,0.3c1,0.4,2,1,2.8,1.7
		c0.4,0.3,0.7,0.6,0.9,1l-0.3-0.1c-0.7-0.5-1.5-0.7-2.3-0.7h-0.5l0.4,0.2c1,0.5,1.9,1.2,2.7,2l0.2,0.1c0.7,0.8,1.6,1.4,2.5,1.8
		c-0.8-0.1-1.6-0.3-2.2-0.7c-0.4-0.2-0.8-0.4-1.2-0.7c-0.4-0.3-0.9-0.5-1.4-0.8c-0.5-0.3-1.1-0.5-1.7-0.7l-0.7-0.3l-0.2-0.1
		c-0.1,0-0.2,0-0.2,0.1v0.1l0.1,0.1l0.4,0.4c0.3,0.3,0.7,0.7,1.1,1c0.2,0.2,0.5,0.3,0.8,0.5h0.1c0,0,0.1,0,0.2,0.1h-0.1
		c-0.3,0-0.7,0-1,0c-1.3-0.1-2.6-0.7-3.6-1.5c-1.3-1.1-2.5-2.2-3.5-3.5l-0.3-0.3l-0.1-0.1l-0.2-0.2V49c-0.3,1.6,0.4,3.2,1.6,4.2
		l0.4,0.4l0.5,0.4c-1.8-0.5-3.2-2-3.6-3.8c-0.2-1-0.4-2.1-0.6-3.1c-0.1-0.4-0.2-0.9-0.3-1.4c-0.1-0.5-0.2-1-0.3-1.5L72,43.7
		c1,1,1.7,2.4,1.8,3.9l0.1,0.5l0.2-0.5c0.4-1.1,0.5-2.2,0.3-3.3c-0.2-1-0.7-1.9-1.3-2.7h0.2c0.3,0.1,0.7,0.2,1,0.3
		c0.3,0.1,0.5,0.2,0.8,0.4c0.2,0.1,0.3,0.2,0.5,0.4l0.2,0.2l0.1,0.1l0.2-0.2l-0.1-0.1l-0.1-0.1l-0.3-0.4c-1.6-1.9-3.8-3.4-6.2-4.2
		c-1.8-0.8-3.8-1.1-5.8-0.8c0,0,0-0.1,0-0.1C63.5,36.9,63.6,36.8,63.7,36.7z M63.5,37.2C63.5,37.2,63.5,37.2,63.5,37.2
		c-0.3-0.2-0.2-0.4-0.1-0.5c0,0.1-0.1,0.1-0.1,0.2C63.4,37,63.4,37.1,63.5,37.2z M61.8,62.3l0.2,0c0.3,0.1,0.5,0.1,0.8,0.1
		c0.1,0,0.3,0.1,0.4,0.1c0.4,0.3,0.6,0.7,0.7,1.2l-0.3-0.2l-1.2-0.8C62.1,62.7,61.9,62.5,61.8,62.3z M71,60.1l0.2,0.1
		c0.3,0.1,0.5,0.2,0.8,0.3c0.3,0.1,0.6,0.3,0.6,0.6c0.1,0.7,0.3,1.4,0.4,2.2c-0.3-0.5-0.6-0.9-1-1.3c-0.2-0.3-0.5-0.6-0.7-0.9
		C71.1,60.8,71,60.5,71,60.1z M67.2,45.1C67.2,45.1,67.2,45.1,67.2,45.1C67.2,45.1,67.2,45.1,67.2,45.1z M83.2,56.1l0.1-0.1
		c0,0,0,0,0,0L83.2,56.1C83.2,56.1,83.2,56.1,83.2,56.1z M20.3,40.9c0-0.1,0.1-0.2,0.2-0.3l0,0C20.4,40.7,20.3,40.8,20.3,40.9z
		 M75.1,72.9c0.1,0.2,0.2,0.4,0.4,0.5C75.4,73.3,75.2,73.1,75.1,72.9z M80.2,77.8L80,77.6c-0.2-0.1-0.3-0.3-0.3-0.5
		c-0.2-0.6-0.6-1.2-1.1-1.6c-0.1-0.1-0.2-0.2-0.4-0.3c0.1,0.1,0.3,0.3,0.4,0.4c0.5,0.4,0.9,1,1.1,1.6c0.1,0.2,0.2,0.4,0.4,0.6
		c0.9,0.8,1.9,1.5,2.8,2.3c0.1,0.1,0.3,0.2,0.4,0.2c-0.1,0-0.2-0.1-0.4-0.2C82,79.3,81.1,78.5,80.2,77.8z"/>
	<path class="st1" d="M29.5,18.4h-0.2l-0.5-0.1c-1.5-0.1-2.8-0.7-4-1.5l-0.1,0h-0.1c-0.6,0.2-0.5,0.8-0.4,1c0.1,0.5,0.3,1,0.5,1.4
		c0.5,0.8,1,1.6,1.6,2.3c0.1,0.2,0.3,0.3,0.5,0.4l0.3,0.2l0.2,0.1l0-0.2c0.3-1.3,1-2.5,1.9-3.4L29.5,18.4z"/>
	<path class="st1" d="M31.4,23.8c0.3-0.6,0.6-1.2,0.9-1.8l0.1-0.3c0.1-0.3,0.2-0.7,0.4-1s0.2-0.7,0.4-1.1c0.2-0.6,0.6-1,1.2-1.3
		c0.2-0.1,0.4-0.1,0.5-0.2l0.3-0.1l0.3-0.1l-0.3-0.1c-1-0.4-2.1-0.2-2.9,0.6c-0.5,0.6-1,1.3-1.2,2c-0.2,0.5-0.3,1-0.5,1.5
		c-0.1,0.2-0.2,0.4-0.2,0.7c-0.2,0.6-0.5,1.2-0.9,1.6c-0.1,0.1-0.2,0.2-0.2,0.3L29,24.6v0.1l0.2,0.3l0,0
		C30.1,24.9,30.9,24.5,31.4,23.8z"/>
	<path class="st1" d="M21.9,36.7c0.2,0,0.4-0.1,0.5-0.1c0,0,0.1,0,0.1,0H23c0.5,0,0.9,0,1.4,0c0.9,0.1,1.8-0.1,2.6-0.7
		c0.4-0.3,0.7-0.7,0.8-1.2c0-0.1,0.1-0.2,0.2-0.3c0.1-0.1,0.1-0.2,0.2-0.3c0-0.1,0-0.2,0-0.3v-0.2l-0.4-0.1l0,0.1l-0.1,0.2
		c-0.1,0.1-0.2,0.2-0.3,0.4c-0.5,0.7-1.2,1.2-2,1.3l-0.8,0.1l-1.1,0.2c-0.6,0.1-1.1,0.4-1.5,0.8l-0.3,0.3L21.9,36.7
		C21.9,36.6,21.9,36.6,21.9,36.7z"/>
	<path class="st1" d="M8.7,26.7c-0.1-0.4-0.2-0.9-0.3-1.3l-0.1-0.3c0-0.1,0-0.1-0.1-0.1L8.2,25l-0.1-0.1L8,25
		c-0.3,0.3-0.5,0.7-0.5,1.2c0,0.5,0,1,0.1,1.5c0,0.5,0.3,1,0.8,1.2C8.8,29,9,29.3,9.2,29.6c0.1,0.1,0.2,0.2,0.3,0.3l0.1,0.1l0.1-0.2
		c0.3-0.6,0.1-1.4-0.3-1.9C9,27.7,8.8,27.2,8.7,26.7z"/>
	<path class="st1" d="M27.6,36.6c-0.1,0.1-0.2,0.2-0.3,0.3c-0.4,0.6-1.1,0.8-1.8,0.7l-1.2-0.1l-0.8-0.1H23h-0.4v0.4h0.1
		c1,0.4,2,0.7,3.1,0.7c0.3,0,0.5-0.1,0.8-0.1c0.4-0.1,0.7-0.3,0.9-0.6c0.1-0.1,0.1-0.1,0.2-0.2c0.2-0.3,0.4-0.5,0.7-0.7
		c0.1-0.1,0.2-0.1,0.2-0.2c0.2-0.2,0.4-0.3,0.6-0.4l0.4-0.2h-0.4c-0.5-0.1-1,0.1-1.4,0.4L27.6,36.6z"/>
	<path class="st1" d="M31.7,34.6c0.1-0.7-0.1-1.4-0.5-1.9L31,32.4v0.4c0,0.1,0,0.2,0,0.3c0,0.8-0.2,1.7-0.6,2.4l-0.1,0.1l0,0.1
		c0.1,0.2,0.2,0.4,0.4,0.5c0.5,0.5,0.8,1.2,0.9,1.8v0.4l0.3-0.3c0.3-0.5,0.4-1.2,0.1-1.8C31.8,35.8,31.7,35.2,31.7,34.6z"/>
	<path class="st1" d="M8.1,29.2C7.5,29,7.2,29.3,7,29.8v0.1l0.7,0.5v0.1v0.1c-0.1,0.2-0.3,0.6,0.1,0.9c0.2,0.2,0.5,0.2,0.7,0.2
		c0.2,0,0.4-0.1,0.6-0.2c0.3-0.2,0.4-0.6,0.2-0.9C9.2,29.9,8.7,29.4,8.1,29.2z"/>
	<path class="st1" d="M19,38.1l-0.1,0.1l-0.1,0.2c-0.1,0.1-0.2,0.3-0.3,0.4c-0.1,0.2-0.2,0.4-0.2,0.7c0,0.3,0.1,0.7,0.1,1
		c0,0.1,0,0.3,0,0.4v0.2l0.2-0.1c0.3-0.2,0.6-0.6,0.5-1c0-0.3,0.1-0.5,0.2-0.8c0.1-0.3,0.1-0.7-0.1-1L19,38.1z"/>
	<path class="st1" d="M11.5,16.7c0-0.3,0-0.7-0.1-0.8c0-0.1,0-0.3,0-0.4v-0.2l-0.2,0.1l-0.1,0.1c-0.1,0-0.1,0.1-0.2,0.1l-0.1,0.1
		c-0.4,0.4-0.8,0.9-1.1,1.3c-0.1,0.2-0.2,0.3-0.3,0.6c-0.1,1.3-0.2,2.7-0.2,4v0.8c0,0.1,0,0.2,0,0.2c0,0,0,0,0,0.1v0.1h0.3l0-0.5
		c0.1-0.3,0.2-0.8,0.2-0.9c0-0.2,0.1-0.3,0.1-0.5c0.1-0.5,0.2-1.1,0.3-1.6c0-0.2,0.2-0.5,0.4-0.5h0l0.3-0.2c0.7-0.4,0.8-0.5,0.7-1.2
		C11.5,17,11.5,16.9,11.5,16.7z"/>
	<polygon class="st1" points="60,85.6 60,80.6 54.4,75 51.3,78 51.3,72.5 40.5,72.5 40.5,75.4 37.8,73.1 34.4,75.7 34.4,73.2 
		26.5,66.7 21.2,70.7 21.2,65.1 12.2,54.2 3,65.3 3,85.6 1.2,85.6 1.2,88.6 6,88.6 6,66.4 12.2,59 18.2,66.2 18.2,76.7 26.4,70.6 
		31.3,74.7 31.3,82 37.7,77 43.5,82.1 43.5,75.6 48.3,75.6 48.3,85.3 54.4,79.2 57,81.9 57,88.6 104.9,88.6 104.9,85.6 	"/>
</g>
</svg>
