<svg xmlns="http://www.w3.org/2000/svg" xmlns:xlink="http://www.w3.org/1999/xlink" width="547.029" height="450.128" viewBox="0 0 547.029 450.128"><defs><clipPath id="a"><rect width="547.029" height="450.128" fill="none"/></clipPath></defs><g transform="translate(0 0)" opacity="0.2"><g transform="translate(0 0)" clip-path="url(#a)"><path d="M530.1,321.381c-5.513-.758-10.815-2.33-15.309-6.149,9.758,1.212,18.668-.542,26.317-7.084-.808.216-1.638.393-2.435.664-10.045,3.459-18.735,1.489-26.007-6.393-4.179-4.533-8.352-9.066-12.674-13.455-9.979-10.117-22.128-16.41-35.8-19.925a96.659,96.659,0,0,1-12.115-3.575c3.786.277,7.588.415,11.352.869,4.035.482,8.059,1.124,12.032,1.954,3.858.808,7.693,1.8,11.451,2.978,3.714,1.162,7.328,2.651,11.075,3.769-9.868-8.3-21.486-12.813-33.872-15.973,3.221-.548,6.476-.946,9.647-1.688a38.17,38.17,0,0,0,9.038-3.315c-3.249-.526-6.514-.946-9.735-1.6-14.805-2.994-27.751-10-39.362-19.349a240.488,240.488,0,0,1-24.12-21.618c-17.827-18.857-46.8-22.354-68.109-11.5-.714.365-1.456.681-2.164,1.013a3.614,3.614,0,0,1-.985-.509,61.9,61.9,0,0,0-37.243-19.665c-16.128-2.4-29.472-10.206-42.545-18.884a84.483,84.483,0,0,1-26.151-27.17,18.572,18.572,0,0,1-1.583-3.454c-2.618-7.571-5.186-15.154-7.765-22.731a8.422,8.422,0,0,1-.183-1.068c5.418,4.245,5.418,4.245,8.817,4.284a31.125,31.125,0,0,1-2.2-3.044,33.835,33.835,0,0,1-1.544-3.824c4.533,2.441,8.706,3.083,13.477,1.013a23.735,23.735,0,0,0-2.408-.8c-6.752-1.4-9.5-4.505-10.034-11.418-.116-1.505-.111-3.022-.2-4.527-.332-5.324-1.046-6.935-5.131-11.722,7.693,1.306,8.2,1.19,10.853-2.839-3.376,1.245-5.208-.686-7.544-2.38a50.912,50.912,0,0,0-4.793-2.778,7.365,7.365,0,0,1,5.014-2.784c2.059-.365,4.145-.531,6.226-.742a8.292,8.292,0,0,0,5.994-2.884c-6.835.443-12.575-1.8-18.475-3.31-5.988-1.528-11.667-.421-17.406,1.627a56.861,56.861,0,0,1-10.842,2.23c-1.638.244-4.671-1.362-7.217-3.265a45.979,45.979,0,0,0-11.23-6.072,71.721,71.721,0,0,0,9.68-1.339,47.571,47.571,0,0,0,10.721-3.841,14.522,14.522,0,0,0,8.07-12.575,30.394,30.394,0,0,0-2.839-14.418L190.259,0l-.786,17.036-3.968-7.721-5.269,7.909c-1.954,2.939-3.243,4.876-10.865,7.239a25.5,25.5,0,0,1-3.786.852,13.235,13.235,0,0,0,1.677-6.852l-.232-9.619-8.241,4.981c-4.466,2.706-7.544,4.262-18.8,4.848-.57.028-1.157.044-1.8.044-1.788,0-3.647-.105-5.634-.221-2.053-.116-4.179-.238-6.3-.238-1.384,0-2.629.05-3.808.155a31.812,31.812,0,0,0-17.152,6.448c-.72.565-1.356,1.14-2.109,1.815-.36.321-.758.686-1.234,1.1l-3.858,3.387c-6.022-1.317-15.3-2.922-22.747-1.66a29.755,29.755,0,0,0-4.693,1.284c-4.323,1.373-8.662,2.9-13.244,4.395-.592-.67-1.345-1.666-2.236-2.518a27.847,27.847,0,0,0-4.206-3.609c-2.125-1.306-3.52-.548-4.018,1.882a4.03,4.03,0,0,0-.089,1.384c.636,3.963-.919,7.516-1.992,11.379-5.513.8-10.056,3.31-13.018,8.042-3.254-2.607-6.547-4.97-9.5-7.693-2.95-2.706-5.579-5.778-8.263-8.606a2.11,2.11,0,0,0-2.308,2.585c.742,7.832.6,15.873,4.046,23.168C17,63.7,19.294,65.691,21.347,68.242a11.817,11.817,0,0,1-3.586-.061C14.789,67.229,11.9,66,8.988,64.866,6.121,63.754,3.371,62.2,0,62.591c2.54,1.528,4.931,2.978,7.328,4.417-.116.255-.244.5-.36.758-1.854-.4-3.708-.786-5.562-1.179l-.166.443A30.33,30.33,0,0,1,5.3,69.925c1.229,1.207,1.976,2.895,3.2,4.1a38.072,38.072,0,0,0,4.638,3.586,6.688,6.688,0,0,1,2.225,1.909c-1.135.249-2.269.5-3.752.83,4.583,2.452,8.867,2.12,13.355-.094v4.511c-4.406,3.559-4.92,9.2-7.239,13.737,3.21,5.07,6.2,9.752,6.675,15.646.36,4.505,1.45,8.944,2.031,13.433a41.453,41.453,0,0,1,.166,6.531c-.166,6.155-.432,12.309-.631,18.464-.055,1.727-.006,3.459-.006,4.859A10.468,10.468,0,0,1,24.9,158.5c-3.564,2.463-3.941,4.771-1.395,8.4a4.6,4.6,0,0,1,1.035,1.749c.476,3.575,2.784,6.221,5.048,8.562,2.585,2.684,5.883,4.727,9.021,6.824a6.465,6.465,0,0,0,3.957,1.118c5.4-.6,10.992-.282,15.951-3.2a9.6,9.6,0,0,0,3.863-10.588c-.681-2.059-1.063-4.212-1.638-6.547,4.262-1.09,4.754-4.007,4.245-7.394a9.127,9.127,0,0,1,2.02-7.145c2.806-3.73,5.2-7.66,5.867-12.475a4.324,4.324,0,0,1,2.336-2.74c4.522-1.937,7.068-5.607,8.883-9.841,1.688-3.935,3.016-8.031,4.494-12.06.31-.852.565-1.727.886-2.712a4.218,4.218,0,0,1,3.382,4.7c-.161,3.481-.625,6.968-.52,10.438.166,5.557.725,11.1,1.046,16.654a7.287,7.287,0,0,1-.365,3.658,43.006,43.006,0,0,0-4.024,32.765c-5.939,6.78-9.127,14.8-10.992,23.434a10.67,10.67,0,0,1-4.483,6.431,105.534,105.534,0,0,1-8.95,6.038c-3.232,1.871-4.157,4.577-4.317,8.1-.338,7.411,2.756,13.294,7.649,18.425a59.1,59.1,0,0,1,12.519,20.356c1.057,2.806,1.6,5.806,2.419,8.7.747,2.679,1.456,5.38,2.358,8.009a8.117,8.117,0,0,0,5.429,5.02c6.952,2.4,15.37,10.687,17.75,17.423a9.362,9.362,0,0,0,6.044,6.282c1.638.542,3.116,1.539,4.71,2.219a119.3,119.3,0,0,0,11.241,4.583c3.714,1.151,5.839.028,7.931-3.265,2.12-3.332,2.363-7.029,1.76-10.77a32.622,32.622,0,0,0-7.04-15.364,10.324,10.324,0,0,0-4.162-3.016,64.87,64.87,0,0,0-9.652-2.861,7.753,7.753,0,0,0-3.985.736,23.169,23.169,0,0,0-3.454,2.042c-2.042-1.926-4.057-3.819-6.232-5.861.553-1.068,1.068-2.053,1.633-3.144-2.729-4.566-5.457-8.938-10.765-10.992a6.274,6.274,0,0,1-2.839-2.922C90.669,252.6,87.9,246.84,85.2,241.056c-.775-1.671-.138-7.256.9-10.184,3.625,2.789,7.832,4.644,10.61,8.346,3.564,4.732,7.317,9.359,10.438,14.374a40.912,40.912,0,0,1,4.312,10.56c.88,3.149,2.075,5.85,4.649,7.915,5.529,4.422,11.534,6.625,18.74,4.832a40.866,40.866,0,0,1,15.2-.913,30.52,30.52,0,0,0,18.5-3.758c5.064-2.74,5.817-6.066,2.773-10.959-3.62-5.822-8.728-10.222-14.08-14.357a3.358,3.358,0,0,0-1.882-.764c-5.1.028-10.018.631-13.466,5.086a8.6,8.6,0,0,1-.88,1.068c-3.193,2.928-3.254,3.083-2.28,7.488-1.3.266-2.59.526-4.1.83-1.754-5.8-6.06-8.2-11.484-9.237a118.818,118.818,0,0,1-12.569-19.6c-1.489-2.917-1.339-3.553.83-7.19,5.894,1.312,12.187,1.345,18.1,3.6a218.454,218.454,0,0,1,32.8,16.128c3.354,1.976,6.066,5.031,9.116,7.533,13.826,11.324,28.6,21.12,45.279,27.773a123.245,123.245,0,0,0,13.538,4.516c4.478,1.207,9.082,1.921,14.058,2.944,4.04,8.274,10.975,14.136,17.805,20.113a20.47,20.47,0,0,1,3.891,4.771c4.151,6.852,8.092,13.831,12.27,20.672,2.164,3.537,5.407,5.656,9.265,7.483,11.008,5.225,21.917,10.743,32.494,16.787,8.252,4.716,15.967,10.361,23.877,15.658a8.953,8.953,0,0,1,2.336,2.529c4.334,6.614,8.579,13.278,12.9,19.891a24,24,0,0,1,3.813,10.7c.78,6.813,5.236,10.853,10.793,14.335,3.869,2.424,7.178,5.789,10.588,8.894.648.592.7,1.915.891,2.917.625,3.315,1.843,6.1,5.031,7.887,5.153,2.895,10.117,6.138,15.281,9.01,2.109,1.173,4.505,1.992,7.344.83,3.625-5.391,6.376-11.28,5.2-18.314a12.047,12.047,0,0,0-3.8-7.278c-2.607-2.3-5.158-4.682-7.915-6.808-2.723-2.092-5.684-2.507-8.667-.249a13.527,13.527,0,0,1-2.6,1.129c-2.181-2.159-4.367-4.334-6.155-6.1a6.621,6.621,0,0,1-.188-1.013c1.279-7.654-2.441-12.652-8.994-15.541-9.968-4.395-13.892-13.621-18.386-22.321-1.251-2.413-.6-5.734-1.3-8.523-1.439-5.845-3.077-11.65-4.859-17.4a9.48,9.48,0,0,0-8.02-6.874c-2.867-.476-5.723-1.04-8.6-1.395a10.635,10.635,0,0,1-8.086-4.782,70.289,70.289,0,0,0-6.3-8.346c-6.819-7.488-7.881-17.058-10.139-26.279,1.793-1.135,3.171-.315,4.323.553a108.957,108.957,0,0,1,8.933,7.217c4.24,3.963,8.269,8.164,12.331,12.32a19.566,19.566,0,0,0,7.538,4.843c9.182,3.293,17.008,9.01,25.006,14.407a8.182,8.182,0,0,1,2.186,3.044c3.4,6.31,7.35,12.32,13.488,16.161a26.17,26.17,0,0,1,9.558,10.743c5.263,10.211,10.754,20.29,14.512,31.232,1.577,4.577,4.566,8.568,9.962,9.918a15,15,0,0,1,5.291,3.072c1.9,1.511,3.47,3.437,5.3,5.042a18.913,18.913,0,0,1,6.016,8.75,6.875,6.875,0,0,0,2.075,3.1c5.2,4.289,10.372,8.612,15.79,12.613,3.57,2.64,4.627,2.325,7.776-.841,5.131-5.153,5.479-11.451,4.55-18.176-1.135-8.158-6.016-13.471-12.984-16.914a11.867,11.867,0,0,0-7.411-.559c-4.284,1.007-7.184-.653-9.846-3.542-1.1-1.2-2.2-2.385-3.354-3.636,1.533-6.121-1.467-10.311-5.845-13.886a11.7,11.7,0,0,0-1.948-1.461c-7.09-3.586-10.256-10.516-14.235-16.726a40.477,40.477,0,0,1-6.365-19.327,94.723,94.723,0,0,0-1.35-10.361,27.319,27.319,0,0,0-1.97-5.917,7.312,7.312,0,0,0-5.452-4.367,27.573,27.573,0,0,1-14.379-8.053,8.079,8.079,0,0,0-1.483-1.467c-4.505-2.784-5.186-7.012-5.33-11.933a300.76,300.76,0,0,0-5.059-48.489c-1.456-7.472-4.074-14.711-6.138-21.973,3.182-.144,7.339,2.756,8.429,6.73a63.469,63.469,0,0,1,2.037,10.909c.858,9.016,1.179,18.1,2.186,27.1,1.334,12.032,4.566,23.478,12.06,33.341a41.545,41.545,0,0,0,15.337,12.542c-6.16-8.756-10.782-18.132-11.656-29.079,1.207,1.915,2.385,3.858,3.642,5.751,4.577,6.88,9.94,12.962,17.849,16.062a35.539,35.539,0,0,0,9.4,2.441,194.492,194.492,0,0,0,19.46.648c-11.994-3.741-23.378-8.164-29.97-19.914,3.454,2.02,6.741,4.466,10.405,5.977,8.579,3.531,17.34,6.625,26.035,9.868,4.024,1.505,8.108,2.845,12.093,4.45a57.549,57.549,0,0,1,17.578,11.18c-3.387-11.363-11.468-18.12-22.194-22.294.1-.216.21-.432.31-.648,2.341.852,4.754,1.55,7.007,2.59,7.278,3.348,14.39,7.1,21.773,10.195,18.818,7.9,37.907,8.33,57.123,1.328.636-.232,1.256-.509,2.557-1.035-6.11-.565-11.545-.88-16.93-1.616M78.88,227.292c-.365,2.385-.952,3.216-3.26,4.079.3-1.14,1.1-2.424.775-3.288-1.533-4.074-.2-7.45,2.059-10.721a1.459,1.459,0,0,1,.2-.21c.3,0,.6,0,.9-.006a21.778,21.778,0,0,1,.393,4.157c-.177,2.015-.775,3.985-1.074,5.989M345.136,344.427a4.939,4.939,0,0,1,2.518.908,12.931,12.931,0,0,1,4.439,8.695c-3.243-2.042-6.393-4.079-9.592-6.027-1.677-1.024-3.144-2.147-3.625-4.1,2.23.177,4.256.271,6.26.526m45-12.768c2.125.88,4.085,1.8,6.132,2.507a5.114,5.114,0,0,1,3.824,4.035c.836,4.538,1.671,9.071,2.446,13.615a8.751,8.751,0,0,1-.116,2.07,33.631,33.631,0,0,0-6.708-10.2,32.949,32.949,0,0,1-3.719-4.992c-1.278-2.153-2.236-4.494-1.86-7.035M199.021,69.095c12.176-5.335,14.711-5.081,19.908-4.832-1.018,2.242-4.909,8.922-6.9,10-2.037,1.107,8.977-3.431,13.8.7-2.242-.8-6.088.321-8.13,2.092,3.005,3.315,5.524,4.9,6.686,9.265a24.525,24.525,0,0,1,.747,10.51c-.4,3.819-1.1,5.977-.05,8.944-2.546-.686-5.214-6.514-8.1-7.3,2.872,5.2,1.649,9.154,4.317,13.981-3.155-1.223-4.278-3.642-5.933-6.536-1.671-2.928-3.282-5.894-5.12-8.712-3.78-5.789-8.623-10.278-15.431-12.4a59.975,59.975,0,0,1-7.7-3.26,5.866,5.866,0,0,1-2.336-1.921c-3.725-5.706-8.579-10.372-13.543-14.944-2.861-2.64-5.767-5.241-8.994-8.175.869,0,1.2-.028,1.533.006,7.455.764,13.731,4.1,19.255,8.988,4.693,4.145,10.472,6.011,15.99,3.592m-72.77-44.554c1.948,0,3.985.116,5.955.227s4.018.232,5.983.232c.753,0,1.45-.017,2.125-.055,11.545-.6,15.884-2.319,20.578-5.059-.526,3.459-3.127,9.049-6.238,9.78l-3.686.863,3.753.5c.149.022.349.055.581.089,2.524.387,9.226,1.422,15.934-.659,8.49-2.634,11.18-5.324,13.715-8.994,3.526,4.417,5.064,11.5,5.075,11.573l.365,1.716.913-1.5a54.5,54.5,0,0,0,3.537-6.769,22.838,22.838,0,0,1,1.577,9.652,8.275,8.275,0,0,1-4.561,7.322,41.016,41.016,0,0,1-9.282,3.343,82.9,82.9,0,0,1-17.279,1.5c-2.408,0-4.854-.044-7.228-.094l-2.441-.044c-3.985-.072-6.9-1.223-11.169-3.088-1.616-.874-5.158-2.48-7.284-3.443-.675-.3-1.212-.548-1.511-.686a96.045,96.045,0,0,0-18.718-6.459c-1.965-.515-3.985-1.052-6.321-1.7-.9-.255-1.782-.531-2.895-.886-.227-.072-.465-.149-.714-.227.127-.116.255-.227.371-.338.686-.614,1.229-1.1,1.782-1.533A25.593,25.593,0,0,1,123,24.668c.991-.089,2.059-.127,3.254-.127M20.323,46.779c3.487,1.849,7,3.542,8.7,7.068-.814,1.539-1.5,2.845-2.441,4.633-2.175-4.062-4.217-7.881-6.26-11.7m12.06,26.865c-3.409,1.522-6.857,1.992-10.444.321,4.035-.133,6.725-2.4,9.01-5.358,2.042-2.657,4.112-5.3,6.31-8.13-3.448-.1-5.634,2.253-8.673,4.234,2.258-6.536,7.522-9.049,12.785-12.608-2.142.188-3.487.3-5.391.47,2.817-2.651,5.418-4.018,8.695-3.437,1.207,3.36,2.336,6.5,3.515,9.791-.764,4.848-7.311,6.791-6.326,12.724l-.747-.149c-.315-1.871-.631-3.736-1.052-6.238-2.507,5.845-3.454,12.6-11.446,13.217,1.539-1.561,2.872-2.911,4.206-4.262-.144-.194-.293-.382-.443-.576m-.531,31.73c-.963-2.474-1.793-4.356-2.4-6.3a5.1,5.1,0,0,1-.21-3.033c1.273-3.454,2.773-6.819,4.19-10.217.089.055.188.111.282.172-.6,6.254-1.2,12.508-1.86,19.382M84.874,81.138c-1.118-1.627-2.286-3.315-3.714-5.385,6.232-.5,12-.67,16.67,3.47-4.411.653-8.7,1.284-12.957,1.915m28.885,64.933a103.526,103.526,0,0,1-6.78-43.757c.354-6.376-2.673-10.278-7.361-13.577-.9-.636-1.882-1.157-3.454-2.12a8.329,8.329,0,0,1,7.693,1.622,16.447,16.447,0,0,1,5.867,9.608c1.8,8.64,3.443,17.323,5.518,25.891,1.749,7.217,4.057,14.3,6.044,21.458a15.13,15.13,0,0,1-5.712,15.757,26.929,26.929,0,0,0-1.815-14.883M282.81,317.938c.874.642,1.594,1.162,2.3,1.694a59.748,59.748,0,0,0,17.019,9.226c4.345,1.445,7.494,4.483,10.588,7.61.476.482.526,1.384.769,2.1-8.512,2.723-27.8-10.278-30.679-20.633m36.966-35.466c-3.935-3.116-6.409-7.3-8.573-11.717-1.494-3.061-3.243-5.911-7.073-7.256,7.361-7.361,5.717-16.272,5.734-24.983a7.6,7.6,0,0,1,2.092,2.994,44.152,44.152,0,0,1,1.367,6.453c1.666,12.126,1.865,24.59,8.557,35.6a6.637,6.637,0,0,1-2.1-1.1m45.882,6.536c.144.061.282.122.421.183.786,6.464,1.572,12.929,2.363,19.482-3.387-.3-6.06-2.17-8.6-4.2-8.357-6.675-14.988-14.866-20.689-23.865a21.878,21.878,0,0,1-3.57-10.079c-.559-7.178-.952-14.362-1.384-21.552-.432-7.317-.991-14.611-3.625-21.552a23.081,23.081,0,0,0-5.867-9.171c.8,10.416,3.913,20.362-2.435,30.053a25.357,25.357,0,0,1-1.262-2.618c-1.849-5.75-3.6-11.534-5.513-17.263a11.359,11.359,0,0,1,.338-8.368c3.321-8.28,1.743-14.374-4.992-20.334a82.184,82.184,0,0,0-7.284-5.358,12.718,12.718,0,0,0-2.286-.958c.775,1.638,1.339,2.773,1.854,3.93,6.027,13.438,3.437,26.14-7.4,36.136a45.764,45.764,0,0,1-19.775,10.577c-4.8,1.251-9.924,2.861-14.678,2.336-16.394-1.793-31.254-7.76-43.729-18.9a56.565,56.565,0,0,1-10.582-12.126,17.206,17.206,0,0,0,3.271-10.82c-.111-2.43-.338-4.865-.609-7.289-.642-5.773-1.461-11.529-1.992-17.307-.714-7.743,1.517-14.4,7.416-19.764a41.817,41.817,0,0,1,11.811-7.9c.941-.4,1.843-.874,2.933-1.395-4.007-5.623-6.249-12.077-11.13-17.866-.841,2.778-1.55,4.81-2.059,6.9-.919,3.725-1.655,7.411-5.275,9.8-1.472.969-2.363,2.828-3.509,4.289-.847,1.068-1.666,2.147-2.8,3.62-.963-2.147-1.732-3.869-2.5-5.59-.327-.011-.648-.017-.969-.028-.653,2.563-1.411,5.108-1.937,7.693-2.646,12.968-5.18,25.958-7.876,38.914-1.2,5.8-2.69,11.556-5.811,16.7-4,6.57-10.217,9.647-17.3,8.568v-8.33c-1.71,1.871-3.171,3.348-4.5,4.937-5.928,7.123-12.973,8.031-21.248,4.4a81.129,81.129,0,0,0-22.515-5.944c-3.636-.465-7.317-.548-10.975-.8-1.052,4.2-1.976,7.892-2.967,11.839,3.73,6.143,7.533,12.4,11.324,18.652-.144.111-.288.227-.432.338q-2.59-2.142-5.18-4.295l-.57.548a25.915,25.915,0,0,0,8.5,10.034,13.332,13.332,0,0,0,5.037,2.208c5.446,1.057,5.535,1.013,6.348,6.027,1.6,1.627,4.6,2,4.776,4.915-.631,1.777-1.937,2.053-3.431,1.854-1.727-.227-3.459-.465-5.164-.819-3.952-.825-6.276-3.155-6.869-7.284a7.4,7.4,0,0,0-1.716-4.046c-4.92-4.787-8.136-10.71-11.518-16.532-1.838-3.16-3.553-6.393-5.346-9.641-1.2,1.079-2.2,1.987-3.4,3.083-1.677-1.129-3.265-2.064-4.693-3.2-1.633-1.3-2.956-3.055-4.716-4.112a6.588,6.588,0,0,1-3.282-5.048,29.633,29.633,0,0,1-.332-7.261c.742-6.68,5.468-10.71,12.1-10.782a15.6,15.6,0,0,0,4.793-.653,81.545,81.545,0,0,0,18.785-9.055,30.349,30.349,0,0,0,7.533-7.14,75.789,75.789,0,0,1,8.745-9.89c3.9-3.658,6.7-3.775,11.357-1.029,2.7,1.583,5.169,3.548,7.787,5.269,1.339.886,2.784,1.611,4.776,2.745-1.76-2.668-3.232-4.5-4.284-6.542-2.236-4.372-4.81-8.28-10.25-9.226-1.649-12.392-2.2-24.314,5.673-34.957,1.4-1.893,1.085-3.193-1.029-4.2a38.005,38.005,0,0,0-5.6-1.871c-2.336-.686-4.727-1.184-7.04-1.937-2.247-.725-3.454-2.114-3.847-4.749a76.1,76.1,0,0,0-6.785-22.255c-5.457-11.186-13.123-19.98-25.675-23.406-.138-.039-.216-.343-.4-.67,3.559-2.214,6.852-.144,10.411.493a20.45,20.45,0,0,0-4.732-4.915A35.317,35.317,0,0,0,87.586,64.9a23.428,23.428,0,0,0-7.378,1.716,4.485,4.485,0,0,0-2.922,4.334,65.83,65.83,0,0,1-1.234,7.25c2.031,3.88,4.76,7.776,6.2,12.1,4.035,12.071,2.208,23.849-3.122,35.178a14.8,14.8,0,0,1-2.884,3.9c-2.153,2.181-4.71,2.861-7.632,1.433-1.245-.609-2.535-1.162-3.83-1.655-1.356-.509-2.684-.681-3.271.769.6,3.1,1.467,6.238,1.057,9.2-.5,3.786-2.031,7.439-3.177,11.335-2.718-1.334-1.876-4.14-2.723-7.062-1.533,3.664-1.71,6.575-.786,9.553,4.284.553,4.815.969,5.817,4.616-1.279.614-2.607,1.245-3.8,1.81-.952,2.673-1.9,5.164-2.712,7.688a19.978,19.978,0,0,0-.343,2.729,45.018,45.018,0,0,1-1.362,7.1c-1.052,3.027-4.3,4.566-7.09,2.983a34.759,34.759,0,0,1-8.274-6.653c-1.151-1.245-1.052-3.647-1.688-6.2-2.712-2.136-2.8-5.086-.731-8.662,1.284-2.23,1.771-4.92,2.618-7.411-.194-.055-.382-.116-.57-.172-.991.863-1.976,1.732-3.066,2.69a3.837,3.837,0,0,1-.365-.98,8.283,8.283,0,0,1,.161-1.378c1.378-6.946,3.077-13.853,2.441-21.043a9.682,9.682,0,0,1,.387-2.751c1.456-6.736,3.553-13.2,8.07-18.718-1.19-.221-2.186-.4-3.542-.659a15.947,15.947,0,0,1,1.788-2.646c2.153-2.042,2.28-4.439,1.461-7.062-.238-.78-.47-1.555-.708-2.336C42.285,89.1,42.473,88.6,48.4,84.9c.161-.1.227-.354.426-.7-3.448-3.05-2.944-6.3-.509-9.846,1.55-2.247,2.269-4.832,1.018-7.594-.874-1.943-.1-3.581,1.018-5.147,2.474,1.35,4.848,2.64,7.289,3.968,2.933-3.609,1.218-8.772,5.153-11.567a16.572,16.572,0,0,1,3.4,11.634c-.161,2.6.736,4.439,3.647,5.778a57.143,57.143,0,0,0,.443-6.8c-.244-4.765-2.33-8.894-4.66-12.99-1.849-3.249-3.216-6.774-4.8-10.178l.908-.576c1.749,2.042,3.5,4.085,5.507,6.442,2.092-.526,4.345-.969,6.531-1.655,7.167-2.264,14.257-1.1,21.369.249a24.515,24.515,0,0,0,2.828.183c-1.256-3.337-3.426-4.87-6.171-5.192a90.307,90.307,0,0,0-10.394-.393c-1.472-.006-2.778.138-3.033-2.175a22.681,22.681,0,0,1,3.7-.963c8.374-.736,16.731-.814,24.989,1.046,27.336,6.16,49.995,20.312,68.6,40.973a34.387,34.387,0,0,0,14.3,10.007,26.424,26.424,0,0,1,4.859,1.893c2.159,1.3,4.6,2.574,6.049,4.511,5.778,7.721,11.379,15.58,16.7,23.622,2.147,3.238,3.448,7.051,5.037,10.654,1.162,2.64,1.849,5.54,3.3,8a74.651,74.651,0,0,0,17.246,19.958c14.03,11.424,30.092,19.255,46.773,25.924a11.788,11.788,0,0,0,3.382.553c13.023,1.107,25.144,4.483,35.012,13.671,1.533,1.428,3.166,2.745,4.666,4.2,12.464,12.2,23.876,25.116,29.533,42.113a36.206,36.206,0,0,1,1.683,18.436c-1.467,8.081-1.854,16.355-2.59,24.557a14.72,14.72,0,0,0,.542,4.472c.138.62.814,1.118,1.505,2.015.808-2,1.411-3.492,2.009-4.981m108.905,15.154c-4.793-2.607-9.337-5.706-14.185-8.186-4.217-2.164-8.712-3.769-13.089-5.607a3.209,3.209,0,0,0-1-.271,1.384,1.384,0,0,0-.57.039c2.7,2.563,5.38,5.263,8.241,7.749a20.244,20.244,0,0,0,4.395,2.585,15.757,15.757,0,0,0,2.906.808c-.022.277-.044.553-.061.83-2.867,0-5.739.188-8.584-.033-7.688-.6-14.219-4.074-20.2-8.706-7.394-5.728-13.6-12.658-19.753-19.648-.614-.692-1.317-1.317-2.236-2.23-.93,9.259,1.561,16.637,8.324,22.382,1.683,1.428,3.387,2.828,5.059,4.273.614.531,1.168,1.146,2.214,2.186-12.359-3.5-20.5-10.538-23.467-22.443-2.042-8.2-3.277-16.615-4.882-24.934-.786-4.079-1.594-8.153-2.5-12.73,7.688,6.276,10.6,14.357,11.839,23.345a33.438,33.438,0,0,0,.7-18.126c-1.328-6.127-4.594-11.324-7.959-16.288,2.994.775,5.795,1.395,8.523,2.247a18.7,18.7,0,0,1,4.367,2.042,47.05,47.05,0,0,1,4.1,3.193c.127-.144.266-.282.393-.421-.686-.919-1.339-1.86-2.064-2.745-9.01-11.008-20.523-18.425-33.8-23.157-10.427-3.714-21-6.686-32.245-4.206-1.267-1.334-.625-2.446.476-3.26a13.294,13.294,0,0,1,3.365-1.766,36.844,36.844,0,0,1,17.2-1.561,64.718,64.718,0,0,1,32.079,13.493c7.14,5.557,13.864,11.667,20.655,17.656,5.723,5.042,10.97,10.715,18.751,12.8-4.505.9-8.667-.41-12.874-1.555,6.1,6.913,14.351,6.78,22.548,6.946a42.266,42.266,0,0,1-17.019,2.933,25.809,25.809,0,0,1-16-6.149,34.493,34.493,0,0,0,17.611,21.2c5.131,2.712,10.5,4.97,15.785,7.372,5.618,2.557,11.119,5.3,15.907,9.287a28.031,28.031,0,0,1,6.669,7.649c-5.308-2.468-10.045-6.282-16.36-5.8,5.762,2.734,10.444,6.857,15.054,11.108,5.634,5.191,11.136,10.649,19.521,11.163-6.514,1.373-12.326-.47-17.827-3.465" transform="translate(0 0.002)" fill="#fff"/><path d="M52.8,26.3l-1.2-.238c-.858-.166-1.71-.332-2.563-.493-8.186-1.561-15.923-3.039-21.928-8.562l-.3-.277-.393.127c-3.365,1.118-2.646,3.924-2.3,5.28a29.973,29.973,0,0,0,2.9,7.992,144.1,144.1,0,0,0,8.7,12.625,10.713,10.713,0,0,0,2.933,2.391c.587.376,1.184.764,1.815,1.229l.886.648.216-1.068c1.66-8.081,5.989-13.781,10.416-18.74Z" transform="translate(107.944 75.875)" fill="#fff"/><path d="M46.487,21.948c-3.448,3.393-5.319,7.6-6.7,11.263-1.013,2.69-1.932,5.457-2.817,8.136-.415,1.245-.825,2.5-1.251,3.741-1.029,3.011-2.358,6.426-5.18,8.922a6.592,6.592,0,0,0-1.218,1.622c-.133.232-.271.465-.421.681l-.271.393,1.013,1.522.4-.028c5.258-.382,9.376-2.607,11.9-6.448A55.214,55.214,0,0,0,46.669,41.9c.2-.52.41-1.035.62-1.544.747-1.843,1.389-3.753,2.009-5.6.653-1.943,1.323-3.946,2.12-5.856a12.821,12.821,0,0,1,6.5-7.2,30.333,30.333,0,0,1,3.044-1.107c.493-.155.969-.315,1.45-.482l1.566-.548L62.5,18.821c-5.037-2.491-11.617-1.207-16.012,3.127" transform="translate(129.836 79.636)" fill="#fff"/><path d="M36.847,50.885A21.164,21.164,0,0,0,51.16,47.26a10.849,10.849,0,0,0,4.649-6.481,8.472,8.472,0,0,1,.863-1.921,12.335,12.335,0,0,0,.841-1.766,5.337,5.337,0,0,0,.21-1.9c-.006-.244-.006-.487.006-.725l.033-.614-2.219-.41-.26.315c-.244.3-.5.592-.758.88a21.818,21.818,0,0,0-1.649,2.07,17.082,17.082,0,0,1-11.169,7.4c-1.406.3-2.817.587-4.228.869-2.087.421-4.24.852-6.354,1.35-2.812.659-5.778,1.533-8.479,4.306l-1.494,1.522,2.1-.343c.459-.083.847-.149,1.19-.216a11.906,11.906,0,0,1,1.467-.221c1.085-.061,2.186-.16,3.249-.255a43.645,43.645,0,0,1,7.688-.232" transform="translate(95.912 151.641)" fill="#fff"/><path d="M17.279,42.248c-2.579-1.976-3.382-4.677-3.874-7.306-.437-2.358-.957-4.738-1.467-7.04l-.315-1.467a1.494,1.494,0,0,0-.509-.742c-.094-.083-.194-.183-.315-.31l-.476-.52-.515.482A8.793,8.793,0,0,0,7.2,31.987a62.91,62.91,0,0,0,.5,8.036,8.336,8.336,0,0,0,4.527,6.763,17.314,17.314,0,0,1,4.134,4.04c.553.664,1.118,1.356,1.7,1.97l.7.753.437-.93c1.384-2.944.769-8.308-1.926-10.372" transform="translate(32.616 112.751)" fill="#fff"/><path d="M50.564,38.56c-.238.238-.5.459-.786.7a7.194,7.194,0,0,0-1.544,1.6c-2.419,3.786-6.094,4.046-9.7,3.764-2.153-.166-4.35-.376-6.47-.576-1.528-.144-3.061-.293-4.594-.421-1-.089-2.026-.138-3.016-.188-.454-.022-.9-.044-1.356-.072l-.681-.039-.166,2.142.459.194a43.314,43.314,0,0,0,17.168,3.919,32.531,32.531,0,0,0,4.356-.288c2.3-.3,4.339-2.491,4.9-3.155.349-.41.692-.814,1.041-1.229,2.491-2.961,4.848-5.767,8.357-7.444l2.214-1.057-2.441-.266a8.955,8.955,0,0,0-7.743,2.419" transform="translate(100.892 163.529)" fill="#fff"/><path d="M37.9,44.8a15.11,15.11,0,0,0-2.629-10.66l-1.129-1.727-.149,2.059c-.044.625-.083,1.251-.122,1.876-.288,4.787-.57,9.315-3.647,13.244l-.3.4.277.421c.67.985,1.378,1.943,2.07,2.867,2.374,3.166,4.61,6.155,4.765,10.206l.072,2.1,1.2-1.721c2.4-3.465,1.743-6.979.786-9.962A19.233,19.233,0,0,1,37.9,44.8" transform="translate(135.677 146.997)" fill="#fff"/><path d="M12.856,29.421c-3.254-1-4.7.548-5.972,3.376l-.232.509,3.581,2.7V36.1a1.857,1.857,0,0,1-.011.376l-.149.315c-.648,1.362-1.539,3.227.349,4.909a6.413,6.413,0,0,0,4.029,1.146,7.049,7.049,0,0,0,3.786-.941c2.269-1.533,1.644-3.858,1.312-5.109-1.018-3.836-3.271-6.321-6.691-7.378" transform="translate(30.165 132.032)" fill="#fff"/><path d="M21.866,38.105l-.565.719c-.244.315-.5.614-.747.913a11.974,11.974,0,0,0-1.611,2.2,8.557,8.557,0,0,0-1.173,3.819c.017,1.826.21,3.669.4,5.446.077.736.149,1.461.216,2.2l.094.974.891-.4c2.452-1.1,2.706-3.681,2.889-5.562a18.571,18.571,0,0,1,.819-4.123,5.562,5.562,0,0,0-.664-5.452Z" transform="translate(80.581 172.795)" fill="#fff"/><path d="M18.035,27.31c1.035-2.43-.094-4.361-1.079-6.066-.9-1.544-1.677-2.872-1.018-4.472L17.6,12.737l-2.839,3.315c-2,2.33-.974,4.478-.149,6.2.2.426.393.83.542,1.234l-5.767-2L8.9,25.849l8.905,2Z" transform="translate(40.372 57.76)" fill="#fff"/><path d="M20.075,15.469a9.488,9.488,0,0,0-1.671,1.1c-2.336,2.574-4.671,5.131-6.891,7.8A5.093,5.093,0,0,0,10.428,27.1c-.57,8.778-1.046,17.561-1.539,26.351-.017.387.05.786.072,1.179h.581c.5-2.468,1.029-4.937,1.528-7.411.808-3.979,1.655-7.953,2.363-11.955a4.272,4.272,0,0,1,2.474-3.548c.077-.039.144-.089.221-.133,6.293-3.675,5.23-2.369,4.688-9.248-.177-2.17-.465-4.334-.742-6.868" transform="translate(40.297 70.148)" fill="#fff"/></g></g></svg>