<?xml version="1.0" encoding="utf-8"?>
<!-- Generator: Adobe Illustrator 24.3.0, SVG Export Plug-In . SVG Version: 6.00 Build 0)  -->
<svg version="1.1" id="Layer_1" xmlns="http://www.w3.org/2000/svg" xmlns:xlink="http://www.w3.org/1999/xlink" x="0px" y="0px"
	 viewBox="0 0 413 339" style="enable-background:new 0 0 413 339;" xml:space="preserve">
<style type="text/css">
	.st0{opacity:0.2;}
	.st1{fill:#FFFFFF;}
	.st2{opacity:0.2;fill:#FFFFFF;}
</style>
<g class="st0">
	<g>
		<path class="st1" d="M380.6,222.1c-3.8-0.5-7.5-1.6-10.6-4.2c6.7,0.8,12.9-0.4,18.2-4.9c-0.6,0.2-1.1,0.3-1.7,0.5
			c-6.9,2.4-12.9,1-18-4.4c-2.9-3.1-5.8-6.3-8.8-9.3c-6.9-7-15.3-11.3-24.7-13.8c-2.8-0.7-5.6-1.4-8.4-2.5c2.6,0.2,5.2,0.3,7.8,0.6
			c2.8,0.3,5.6,0.8,8.3,1.4c2.7,0.6,5.3,1.2,7.9,2.1c2.6,0.8,5.1,1.8,7.7,2.6c-6.8-5.7-14.9-8.9-23.4-11c2.2-0.4,4.5-0.7,6.7-1.2
			c2.1-0.5,4.2-1.2,6.2-2.3c-2.2-0.4-4.5-0.7-6.7-1.1c-10.2-2.1-19.2-6.9-27.2-13.4c-5.8-4.7-11.6-9.5-16.7-14.9
			c-12.3-13-32.3-15.4-47.1-7.9c-0.5,0.3-1,0.5-1.5,0.7c-0.3-0.1-0.5-0.2-0.7-0.4c-7-7.6-15.8-12.1-25.7-13.6
			c-11.1-1.7-20.4-7.1-29.4-13c-7.4-4.9-13.5-11.1-18.1-18.8c-0.4-0.7-0.8-1.6-1.1-2.4c-1.8-5.2-3.6-10.5-5.4-15.7
			c-0.1-0.2-0.1-0.4-0.1-0.7c3.7,2.9,3.7,2.9,6.1,3c-0.5-0.7-1.1-1.4-1.5-2.1c-0.4-0.7-0.6-1.5-1.1-2.6c3.1,1.7,6,2.1,9.3,0.7
			c-0.7-0.2-1.2-0.5-1.7-0.6c-4.7-1-6.6-3.1-6.9-7.9c-0.1-1-0.1-2.1-0.1-3.1c-0.2-3.7-0.7-4.8-3.5-8.1c5.3,0.9,5.7,0.8,7.5-2
			c-2.3,0.9-3.6-0.5-5.2-1.6c-0.9-0.7-2.1-1.3-3.3-1.9c0.9-1.2,2.1-1.7,3.5-1.9c1.4-0.3,2.9-0.4,4.3-0.5c1.5-0.1,2.8-0.5,4.1-2
			c-4.7,0.3-8.7-1.2-12.8-2.3c-4.1-1.1-8.1-0.3-12,1.1c-2.4,0.9-5,1.2-7.5,1.5c-1.1,0.2-3.2-0.9-5-2.3c-11.3-8.3-22.2-5.7-22.3-5.6
			c-0.2-0.1-0.5-0.2-0.7-0.4c-2.1-1.4-4-3-6.2-4.1c-8.6-4.6-17.8-7.2-27.3-9.1c-1.9-0.4-12.2-3.3-19.7-2.1c-1.5,0.3-2.6,0.7-3.2,0.9
			c-3,0.9-6,2-9.2,3c-0.4-0.5-0.9-1.2-1.5-1.7c-0.9-0.9-1.8-1.8-2.9-2.5c-1.5-0.9-2.4-0.4-2.8,1.3c-0.1,0.3-0.1,0.6-0.1,1
			c0.4,2.7-0.6,5.2-1.4,7.9c-3.8,0.6-7,2.3-9,5.6c-2.2-1.8-4.5-3.4-6.6-5.3c-2-1.9-3.9-4-5.7-5.9c-1.3,0-1.7,0.9-1.6,1.8
			c0.5,5.4,0.4,11,2.8,16c0.8,1.7,2.4,3.1,3.8,4.9c-0.8,0-1.7,0.2-2.5,0c-2.1-0.7-4-1.5-6.1-2.3c-2-0.8-3.9-1.8-6.2-1.6
			c1.8,1.1,3.4,2.1,5.1,3.1c-0.1,0.2-0.2,0.3-0.3,0.5c-1.3-0.3-2.6-0.5-3.8-0.8c0,0.1-0.1,0.2-0.1,0.3c0.9,0.7,2,1.2,2.8,2
			c0.8,0.8,1.4,2,2.2,2.8c1,0.9,2.1,1.7,3.2,2.5c0.5,0.3,1,0.6,1.5,1.3c-0.8,0.2-1.6,0.3-2.6,0.6c3.2,1.7,6.1,1.5,9.2-0.1
			c0,1.1,0,2,0,3.1c-3,2.5-3.4,6.4-5,9.5c2.2,3.5,4.3,6.7,4.6,10.8c0.3,3.1,1,6.2,1.4,9.3c0.2,1.5,0.2,3,0.1,4.5
			c-0.1,4.3-0.3,8.5-0.4,12.8c0,1.2,0,2.4,0,3.4c-0.4,0.4-0.5,0.6-0.7,0.7c-2.5,1.7-2.7,3.3-1,5.8c0.3,0.4,0.7,0.8,0.7,1.2
			c0.3,2.5,1.9,4.3,3.5,5.9c1.8,1.9,4.1,3.3,6.2,4.7c0.8,0.5,1.9,0.9,2.7,0.8c3.7-0.4,7.6-0.2,11-2.2c2.3-1.3,3.5-4.7,2.7-7.3
			c-0.5-1.4-0.7-2.9-1.1-4.5c2.9-0.8,3.3-2.8,2.9-5.1c-0.3-1.9,0.3-3.4,1.4-4.9c1.9-2.6,3.6-5.3,4.1-8.6c0.1-0.7,0.9-1.6,1.6-1.9
			c3.1-1.3,4.9-3.9,6.1-6.8c1.2-2.7,2.1-5.5,3.1-8.3c0.2-0.6,0.4-1.2,0.6-1.9c1.7,0.5,2.4,1.6,2.3,3.2c-0.1,2.4-0.4,4.8-0.4,7.2
			c0.1,3.8,0.5,7.7,0.7,11.5c0,0.8,0.1,1.8-0.3,2.5c-3.9,7.2-4.9,14.7-2.8,22.6c-4.1,4.7-6.3,10.2-7.6,16.2
			c-0.4,1.9-1.6,3.3-3.1,4.4c-2,1.5-4,2.9-6.2,4.2c-2.2,1.3-2.9,3.2-3,5.6c-0.2,5.1,1.9,9.2,5.3,12.7c3.9,4.1,6.7,8.8,8.6,14.1
			c0.7,1.9,1.1,4,1.7,6c0.5,1.9,1,3.7,1.6,5.5c0.6,1.8,2,2.9,3.8,3.5c4.8,1.7,10.6,7.4,12.3,12c0.7,2.1,2,3.6,4.2,4.3
			c1.1,0.4,2.2,1.1,3.3,1.5c2.6,1.1,5.1,2.3,7.8,3.2c2.6,0.8,4,0,5.5-2.3c1.5-2.3,1.6-4.9,1.2-7.4c-0.6-4-2.4-7.5-4.9-10.6
			c-0.7-0.9-1.8-1.7-2.9-2.1c-2.2-0.8-4.4-1.5-6.7-2c-0.8-0.2-1.9,0.2-2.8,0.5c-0.8,0.3-1.5,0.9-2.4,1.4c-1.4-1.3-2.8-2.6-4.3-4.1
			c0.4-0.7,0.7-1.4,1.1-2.2c-1.9-3.2-3.8-6.2-7.4-7.6c-0.8-0.3-1.5-1.2-2-2c-2-3.9-3.9-7.9-5.8-11.9c-0.5-1.2-0.1-5,0.6-7
			c2.5,1.9,5.4,3.2,7.3,5.8c2.5,3.3,5.1,6.5,7.2,9.9c1.4,2.2,2.3,4.8,3,7.3c0.6,2.2,1.4,4,3.2,5.5c3.8,3.1,8,4.6,12.9,3.3
			c3.4-0.9,6.9-1.1,10.5-0.6c4.5,0.6,8.8-0.5,12.8-2.6c3.5-1.9,4-4.2,1.9-7.6c-2.5-4-6-7.1-9.7-9.9c-0.4-0.3-0.9-0.5-1.3-0.5
			c-3.5,0-6.9,0.4-9.3,3.5c-0.2,0.3-0.4,0.5-0.6,0.7c-2.2,2-2.2,2.1-1.6,5.2c-0.9,0.2-1.8,0.4-2.8,0.6c-1.2-4-4.2-5.7-7.9-6.4
			c-3.3-4.2-6.2-8.7-8.7-13.5c-1-2-0.9-2.5,0.6-5c4.1,0.9,8.4,0.9,12.5,2.5c7.9,3,15.4,6.9,22.7,11.1c2.3,1.4,4.2,3.5,6.3,5.2
			c9.6,7.8,19.8,14.6,31.3,19.2c3,1.2,6.2,2.3,9.4,3.1c3.1,0.8,6.3,1.3,9.7,2c2.8,5.7,7.6,9.8,12.3,13.9c1.1,0.9,2,2.1,2.7,3.3
			c2.9,4.7,5.6,9.6,8.5,14.3c1.5,2.4,3.7,3.9,6.4,5.2c7.6,3.6,15.1,7.4,22.5,11.6c5.7,3.3,11,7.2,16.5,10.8c0.6,0.4,1.2,1.1,1.6,1.7
			c3,4.6,5.9,9.2,8.9,13.7c1.5,2.3,2.3,4.7,2.6,7.4c0.5,4.7,3.6,7.5,7.5,9.9c2.7,1.7,5,4,7.3,6.1c0.4,0.4,0.5,1.3,0.6,2
			c0.4,2.3,1.3,4.2,3.5,5.4c3.6,2,7,4.2,10.6,6.2c1.5,0.8,3.1,1.4,5.1,0.6c2.5-3.7,4.4-7.8,3.6-12.7c-0.3-1.9-1.1-3.7-2.6-5
			c-1.8-1.6-3.6-3.2-5.5-4.7c-1.9-1.4-3.9-1.7-6-0.2c-0.4,0.3-1,0.4-1.8,0.8c-1.5-1.5-3-3-4.3-4.2c-0.1-0.5-0.1-0.6-0.1-0.7
			c0.9-5.3-1.7-8.7-6.2-10.7c-6.9-3-9.6-9.4-12.7-15.4c-0.9-1.7-0.4-4-0.9-5.9c-1-4-2.1-8.1-3.4-12c-0.8-2.7-2.7-4.3-5.5-4.7
			c-2-0.3-4-0.7-5.9-1c-2.4-0.3-4.2-1.3-5.6-3.3c-1.3-2-2.7-4-4.3-5.8c-4.7-5.2-5.4-11.8-7-18.2c1.2-0.8,2.2-0.2,3,0.4
			c2.1,1.6,4.2,3.2,6.2,5c2.9,2.7,5.7,5.6,8.5,8.5c1.5,1.5,3.2,2.6,5.2,3.3c6.3,2.3,11.8,6.2,17.3,10c0.7,0.5,1.1,1.3,1.5,2.1
			c2.3,4.4,5.1,8.5,9.3,11.2c3,1.9,5.1,4.4,6.6,7.4c3.6,7.1,7.4,14,10,21.6c1.1,3.2,3.2,5.9,6.9,6.9c1.3,0.3,2.6,1.3,3.7,2.1
			c1.3,1,2.4,2.4,3.7,3.5c1.9,1.7,3.4,3.6,4.2,6c0.2,0.8,0.8,1.6,1.4,2.1c3.6,3,7.2,6,10.9,8.7c2.5,1.8,3.2,1.6,5.4-0.6
			c3.5-3.6,3.8-7.9,3.1-12.6c-0.8-5.6-4.2-9.3-9-11.7c-1.4-0.7-3.5-0.8-5.1-0.4c-3,0.7-5-0.5-6.8-2.5c-0.8-0.8-1.5-1.6-2.3-2.5
			c1.1-4.2-1-7.1-4-9.6c-0.4-0.4-0.9-0.8-1.3-1c-4.9-2.5-7.1-7.3-9.8-11.6c-2.6-4.1-4.1-8.5-4.4-13.4c-0.2-2.4-0.5-4.8-0.9-7.2
			c-0.3-1.4-0.8-2.8-1.4-4.1c-0.7-1.6-1.9-2.6-3.8-3c-3.8-0.9-7.2-2.7-9.9-5.6c-0.3-0.4-0.6-0.8-1-1c-3.1-1.9-3.6-4.8-3.7-8.2
			c-0.3-11.2-1.3-22.5-3.5-33.5c-1-5.2-2.8-10.2-4.2-15.2c2.2-0.1,5.1,1.9,5.8,4.7c0.7,2.5,1.2,5,1.4,7.5c0.6,6.2,0.8,12.5,1.5,18.7
			c0.9,8.3,3.2,16.2,8.3,23c2.7,3.6,6.5,6.8,10.6,8.7c-4.3-6-7.5-12.5-8.1-20.1c0.8,1.3,1.7,2.7,2.5,4c3.2,4.8,6.9,9,12.3,11.1
			c2.1,0.8,4.3,1.5,6.5,1.7c4.4,0.4,8.9,0.5,13.4,0.5c-8.3-2.6-16.2-5.6-20.7-13.8c2.4,1.4,4.7,3.1,7.2,4.1c5.9,2.4,12,4.6,18,6.8
			c2.8,1,5.6,2,8.4,3.1c4.5,1.8,8.5,4.4,12.1,7.7c-2.3-7.9-7.9-12.5-15.3-15.4c0.1-0.1,0.1-0.3,0.2-0.4c1.6,0.6,3.3,1.1,4.8,1.8
			c5,2.3,9.9,4.9,15,7c13,5.5,26.2,5.8,39.5,0.9c0.4-0.2,0.9-0.4,1.8-0.7C388.1,222.8,384.4,222.6,380.6,222.1z M69.5,152.9
			c-0.1,1.4-0.5,2.8-0.7,4.1c-0.2,1.6-0.7,2.2-2.3,2.8c0.2-0.8,0.8-1.7,0.5-2.3c-1.1-2.8-0.1-5.2,1.4-7.4c0-0.1,0.1-0.1,0.1-0.1
			c0.2,0,0.4,0,0.6,0C69.4,151,69.6,152,69.5,152.9z M252.8,238c0.6,0.1,1.3,0.2,1.7,0.6c1.8,1.6,2.9,3.7,3.1,6
			c-2.2-1.4-4.4-2.8-6.6-4.2c-1.2-0.7-2.2-1.5-2.5-2.8C250,237.8,251.4,237.9,252.8,238z M283.9,229.2c1.5,0.6,2.8,1.2,4.2,1.7
			c1.4,0.5,2.4,1.3,2.6,2.8c0.6,3.1,1.2,6.3,1.7,9.4c0.1,0.5-0.1,1-0.1,1.4c-1.1-2.8-2.8-5-4.6-7.1c-1-1.1-1.8-2.2-2.6-3.4
			C284.3,232.6,283.6,231,283.9,229.2z M127.5,39.1c5.2,0.5,9.5,2.8,13.3,6.2c3.2,2.9,7.2,4.2,11,2.5c8.4-3.7,10.2-3.5,13.8-3.3
			c-0.7,1.5-3.4,6.2-4.8,6.9c-1.4,0.8,6.2-2.4,9.5,0.5c-1.5-0.6-4.2,0.2-5.6,1.4c2.1,2.3,3.8,3.4,4.6,6.4c0.8,3,0.8,4.6,0.5,7.3
			c-0.3,2.6-0.8,4.1,0,6.2c-1.8-0.5-3.6-4.5-5.6-5c2,3.6,1.1,6.3,3,9.7c-2.2-0.8-3-2.5-4.1-4.5c-1.2-2-2.3-4.1-3.5-6
			c-2.6-4-6-7.1-10.7-8.6c-1.8-0.6-3.6-1.4-5.3-2.3c-0.6-0.3-1.3-0.8-1.6-1.3c-2.6-3.9-5.9-7.2-9.4-10.3c-2-1.8-4-3.6-6.2-5.6
			C127,39.1,127.2,39,127.5,39.1z M28.3,32.3c2.4,1.3,4.8,2.4,6,4.9c-0.6,1.1-1,2-1.7,3.2C31.2,37.6,29.7,35,28.3,32.3z M36.7,50.9
			c-2.4,1.1-4.7,1.4-7.2,0.2c2.8-0.1,4.6-1.7,6.2-3.7c1.4-1.8,2.8-3.7,4.4-5.6c-2.4-0.1-3.9,1.6-6,2.9c1.6-4.5,5.2-6.3,8.8-8.7
			c-1.5,0.1-2.4,0.2-3.7,0.3c1.9-1.8,3.7-2.8,6-2.4c0.8,2.3,1.6,4.5,2.4,6.8c-0.5,3.4-5.1,4.7-4.4,8.8c-0.2,0-0.3-0.1-0.5-0.1
			c-0.2-1.3-0.4-2.6-0.7-4.3c-1.7,4-2.4,8.7-7.9,9.1c1.1-1.1,2-2,2.9-2.9C36.9,51.2,36.8,51,36.7,50.9z M36.3,72.8
			c-0.7-1.7-1.2-3-1.7-4.4c-0.2-0.7-0.4-1.5-0.1-2.1c0.9-2.4,1.9-4.7,2.9-7.1c0.1,0,0.1,0.1,0.2,0.1C37.2,63.8,36.8,68.1,36.3,72.8z
			 M72.9,56.1c-0.8-1.1-1.6-2.3-2.6-3.7c4.3-0.3,8.3-0.5,11.5,2.4C78.8,55.2,75.9,55.6,72.9,56.1z M92.9,100.9
			c-3.8-9.7-5.3-19.9-4.7-30.2c0.2-4.4-1.8-7.1-5.1-9.4c-0.6-0.4-1.3-0.8-2.4-1.5c2.3-0.5,3.9,0,5.3,1.1c2.1,1.7,3.5,3.9,4.1,6.6
			c1.2,6,2.4,12,3.8,17.9c1.2,5,2.8,9.9,4.2,14.8c1.1,3.8-0.5,8.4-3.9,10.9C94.8,107.5,94.2,104.2,92.9,100.9z M209.7,219.7
			c0.6,0.4,1.1,0.8,1.6,1.2c3.6,2.7,7.5,5,11.8,6.4c3,1,5.2,3.1,7.3,5.3c0.3,0.3,0.4,1,0.5,1.5C225.1,235.9,211.7,226.9,209.7,219.7
			z M235.3,195.2c-2.7-2.2-4.4-5-5.9-8.1c-1-2.1-2.2-4.1-4.9-5c5.1-5.1,4-11.2,4-17.3c0.6,0.6,1.2,1.3,1.4,2.1
			c0.4,1.5,0.7,3,0.9,4.5c1.1,8.4,1.3,17,5.9,24.6C236.2,195.8,235.7,195.5,235.3,195.2z M267,199.7c0.1,0,0.2,0.1,0.3,0.1
			c0.5,4.5,1.1,8.9,1.6,13.5c-2.3-0.2-4.2-1.5-5.9-2.9c-5.8-4.6-10.4-10.3-14.3-16.5c-1.4-2.1-2.3-4.4-2.5-7c-0.4-5-0.7-9.9-1-14.9
			c-0.3-5.1-0.7-10.1-2.5-14.9c-0.8-2.2-1.9-4.3-4.1-6.3c0.6,7.2,2.7,14.1-1.7,20.8c-0.4-0.9-0.7-1.3-0.9-1.8c-1.3-4-2.5-8-3.8-11.9
			c-0.7-2-0.6-3.8,0.2-5.8c2.3-5.7,1.2-9.9-3.4-14.1c-1.6-1.4-3.3-2.5-5-3.7c-0.4-0.3-0.9-0.4-1.6-0.7c0.5,1.1,0.9,1.9,1.3,2.7
			c4.2,9.3,2.4,18.1-5.1,25c-3.9,3.6-8.6,6-13.7,7.3c-3.3,0.9-6.9,2-10.1,1.6c-11.3-1.2-21.6-5.4-30.2-13.1
			c-2.8-2.5-5.3-5.1-7.3-8.4c1.6-2.3,2.4-4.7,2.3-7.5c-0.1-1.7-0.2-3.4-0.4-5c-0.4-4-1-8-1.4-12c-0.5-5.3,1-10,5.1-13.7
			c2.5-2.2,5.1-4.2,8.2-5.5c0.6-0.3,1.3-0.6,2-1c-2.8-3.9-4.3-8.3-7.7-12.3c-0.6,1.9-1.1,3.3-1.4,4.8c-0.6,2.6-1.1,5.1-3.6,6.8
			c-1,0.7-1.6,2-2.4,3c-0.6,0.7-1.1,1.5-1.9,2.5c-0.7-1.5-1.2-2.7-1.7-3.9c-0.2,0-0.4,0-0.7,0c-0.5,1.8-1,3.5-1.3,5.3
			c-1.8,9-3.6,17.9-5.4,26.9c-0.8,4-1.9,8-4,11.5c-2.8,4.5-7.1,6.7-12,5.9c0-1.8,0-3.7,0-5.8c-1.2,1.3-2.2,2.3-3.1,3.4
			c-4.1,4.9-9,5.5-14.7,3c-4.9-2.2-10.2-3.4-15.6-4.1c-2.5-0.3-5.1-0.4-7.6-0.6c-0.7,2.9-1.4,5.5-2.1,8.2c2.6,4.2,5.2,8.6,7.8,12.9
			c-0.1,0.1-0.2,0.2-0.3,0.2c-1.2-1-2.4-2-3.6-3c-0.1,0.1-0.3,0.3-0.4,0.4c1.3,2.8,3.3,5.1,5.9,6.9c1,0.7,2.3,1.3,3.5,1.5
			c3.8,0.7,3.8,0.7,4.4,4.2c1.1,1.1,3.2,1.4,3.3,3.4c-0.4,1.2-1.3,1.4-2.4,1.3c-1.2-0.2-2.4-0.3-3.6-0.6c-2.7-0.6-4.3-2.2-4.7-5
			c-0.1-1-0.5-2.1-1.2-2.8c-3.4-3.3-5.6-7.4-8-11.4c-1.3-2.2-2.5-4.4-3.7-6.7c-0.8,0.7-1.5,1.4-2.3,2.1c-1.2-0.8-2.3-1.4-3.2-2.2
			c-1.1-0.9-2-2.1-3.3-2.8c-1.4-0.8-2.1-2-2.3-3.5c-0.2-1.7-0.4-3.4-0.2-5c0.5-4.6,3.8-7.4,8.4-7.5c1.1,0,2.3-0.1,3.3-0.4
			c4.6-1.6,9-3.6,13-6.3c2-1.3,3.7-3,5.2-4.9c1.8-2.4,3.8-4.8,6-6.8c2.7-2.5,4.6-2.6,7.9-0.7c1.9,1.1,3.6,2.5,5.4,3.6
			c0.9,0.6,1.9,1.1,3.3,1.9c-1.2-1.8-2.2-3.1-3-4.5c-1.5-3-3.3-5.7-7.1-6.4c-1.1-8.6-1.5-16.8,3.9-24.2c1-1.3,0.7-2.2-0.7-2.9
			c-1.2-0.6-2.6-0.9-3.9-1.3c-1.6-0.5-3.3-0.8-4.9-1.3c-1.6-0.5-2.4-1.5-2.7-3.3c-0.8-5.3-2.3-10.5-4.7-15.4
			c-3.8-7.7-9.1-13.8-17.7-16.2c-0.1,0-0.1-0.2-0.3-0.5c2.5-1.5,4.7-0.1,7.2,0.3c-1-1.3-2-2.5-3.3-3.4c-4.3-2.8-9.1-4-14.2-4
			c-1.7,0-3.5,0.6-5.1,1.2c-1.3,0.5-1.9,1.5-2,3c-0.1,1.7-0.6,3.4-0.9,5c1.4,2.7,3.3,5.4,4.3,8.4c2.8,8.3,1.5,16.5-2.2,24.3
			c-0.5,1-1.2,1.9-2,2.7c-1.5,1.5-3.3,2-5.3,1c-0.9-0.4-1.8-0.8-2.7-1.1c-0.9-0.4-1.9-0.5-2.3,0.5c0.4,2.1,1,4.3,0.7,6.4
			c-0.4,2.6-1.4,5.1-2.2,7.8c-1.9-0.9-1.3-2.9-1.9-4.9c-1.1,2.5-1.2,4.5-0.5,6.6c3,0.4,3.3,0.7,4,3.2c-0.9,0.4-1.8,0.9-2.6,1.3
			c-0.7,1.8-1.3,3.6-1.9,5.3c-0.2,0.6-0.1,1.3-0.2,1.9c-0.3,1.6-0.4,3.3-0.9,4.9c-0.7,2.1-3,3.2-4.9,2.1c-2.1-1.2-4.1-2.8-5.7-4.6
			c-0.8-0.9-0.7-2.5-1.2-4.3c-1.9-1.5-1.9-3.5-0.5-6c0.9-1.5,1.2-3.4,1.8-5.1c-0.1,0-0.3-0.1-0.4-0.1c-0.7,0.6-1.4,1.2-2.1,1.9
			c-0.2-0.4-0.3-0.5-0.3-0.7c0-0.3,0-0.6,0.1-1c1-4.8,2.1-9.6,1.7-14.5c-0.1-0.6,0.1-1.3,0.3-1.9c1-4.7,2.5-9.1,5.6-12.9
			c-0.8-0.2-1.5-0.3-2.4-0.5c0.5-0.8,0.8-1.4,1.2-1.8c1.5-1.4,1.6-3.1,1-4.9c-0.2-0.5-0.3-1.1-0.5-1.6c-1.4-4.7-1.3-5,2.8-7.6
			c0.1-0.1,0.2-0.2,0.3-0.5c-2.4-2.1-2-4.4-0.4-6.8c1.1-1.6,1.6-3.3,0.7-5.2c-0.6-1.3-0.1-2.5,0.7-3.6c1.7,0.9,3.4,1.8,5,2.7
			c2-2.5,0.8-6.1,3.6-8c1.9,2.5,2.5,5.2,2.4,8c-0.1,1.8,0.5,3.1,2.5,4c0.1-1.7,0.4-3.2,0.3-4.7c-0.2-3.3-1.6-6.1-3.2-9
			c-1.3-2.2-2.2-4.7-3.3-7c0.2-0.1,0.4-0.3,0.6-0.4c1.2,1.4,2.4,2.8,3.8,4.5c1.4-0.4,3-0.7,4.5-1.1c5-1.6,9.9-0.8,14.8,0.2
			c0.6,0.1,1.1,0.1,2,0.1c-0.9-2.3-2.4-3.4-4.3-3.6C75.4,28,72.9,28,70.5,28c-1,0-1.9,0.1-2.1-1.5c0.9-0.2,1.7-0.6,2.6-0.7
			c5.8-0.5,11.6-0.6,17.3,0.7c18.9,4.3,34.6,14,47.4,28.3c2.9,3.2,5.9,5.5,9.9,6.9c1.1,0.4,2.3,0.7,3.4,1.3c1.5,0.9,3.2,1.8,4.2,3.1
			c4,5.3,7.9,10.8,11.5,16.3c1.5,2.2,2.4,4.9,3.5,7.4c0.8,1.8,1.3,3.8,2.3,5.5c3.1,5.3,7.1,9.9,11.9,13.8
			c9.7,7.9,20.8,13.3,32.3,17.9c0.7,0.3,1.6,0.3,2.3,0.4c9,0.8,17.4,3.1,24.2,9.4c1.1,1,2.2,1.9,3.2,2.9
			c8.6,8.4,16.5,17.4,20.4,29.1c1.4,4.2,2,8.3,1.2,12.7c-1,5.6-1.3,11.3-1.8,17c-0.1,1,0.1,2.1,0.4,3.1c0.1,0.4,0.6,0.8,1,1.4
			C266.2,201.8,266.6,200.8,267,199.7z M342.3,210.2c-3.3-1.8-6.5-3.9-9.8-5.7c-2.9-1.5-6-2.6-9-3.9c-0.2-0.1-0.5-0.2-0.7-0.2
			c-0.2,0-0.5,0-0.4,0c1.9,1.8,3.7,3.6,5.7,5.4c0.9,0.8,2,1.3,3,1.8c0.6,0.3,1.3,0.4,2,0.6c0,0.2,0,0.4,0,0.6c-2,0-4,0.1-5.9,0
			c-5.3-0.4-9.8-2.8-14-6c-5.1-4-9.4-8.7-13.6-13.6c-0.4-0.5-0.9-0.9-1.5-1.5c-0.6,6.4,1.1,11.5,5.8,15.5c1.2,1,2.3,2,3.5,3
			c0.4,0.4,0.8,0.8,1.5,1.5c-8.5-2.4-14.2-7.3-16.2-15.5c-1.4-5.7-2.3-11.5-3.4-17.2c-0.5-2.8-1.1-5.6-1.7-8.8
			c5.3,4.3,7.3,9.9,8.2,16.1c1.4-4.2,1.4-8.3,0.5-12.5c-0.9-4.2-3.2-7.8-5.5-11.3c2.1,0.5,4,1,5.9,1.6c1.1,0.3,2.1,0.8,3,1.4
			c1,0.6,1.9,1.5,2.8,2.2c0.1-0.1,0.2-0.2,0.3-0.3c-0.5-0.6-0.9-1.3-1.4-1.9c-6.2-7.6-14.2-12.7-23.4-16c-7.2-2.6-14.5-4.6-22.3-2.9
			c-0.9-0.9-0.4-1.7,0.3-2.3c0.7-0.5,1.5-0.9,2.3-1.2c3.9-1.4,7.8-1.6,11.9-1.1c8.3,1,15.7,4.3,22.2,9.3c4.9,3.8,9.6,8.1,14.3,12.2
			c4,3.5,7.6,7.4,13,8.8c-3.1,0.6-6-0.3-8.9-1.1c4.2,4.8,9.9,4.7,15.6,4.8c-3.8,1.5-7.7,2.2-11.8,2c-4.2-0.1-7.8-1.6-11.1-4.2
			c2,6.7,6.2,11.5,12.2,14.7c3.5,1.9,7.3,3.4,10.9,5.1c3.9,1.8,7.7,3.7,11,6.4c1.8,1.5,3.4,3.2,4.6,5.3c-3.7-1.7-6.9-4.3-11.3-4
			c4,1.9,7.2,4.7,10.4,7.7c3.9,3.6,7.7,7.4,13.5,7.7C350.1,213.5,346.1,212.3,342.3,210.2z"/>
	</g>
	<g>
		<path class="st1" d="M107.3,64.5c-1.8,0.6-1.6,2-1.3,3.1c0.5,1.9,1,3.8,2,5.4c1.8,3,3.9,5.9,6,8.7c0.7,0.9,1.9,1.4,3.2,2.4
			c1.1-5.4,3.9-9.3,7.3-13.2C118.1,69.7,112,68.9,107.3,64.5z"/>
		<path class="st1" d="M117.5,84.9l-0.6-0.4c-0.4-0.3-0.9-0.6-1.3-0.9c-0.8-0.5-1.5-1-2-1.7c-1.9-2.5-4.1-5.5-6-8.7
			c-1-1.7-1.5-3.7-2-5.5c-0.2-0.9-0.7-2.9,1.6-3.6l0.3-0.1l0.2,0.2c4.2,3.8,9.5,4.8,15.2,5.9c0.6,0.1,1.2,0.2,1.8,0.3l0.8,0.2
			l-0.6,0.6c-3.1,3.4-6.1,7.4-7.2,13L117.5,84.9z M107.2,65.1c-1.1,0.5-1,1.3-0.7,2.4c0.4,1.7,0.9,3.7,1.9,5.3
			c1.9,3.1,4.1,6.1,6,8.6c0.4,0.5,1,0.9,1.8,1.4c0.2,0.1,0.5,0.3,0.7,0.5c1.2-5.1,3.9-8.8,6.7-12.1c-0.3-0.1-0.6-0.1-0.9-0.2
			C116.9,70,111.5,68.9,107.2,65.1z"/>
	</g>
	<g>
		<path class="st1" d="M136.5,70.5c-2.2,2.1-3.5,4.8-4.5,7.6c-1,2.7-1.9,5.5-2.8,8.2c-0.8,2.4-1.8,4.6-3.7,6.4
			c-0.4,0.4-0.7,1-1.1,1.5c0.1,0.2,0.2,0.4,0.4,0.5c3.2-0.2,6.1-1.5,7.9-4.2c1.6-2.4,2.6-5.1,3.7-7.8c1.1-2.6,1.8-5.3,2.9-7.9
			c0.9-2.3,2.4-4.2,4.7-5.2c1-0.5,2.1-0.7,3.1-1.1C143.7,66.8,139.4,67.7,136.5,70.5z"/>
		<path class="st1" d="M124.5,95.3l-0.7-1.1L124,94c0.1-0.2,0.2-0.3,0.3-0.5c0.2-0.4,0.5-0.8,0.8-1.1c1.9-1.7,2.9-4.1,3.6-6.2
			c0.3-0.9,0.6-1.7,0.9-2.6c0.6-1.9,1.2-3.8,1.9-5.6c1-2.5,2.2-5.4,4.6-7.8c3-3,7.6-3.9,11.1-2.2l1,0.5l-1.1,0.4
			c-0.3,0.1-0.7,0.2-1,0.3c-0.7,0.2-1.4,0.5-2.1,0.8c-2,0.9-3.5,2.6-4.5,5c-0.5,1.3-1,2.7-1.5,4c-0.4,1.3-0.9,2.6-1.4,3.9
			c-0.1,0.4-0.3,0.7-0.4,1.1c-0.9,2.3-1.9,4.7-3.3,6.8c-1.7,2.7-4.6,4.2-8.2,4.5L124.5,95.3z M125,94.2L125,94.2
			c3.2-0.2,5.7-1.6,7.2-4c1.3-2,2.3-4.4,3.2-6.6c0.1-0.4,0.3-0.7,0.4-1.1c0.5-1.2,0.9-2.6,1.4-3.8c0.5-1.4,0.9-2.8,1.5-4.1
			c1.1-2.7,2.8-4.5,5-5.5c0.6-0.3,1.3-0.5,1.9-0.7c-2.9-0.8-6.3,0.1-8.8,2.5l0,0c-2.2,2.2-3.5,5-4.4,7.4c-0.7,1.8-1.3,3.7-1.9,5.6
			c-0.3,0.9-0.6,1.7-0.9,2.6c-0.7,2.2-1.7,4.7-3.9,6.6c-0.3,0.2-0.4,0.5-0.7,0.9C125.1,94.1,125,94.1,125,94.2z"/>
	</g>
	<g>
		<path class="st1" d="M106.1,139.5c3.6,0.3,6.7-0.5,9.6-2.4c1.5-1,2.6-2.4,3-4.2c0.2-0.9,0.9-1.7,1.2-2.6c0.2-0.5,0.1-1.1,0.1-1.7
			c-0.3-0.1-0.6-0.1-0.8-0.2c-0.5,0.7-1.2,1.3-1.6,2c-1.9,2.9-4.7,4.6-8,5.3c-2.4,0.5-4.9,1-7.3,1.5c-1.9,0.5-3.9,1-5.6,2.8
			c0.9-0.1,1.4-0.3,1.9-0.3C101,139.7,103.6,139.3,106.1,139.5z"/>
		<path class="st1" d="M95.2,140.8l1-1.1c1.9-1.9,3.9-2.5,5.9-3c1.5-0.3,3-0.6,4.4-0.9c1-0.2,1.9-0.4,2.9-0.6
			c3.4-0.7,5.9-2.4,7.7-5.1c0.3-0.5,0.7-1,1.1-1.4c0.2-0.2,0.4-0.4,0.5-0.6l0.2-0.2l1.5,0.3l0,0.4c0,0.2,0,0.3,0,0.5
			c0,0.4,0,0.9-0.1,1.3c-0.2,0.4-0.4,0.8-0.6,1.2c-0.2,0.5-0.5,0.9-0.6,1.3c-0.5,1.9-1.5,3.3-3.2,4.5c-3,2-6.2,2.8-9.9,2.5
			c-1.7-0.2-3.6,0-5.3,0.2c-0.7,0.1-1.5,0.1-2.2,0.2c-0.3,0-0.6,0.1-1,0.2c-0.2,0-0.5,0.1-0.8,0.1L95.2,140.8z M119.3,129
			c-0.1,0.1-0.2,0.3-0.4,0.4c-0.4,0.4-0.8,0.9-1.1,1.3c-1.9,2.9-4.7,4.7-8.3,5.5c-1,0.2-2,0.4-2.9,0.6c-1.4,0.3-2.9,0.6-4.4,0.9
			c-1.4,0.3-2.8,0.7-4.1,1.6c0.1,0,0.1,0,0.2,0c0.7,0,1.5-0.1,2.2-0.2c1.8-0.2,3.7-0.3,5.5-0.2c3.5,0.3,6.5-0.5,9.3-2.3
			c1.5-1,2.4-2.3,2.8-3.9c0.1-0.6,0.4-1.1,0.7-1.6c0.2-0.4,0.4-0.7,0.5-1.1c0.1-0.3,0.1-0.6,0.1-1c0,0,0-0.1,0-0.1L119.3,129z"/>
	</g>
	<g>
		<path class="st1" d="M48.5,107.5c-1.8-1.4-2.5-3.2-2.9-5.3c-0.4-2-0.8-3.9-1.2-5.9c0-0.1-0.2-0.2-0.5-0.5
			c-1.3,1.2-1.6,2.8-1.6,4.2c0,1.8,0.1,3.7,0.3,5.5c0.2,1.9,1.1,3.2,2.9,4.3c1.7,1,2.8,2.9,4.1,4.2
			C50.5,112.2,50.2,108.8,48.5,107.5z"/>
		<path class="st1" d="M49.8,114.9l-0.5-0.5c-0.4-0.4-0.8-0.9-1.2-1.4c-0.9-1.1-1.8-2.1-2.9-2.8c-1.9-1.2-2.9-2.6-3.1-4.7
			c-0.2-1.8-0.4-3.7-0.3-5.6c0-1.4,0.3-3.2,1.8-4.6l0.4-0.3l0.3,0.4c0.1,0.1,0.2,0.2,0.2,0.2c0.1,0.1,0.3,0.3,0.4,0.5l0.2,1
			c0.3,1.6,0.7,3.2,1,4.9c0.3,1.8,0.9,3.7,2.7,5h0c1.9,1.4,2.3,5.1,1.3,7.2L49.8,114.9z M43.9,96.5c-1,1.1-1.1,2.4-1.2,3.6
			c0,1.8,0.2,3.7,0.3,5.4c0.2,1.8,1,3,2.7,3.9c1.2,0.7,2.2,1.9,3.1,3c0.2,0.2,0.4,0.5,0.6,0.7c0.4-1.7,0-4.3-1.3-5.3h0
			c-2-1.6-2.7-3.6-3-5.6c-0.3-1.6-0.7-3.3-1-4.8L43.9,96.5z"/>
	</g>
	<g>
		<path class="st1" d="M119.3,140c-0.5,0.5-1.2,0.9-1.5,1.5c-1.7,2.7-4.3,3-7.1,2.8c-2.6-0.2-5.1-0.5-7.6-0.7c-1-0.1-2-0.1-3-0.2
			c0,0.2,0,0.4-0.1,0.7c4.7,2,9.5,3.2,14.6,2.5c1.1-0.1,2.3-1.1,3.1-2c2-2.3,3.8-4.7,6.7-6.1C122.3,138.3,120.7,138.6,119.3,140z"/>
		<path class="st1" d="M111.6,147.3c-3.7,0-7.6-0.9-11.9-2.7l-0.3-0.1l0.1-1.5l0.5,0c0.3,0,0.6,0,0.9,0c0.7,0,1.4,0.1,2.1,0.1
			c1.1,0.1,2.1,0.2,3.2,0.3c1.5,0.1,3,0.3,4.5,0.4c2.5,0.2,5,0,6.7-2.6c0.3-0.4,0.7-0.8,1.1-1.1c0.2-0.2,0.4-0.3,0.5-0.5
			c1.4-1.4,3.1-1.9,5.4-1.7l1.7,0.2l-1.5,0.7c-2.4,1.2-4.1,3.1-5.8,5.1c-0.2,0.3-0.5,0.6-0.7,0.8c-0.4,0.5-1.8,2-3.4,2.2
			C113.6,147.2,112.6,147.3,111.6,147.3z M100.8,144c4.9,2,9.4,2.7,13.6,2.1c1-0.1,2.1-1.1,2.8-1.9c0.2-0.3,0.5-0.6,0.7-0.8
			c1.3-1.6,2.7-3.2,4.5-4.5c-1.1,0.1-2,0.6-2.8,1.4l0,0c-0.2,0.2-0.4,0.4-0.6,0.5c-0.3,0.3-0.7,0.6-0.9,0.9c-2,3.1-4.9,3.3-7.6,3
			c-1.5-0.1-3-0.3-4.5-0.4c-1.1-0.1-2.1-0.2-3.2-0.3C102.2,144.1,101.5,144,100.8,144C100.8,144,100.8,144,100.8,144z"/>
	</g>
	<g>
		<path class="st1" d="M133.8,132.5c0.4-2.4-0.3-4.9-1.7-7c-0.3,3.7-0.2,7.5-2.7,10.7c2,3,4.7,5.5,4.8,9.3c1.5-2.1,1.2-4.3,0.5-6.5
			C133.9,136.8,133.4,134.8,133.8,132.5z"/>
		<path class="st1" d="M133.7,146.9l-0.1-1.4c-0.1-2.8-1.7-4.9-3.3-7.1c-0.5-0.6-1-1.3-1.4-2l-0.2-0.3l0.2-0.3
			c2.1-2.7,2.3-5.8,2.5-9.2c0-0.4,0.1-0.9,0.1-1.3l0.1-1.4l0.8,1.2c1.6,2.4,2.2,4.9,1.8,7.4l0,0c-0.4,2.3,0.2,4.4,0.8,6.3
			c0.7,2.1,1.1,4.5-0.5,6.9L133.7,146.9z M129.9,136.2c0.4,0.6,0.8,1.1,1.2,1.7c1.4,1.8,2.8,3.7,3.3,6c0.6-1.6,0.2-3.3-0.3-4.7
			c-0.6-2-1.2-4.2-0.9-6.7c0.3-1.7,0-3.5-0.9-5.3C132.2,130.2,132,133.4,129.9,136.2z"/>
	</g>
	<g>
		<path class="st1" d="M43.9,112c-1.7-0.5-2.6,0-3.5,2.1c0.9,0.7,1.6,1.2,2.4,1.8c0,0.3,0,0.6-0.1,0.8c-0.5,1-1.1,2.1,0,3
			c1,0.9,3.6,0.9,4.8,0.1c1.2-0.8,1-1.9,0.7-3C47.6,114.5,46.2,112.8,43.9,112z"/>
		<path class="st1" d="M45.1,120.9c-1.1,0-2.2-0.3-2.8-0.8c-1.3-1.2-0.7-2.5-0.2-3.4l0.1-0.2c0,0,0-0.2,0-0.3c0,0,0,0,0-0.1
			l-2.5-1.9l0.2-0.4c0.9-2,1.9-3,4.1-2.3l0,0c2.4,0.7,3.9,2.4,4.6,5.1c0.2,0.9,0.7,2.5-0.9,3.5C47.1,120.6,46.1,120.9,45.1,120.9z
			 M40.9,114l2.3,1.7l0,0.3c0,0.1,0,0.2,0,0.3c0,0.2,0,0.5-0.1,0.7l-0.1,0.2c-0.5,1-0.7,1.6,0,2.3c0.8,0.7,3.2,0.7,4.2,0.1
			c0.8-0.6,0.8-1.3,0.5-2.5c-0.6-2.3-1.9-3.8-4-4.4l0,0C42.5,112.1,41.8,112.2,40.9,114z"/>
	</g>
	<g>
		<path class="st1" d="M83.5,148.6c-0.4,0.7-0.8,1.6-0.8,2.4c0,1.7,0.3,3.5,0.4,5.2c1.4-0.6,1.6-2,1.7-3.5c0.1-1,0.3-2,0.6-3
			c0.4-1.2,0.4-2.3-0.4-3.3C84.5,147.3,83.9,147.9,83.5,148.6z"/>
		<path class="st1" d="M82.7,157l-0.1-0.7c0-0.5-0.1-1-0.2-1.5c-0.1-1.2-0.3-2.5-0.3-3.8c0-1,0.5-2,0.8-2.6l0,0
			c0.3-0.6,0.7-1,1.1-1.5c0.2-0.2,0.3-0.4,0.5-0.6l0.4-0.5l0.4,0.5c0.8,1.1,1,2.3,0.5,3.8c-0.3,0.8-0.5,1.7-0.6,2.9
			c-0.1,1.3-0.3,3.1-2,3.8L82.7,157z M85,147.4c0,0-0.1,0.1-0.1,0.1c-0.4,0.5-0.7,0.9-1,1.4l0,0c-0.5,0.9-0.7,1.6-0.7,2.2
			c0,1.2,0.1,2.5,0.3,3.7c0,0.2,0.1,0.5,0.1,0.7c0.6-0.6,0.7-1.5,0.8-2.6c0.1-1.2,0.3-2.2,0.6-3.1C85.3,148.8,85.3,148.1,85,147.4z"
			/>
	</g>
	<g>
		<path class="st1" d="M52.8,51.3c-1.8,2.1,0.4,3.8,0.6,5.6c-1.4-0.5-2.7-0.9-4.3-1.5c-0.1,1-0.2,1.6-0.2,2c1.9,0.4,3.5,0.8,5.3,1.2
			C55.4,55.7,51.6,54,52.8,51.3z"/>
		<path class="st1" d="M54.5,59.2l-6.2-1.4l0.3-3l4,1.4c-0.1-0.3-0.2-0.6-0.4-0.8c-0.6-1.2-1.3-2.7,0.1-4.3l2-2.3l-1.2,2.8
			c-0.5,1.1,0.1,2,0.7,3.1c0.7,1.2,1.5,2.5,0.7,4.2L54.5,59.2z M49.4,57l4.5,1c0.2-0.6,0.1-1.1-0.1-1.7c0,0.2,0.1,0.3,0.1,0.5
			l0.1,0.7l-4.4-1.5L49.4,57z"/>
	</g>
	<g>
		<path class="st1" d="M126,12.9c0.1,2.2-2,7.5-4.7,8.1c1.2,0.2,6.2,1.2,11.2-0.4c6.3-2,7.9-4,9.6-6.5c2.8,3.1,4,8.7,4,8.7
			s2.7-4.4,2.8-5.9c1.3,2.9,1.8,5.5,1.7,8.2c-0.2,2.4-1.3,4.4-3.4,5.5c-2.1,1-4.3,1.9-6.5,2.3c-4,0.9-8,1-12,1
			c-2.2,0-4.5-0.1-6.7-0.1c-2.9,0-5-0.9-7.9-2.2c-1.4-0.8-5.2-2.4-6.1-2.8c-6.7-3.1-10.2-3.6-17.2-5.6c-1-0.3-1.9-0.6-3.3-1
			c1-0.9,1.5-1.4,2.1-1.9c2.9-2.3,6.3-3.3,9.8-3.6c0.7-0.1,1.5-0.1,2.3-0.1c2.7,0,5.6,0.3,8.2,0.3c0.5,0,1,0,1.4,0
			C119.6,16.3,122.3,15.1,126,12.9 M146.2,2.1l-0.5,11.7c-0.2-0.4-0.3-0.9-0.6-1.3l-2.6-5.1l-3.2,4.8c-1.4,2-2.3,3.5-7.8,5.2
			c-1.2,0.4-2.4,0.6-3.7,0.7c1.1-1.5,1.7-3.4,1.6-5.3L129.3,7l-5,3c-3.2,1.9-5.3,3-13.2,3.4c-0.4,0-0.8,0-1.3,0
			c-1.2,0-2.5-0.1-3.9-0.2c-1.4-0.1-2.9-0.2-4.3-0.2c-0.9,0-1.8,0-2.6,0.1c-4.5,0.4-8.4,1.9-11.6,4.4c-0.5,0.4-0.9,0.8-1.4,1.2
			c-0.3,0.2-0.5,0.5-0.9,0.8l-4.5,4l5.8,1.8c0.5,0.1,0.9,0.3,1.3,0.4c0.8,0.2,1.4,0.5,2.1,0.6c1.6,0.5,3.1,0.9,4.4,1.2
			c4.3,1.1,7.4,2,12.3,4.2c0.2,0.1,0.6,0.3,1.1,0.5c1.3,0.6,3.8,1.7,4.8,2.3l0.1,0.1l0.1,0.1c3.2,1.4,5.8,2.4,9.2,2.5
			c0.6,0,1.1,0,1.7,0c1.7,0,3.4,0.1,5.1,0.1c3.5,0,8.1-0.1,12.7-1.1c2.3-0.5,4.7-1.4,7.3-2.6c3.1-1.5,5.1-4.6,5.3-8.3
			c0.2-3.2-0.4-6.3-1.9-9.7L146.2,2.1L146.2,2.1z"/>
		<path class="st1" d="M128.5,37.7c-1.7,0-3.4,0-5.1-0.1l-1.7,0c-3.5-0.1-6.1-1.1-9.4-2.5l-0.3-0.1c-1-0.5-3.4-1.6-4.8-2.2
			c-0.5-0.2-0.9-0.4-1.1-0.5C101.4,30,98.3,29.2,94,28c-1.3-0.3-2.8-0.7-4.4-1.2c-0.7-0.2-1.4-0.4-2.1-0.7c-0.4-0.1-0.8-0.3-1.3-0.4
			l-6.6-2l5.2-4.5c0.3-0.3,0.6-0.5,0.9-0.8c0.5-0.5,1-0.9,1.5-1.3c3.2-2.5,7.2-4,11.9-4.5c0.8-0.1,1.7-0.1,2.6-0.1
			c1.5,0,2.9,0.1,4.4,0.2c1.4,0.1,2.7,0.2,3.9,0.2c0.4,0,0.9,0,1.2,0c7.8-0.4,9.9-1.5,13-3.4l5.7-3.4l0.2,6.6c0,1.7-0.4,3.3-1.2,4.7
			c1-0.1,1.8-0.3,2.6-0.6c5.3-1.6,6.2-3,7.5-5l3.6-5.5l2.7,5.3L145.8,0l6.6,15.3c1.5,3.6,2.2,6.7,2,10c-0.2,3.9-2.3,7.1-5.6,8.7
			c-2.6,1.3-5.1,2.2-7.4,2.7C136.7,37.6,132.1,37.7,128.5,37.7z M81.5,23.3l4.9,1.5c0.5,0.1,0.9,0.3,1.3,0.4
			c0.8,0.2,1.4,0.5,2.1,0.6c1.6,0.5,3.1,0.8,4.4,1.2c4.3,1.1,7.5,2,12.4,4.3c0.2,0.1,0.6,0.3,1.1,0.5c1.3,0.6,3.8,1.7,4.8,2.3
			l0.2,0.1c3.2,1.4,5.7,2.4,9,2.4l1.7,0c1.6,0,3.3,0.1,5,0.1c3.5,0,8.1-0.1,12.6-1.1c2.3-0.5,4.7-1.4,7.2-2.6c3-1.5,4.8-4.3,5-7.9
			c0.2-3.1-0.4-6.1-1.9-9.5l-5-11.5l-0.6,12l-0.8-2.3c-0.1-0.4-0.3-0.8-0.5-1.2l-2.3-4.4l-2.7,4.1c-1.4,2.1-2.4,3.7-8,5.4
			c-1.1,0.4-2.4,0.6-3.8,0.8l-1.1,0.1l0.6-0.9c1.1-1.5,1.6-3.2,1.5-5l-0.1-5l-4.3,2.6c-3.2,1.9-5.4,3.1-13.4,3.5c-0.4,0-0.8,0-1.3,0
			c-1.3,0-2.6-0.1-3.9-0.2c-1.4-0.1-2.9-0.2-4.3-0.2c-0.9,0-1.8,0-2.5,0.1c-4.4,0.4-8.3,1.8-11.3,4.3c-0.5,0.4-0.9,0.8-1.4,1.2
			c-0.3,0.2-0.5,0.5-0.9,0.8L81.5,23.3z M128.5,34.3c-1.7,0-3.4,0-5-0.1l-1.7,0c-2.9-0.1-5.1-0.9-8.1-2.2c-1.1-0.6-3.6-1.7-5-2.4
			c-0.5-0.2-0.8-0.4-1.1-0.5c-5.1-2.4-8.3-3.2-12.8-4.4c-1.4-0.4-2.8-0.7-4.4-1.2c-0.6-0.2-1.3-0.4-2-0.6c-0.4-0.1-0.8-0.3-1.3-0.4
			l-0.8-0.3l0.6-0.6c0.3-0.3,0.6-0.6,0.9-0.8c0.5-0.4,0.9-0.8,1.3-1.1c2.7-2.1,6.1-3.4,10.1-3.7c0.7-0.1,1.5-0.1,2.3-0.1
			c1.4,0,2.8,0.1,4.2,0.2c1.4,0.1,2.7,0.2,4.1,0.2c0.5,0,1,0,1.4,0c8.1-0.4,10.8-1.5,14.6-3.8l0.7-0.4l0,0.8c0,2-1.4,6.1-3.7,7.9
			c2.1,0.3,5.8,0.6,9.5-0.6c6.4-2,7.8-4,9.3-6.4l0.3-0.5l0.4,0.5c2.1,2.3,3.3,5.9,3.9,7.8c1-1.7,2.1-3.9,2.1-4.7l0.1-2.1l0.8,1.9
			c1.3,3.1,1.9,5.7,1.7,8.4c-0.2,2.7-1.5,4.8-3.7,5.9c-2.3,1.1-4.6,1.9-6.6,2.4C136.3,34.2,131.9,34.3,128.5,34.3z M88.2,21.9
			c0.2,0.1,0.3,0.1,0.5,0.2c0.8,0.2,1.4,0.4,2,0.6c1.6,0.5,3,0.8,4.4,1.2c4.5,1.2,7.8,2,12.9,4.5c0.2,0.1,0.6,0.3,1,0.5
			c1.5,0.7,3.9,1.8,5,2.4c3,1.3,5,2.1,7.7,2.1l1.7,0c1.6,0,3.3,0.1,5,0.1c3.3,0,7.7-0.1,11.9-1c2-0.4,4.1-1.2,6.4-2.3
			c2.4-1.2,3-3.4,3.2-5.1c0.1-2.2-0.2-4.3-1.1-6.7c-0.7,1.8-2.2,4.3-2.4,4.7l-0.6,1l-0.3-1.2c0-0.1-1.1-4.9-3.5-8
			c-1.7,2.5-3.6,4.4-9.5,6.2c-4.6,1.4-9.3,0.7-11,0.5c-0.2,0-0.3,0-0.4-0.1l-2.6-0.3l2.5-0.6c2.1-0.5,3.9-4.4,4.3-6.8
			c-3.2,1.9-6.2,3.1-14.2,3.5c-0.5,0-0.9,0-1.5,0c-1.4,0-2.8-0.1-4.1-0.2c-1.4-0.1-2.8-0.2-4.1-0.2c-0.8,0-1.6,0-2.2,0.1
			c-3.8,0.3-7,1.5-9.6,3.5c-0.4,0.3-0.8,0.6-1.2,1.1C88.4,21.7,88.3,21.8,88.2,21.9z"/>
	</g>
	<g>
		<path class="st1" d="M48.7,86.2c0.4-1.7,0.7-3.4,1.1-5.1c0.6-2.8,1.1-5.5,1.6-8.3c0.2-1.1,0.6-2,1.7-2.5c0.1,0,0.1-0.1,0.2-0.1
			c4.3-2.5,3.6-1.6,3.2-6.4c-0.1-1.5-0.3-3-0.5-4.7c-0.5,0.4-0.9,0.5-1.2,0.8c-1.6,1.8-3.2,3.5-4.8,5.4c-0.4,0.5-0.7,1.2-0.8,1.9
			c-0.4,6.1-0.7,12.1-1.1,18.2c0,0.3,0,0.5,0,0.8C48.5,86.2,48.6,86.2,48.7,86.2z"/>
	</g>
</g>
<polygon class="st2" points="413.9,339 230.9,339 230.9,313.1 220.9,303.1 197.6,326.4 197.6,289 179.2,289 179.2,314.1 
	156.9,294.6 132.7,313.6 132.7,285.6 113.7,270 82.3,293.3 82.3,253.3 59.6,225.5 35.9,254.1 35.9,339 17.6,339 17.6,327.4 
	24.3,327.4 24.3,249.9 59.7,207.3 93.9,249.1 93.9,270.3 114.1,255.3 144.3,280.2 144.3,289.8 157.3,279.6 167.7,288.6 167.7,277.5 
	209.1,277.5 209.1,298.5 220.9,286.7 242.5,308.3 242.5,327.4 413.9,327.4 "/>
</svg>
