<?xml version="1.0" encoding="utf-8"?>
<!-- Generator: Adobe Illustrator 24.3.0, SVG Export Plug-In . SVG Version: 6.00 Build 0)  -->
<svg version="1.1" id="Layer_1" xmlns="http://www.w3.org/2000/svg" xmlns:xlink="http://www.w3.org/1999/xlink" x="0px" y="0px"
	 viewBox="0 0 171.9 38.4" style="enable-background:new 0 0 171.9 38.4;" xml:space="preserve">
<style type="text/css">
	.st0{fill:#FFFFFF;}
</style>
<g>
	<g>
		<path class="st0" d="M40.7,25.1c-0.4-0.1-0.8-0.2-1.1-0.5c0.7,0.1,1.4,0,1.9-0.5c-0.1,0-0.1,0-0.2,0c-0.7,0.3-1.4,0.1-1.9-0.5
			c-0.3-0.3-0.6-0.7-0.9-1c-0.7-0.7-1.6-1.2-2.6-1.5c-0.3-0.1-0.6-0.1-0.9-0.3c0.3,0,0.6,0,0.8,0.1c0.3,0,0.6,0.1,0.9,0.1
			c0.3,0.1,0.6,0.1,0.8,0.2c0.3,0.1,0.5,0.2,0.8,0.3c-0.7-0.6-1.6-0.9-2.5-1.2c0.2,0,0.5-0.1,0.7-0.1c0.2-0.1,0.4-0.1,0.7-0.2
			c-0.2,0-0.5-0.1-0.7-0.1c-1.1-0.2-2-0.7-2.9-1.4c-0.6-0.5-1.2-1-1.8-1.6c-1.3-1.4-3.4-1.6-5-0.8c-0.1,0-0.1,0.1-0.2,0.1
			c0,0-0.1,0-0.1,0c-0.7-0.8-1.7-1.3-2.7-1.4c-1.2-0.2-2.2-0.7-3.1-1.4c-0.8-0.5-1.4-1.2-1.9-2c0-0.1-0.1-0.2-0.1-0.3
			c-0.2-0.6-0.4-1.1-0.6-1.7c0,0,0,0,0-0.1c0.4,0.3,0.4,0.3,0.6,0.3c-0.1-0.1-0.1-0.1-0.2-0.2c0-0.1-0.1-0.2-0.1-0.3
			c0.3,0.2,0.6,0.2,1,0.1c-0.1,0-0.1,0-0.2-0.1c-0.5-0.1-0.7-0.3-0.7-0.8c0-0.1,0-0.2,0-0.3c0-0.4-0.1-0.5-0.4-0.9
			C18.8,7.3,18.8,7.3,19,7c-0.2,0.1-0.4-0.1-0.6-0.2c-0.1-0.1-0.2-0.1-0.4-0.2c0.1-0.1,0.2-0.2,0.4-0.2c0.2,0,0.3,0,0.5-0.1
			c0.2,0,0.3-0.1,0.4-0.2c-0.5,0-0.9-0.1-1.4-0.2c-0.4-0.1-0.9,0-1.3,0.1c-0.3,0.1-0.5,0.1-0.8,0.2c-0.1,0-0.3-0.1-0.5-0.2
			c-1.2-0.9-2.4-0.6-2.4-0.6c0,0,0,0-0.1,0c-0.2-0.1-0.4-0.3-0.7-0.4c-0.9-0.5-1.9-0.8-2.9-1c-0.2,0-1.3-0.4-2.1-0.2
			C7.2,3.7,7.1,3.8,7,3.8C6.7,3.9,6.4,4,6,4.1c0,0-0.1-0.1-0.2-0.2C5.8,3.9,5.7,3.8,5.6,3.7c-0.2-0.1-0.3,0-0.3,0.1c0,0,0,0.1,0,0.1
			c0,0.3-0.1,0.6-0.1,0.8C4.7,4.8,4.4,5,4.2,5.3C3.9,5.2,3.7,5,3.5,4.8C3.3,4.6,3.1,4.4,2.9,4.1c-0.1,0-0.2,0.1-0.2,0.2
			C2.8,4.9,2.7,5.5,3,6c0.1,0.2,0.3,0.3,0.4,0.5c-0.1,0-0.2,0-0.3,0C2.9,6.5,2.7,6.4,2.5,6.3C2.3,6.2,2.1,6.1,1.8,6.1
			C2,6.3,2.2,6.4,2.4,6.5c0,0,0,0,0,0.1c-0.1,0-0.3-0.1-0.4-0.1c0,0,0,0,0,0C2,6.5,2.1,6.6,2.2,6.7C2.3,6.8,2.4,6.9,2.5,7
			c0.1,0.1,0.2,0.2,0.3,0.3c0.1,0,0.1,0.1,0.2,0.1c-0.1,0-0.2,0-0.3,0.1c0.3,0.2,0.7,0.2,1,0c0,0.1,0,0.2,0,0.3
			C3.3,8,3.3,8.4,3.1,8.8c0.2,0.4,0.5,0.7,0.5,1.1c0,0.3,0.1,0.7,0.1,1c0,0.2,0,0.3,0,0.5c0,0.5,0,0.9,0,1.4c0,0.1,0,0.3,0,0.4
			c0,0-0.1,0.1-0.1,0.1c-0.3,0.2-0.3,0.3-0.1,0.6c0,0,0.1,0.1,0.1,0.1c0,0.3,0.2,0.5,0.4,0.6c0.2,0.2,0.4,0.3,0.7,0.5
			c0.1,0.1,0.2,0.1,0.3,0.1c0.4,0,0.8,0,1.2-0.2c0.2-0.1,0.4-0.5,0.3-0.8c0-0.2-0.1-0.3-0.1-0.5c0.3-0.1,0.3-0.3,0.3-0.5
			c0-0.2,0-0.4,0.1-0.5C7,12.3,7.1,12,7.2,11.7c0-0.1,0.1-0.2,0.2-0.2C7.7,11.3,7.9,11,8,10.7c0.1-0.3,0.2-0.6,0.3-0.9
			c0-0.1,0-0.1,0.1-0.2C8.6,9.7,8.7,9.8,8.6,10c0,0.3,0,0.5,0,0.8c0,0.4,0.1,0.8,0.1,1.2c0,0.1,0,0.2,0,0.3
			c-0.4,0.8-0.5,1.6-0.3,2.4c-0.4,0.5-0.7,1.1-0.8,1.7c0,0.2-0.2,0.4-0.3,0.5C7,17,6.8,17.2,6.6,17.3c-0.2,0.1-0.3,0.3-0.3,0.6
			c0,0.5,0.2,1,0.6,1.4c0.4,0.4,0.7,0.9,0.9,1.5c0.1,0.2,0.1,0.4,0.2,0.6C8,21.6,8,21.8,8.1,21.9c0.1,0.2,0.2,0.3,0.4,0.4
			c0.5,0.2,1.1,0.8,1.3,1.3c0.1,0.2,0.2,0.4,0.4,0.5c0.1,0,0.2,0.1,0.3,0.2c0.3,0.1,0.5,0.2,0.8,0.3c0.3,0.1,0.4,0,0.6-0.2
			c0.2-0.2,0.2-0.5,0.1-0.8c-0.1-0.4-0.2-0.8-0.5-1.1c-0.1-0.1-0.2-0.2-0.3-0.2c-0.2-0.1-0.5-0.2-0.7-0.2c-0.1,0-0.2,0-0.3,0.1
			c-0.1,0-0.2,0.1-0.3,0.1c-0.1-0.1-0.3-0.3-0.5-0.4c0-0.1,0.1-0.2,0.1-0.2c-0.2-0.3-0.4-0.7-0.8-0.8c-0.1,0-0.2-0.1-0.2-0.2
			c-0.2-0.4-0.4-0.8-0.6-1.3c-0.1-0.1,0-0.5,0.1-0.7c0.3,0.2,0.6,0.3,0.8,0.6c0.3,0.3,0.5,0.7,0.8,1.1c0.1,0.2,0.2,0.5,0.3,0.8
			c0.1,0.2,0.2,0.4,0.3,0.6c0.4,0.3,0.8,0.5,1.4,0.4c0.4-0.1,0.7-0.1,1.1-0.1c0.5,0.1,0.9,0,1.4-0.3c0.4-0.2,0.4-0.4,0.2-0.8
			c-0.3-0.4-0.6-0.7-1-1.1c0,0-0.1-0.1-0.1-0.1c-0.4,0-0.7,0-1,0.4c0,0,0,0.1-0.1,0.1c-0.2,0.2-0.2,0.2-0.2,0.5
			c-0.1,0-0.2,0-0.3,0.1c-0.1-0.4-0.4-0.6-0.8-0.7c-0.4-0.4-0.7-0.9-0.9-1.4C9.8,18.3,9.8,18.3,10,18c0.4,0.1,0.9,0.1,1.3,0.3
			c0.8,0.3,1.6,0.7,2.4,1.2c0.2,0.1,0.4,0.4,0.7,0.6c1,0.8,2.1,1.5,3.3,2c0.3,0.1,0.7,0.2,1,0.3c0.3,0.1,0.7,0.1,1,0.2
			c0.3,0.6,0.8,1,1.3,1.5c0.1,0.1,0.2,0.2,0.3,0.3c0.3,0.5,0.6,1,0.9,1.5c0.2,0.3,0.4,0.4,0.7,0.5c0.8,0.4,1.6,0.8,2.4,1.2
			c0.6,0.3,1.2,0.8,1.8,1.1c0.1,0,0.1,0.1,0.2,0.2c0.3,0.5,0.6,1,0.9,1.5c0.2,0.2,0.2,0.5,0.3,0.8c0.1,0.5,0.4,0.8,0.8,1.1
			c0.3,0.2,0.5,0.4,0.8,0.7c0,0,0.1,0.1,0.1,0.2c0,0.2,0.1,0.4,0.4,0.6c0.4,0.2,0.7,0.4,1.1,0.7c0.2,0.1,0.3,0.1,0.5,0.1
			c0.3-0.4,0.5-0.8,0.4-1.3c0-0.2-0.1-0.4-0.3-0.5c-0.2-0.2-0.4-0.3-0.6-0.5c-0.2-0.2-0.4-0.2-0.6,0c0,0-0.1,0-0.2,0.1
			c-0.2-0.2-0.3-0.3-0.5-0.4c0-0.1,0-0.1,0-0.1c0.1-0.6-0.2-0.9-0.7-1.1c-0.7-0.3-1-1-1.3-1.6c-0.1-0.2,0-0.4-0.1-0.6
			c-0.1-0.4-0.2-0.9-0.4-1.3c-0.1-0.3-0.3-0.5-0.6-0.5c-0.2,0-0.4-0.1-0.6-0.1c-0.3,0-0.4-0.1-0.6-0.4c-0.1-0.2-0.3-0.4-0.5-0.6
			c-0.5-0.5-0.6-1.3-0.7-1.9c0.1-0.1,0.2,0,0.3,0c0.2,0.2,0.5,0.3,0.7,0.5c0.3,0.3,0.6,0.6,0.9,0.9c0.2,0.2,0.3,0.3,0.6,0.4
			c0.7,0.2,1.2,0.7,1.8,1.1c0.1,0,0.1,0.1,0.2,0.2c0.2,0.5,0.5,0.9,1,1.2c0.3,0.2,0.5,0.5,0.7,0.8c0.4,0.7,0.8,1.5,1.1,2.3
			c0.1,0.3,0.3,0.6,0.7,0.7c0.1,0,0.3,0.1,0.4,0.2c0.1,0.1,0.3,0.3,0.4,0.4c0.2,0.2,0.4,0.4,0.4,0.6c0,0.1,0.1,0.2,0.2,0.2
			c0.4,0.3,0.8,0.6,1.2,0.9c0.3,0.2,0.3,0.2,0.6-0.1c0.4-0.4,0.4-0.8,0.3-1.3c-0.1-0.6-0.4-1-1-1.2c-0.2-0.1-0.4-0.1-0.5,0
			c-0.3,0.1-0.5,0-0.7-0.3c-0.1-0.1-0.2-0.2-0.2-0.3c0.1-0.4-0.1-0.8-0.4-1c0,0-0.1-0.1-0.1-0.1c-0.5-0.3-0.8-0.8-1-1.2
			c-0.3-0.4-0.4-0.9-0.5-1.4c0-0.3-0.1-0.5-0.1-0.8c0-0.1-0.1-0.3-0.1-0.4c-0.1-0.2-0.2-0.3-0.4-0.3c-0.4-0.1-0.8-0.3-1.1-0.6
			c0,0-0.1-0.1-0.1-0.1c-0.3-0.2-0.4-0.5-0.4-0.9c0-1.2-0.1-2.4-0.4-3.6c-0.1-0.5-0.3-1.1-0.5-1.6c0.2,0,0.5,0.2,0.6,0.5
			c0.1,0.3,0.1,0.5,0.1,0.8c0.1,0.7,0.1,1.3,0.2,2c0.1,0.9,0.3,1.7,0.9,2.4c0.3,0.4,0.7,0.7,1.1,0.9c-0.5-0.6-0.8-1.3-0.9-2.1
			c0.1,0.1,0.2,0.3,0.3,0.4c0.3,0.5,0.7,1,1.3,1.2c0.2,0.1,0.5,0.2,0.7,0.2c0.5,0,0.9,0.1,1.4,0c-0.9-0.3-1.7-0.6-2.2-1.5
			c0.3,0.1,0.5,0.3,0.8,0.4c0.6,0.3,1.3,0.5,1.9,0.7c0.3,0.1,0.6,0.2,0.9,0.3c0.5,0.2,0.9,0.5,1.3,0.8c-0.2-0.8-0.8-1.3-1.6-1.6
			c0,0,0,0,0,0c0.2,0.1,0.3,0.1,0.5,0.2c0.5,0.2,1.1,0.5,1.6,0.7c1.4,0.6,2.8,0.6,4.2,0.1c0,0,0.1,0,0.2-0.1
			C41.5,25.2,41.1,25.2,40.7,25.1z M7.7,17.8c0,0.1-0.1,0.3-0.1,0.4c0,0.2-0.1,0.2-0.2,0.3c0-0.1,0.1-0.2,0.1-0.2
			c-0.1-0.3,0-0.5,0.2-0.8c0,0,0,0,0,0c0,0,0,0,0.1,0C7.7,17.6,7.7,17.7,7.7,17.8z M27.1,26.8c0.1,0,0.1,0,0.2,0.1
			c0.2,0.2,0.3,0.4,0.3,0.6c-0.2-0.1-0.5-0.3-0.7-0.4c-0.1-0.1-0.2-0.2-0.3-0.3C26.8,26.8,27,26.8,27.1,26.8z M30.4,25.9
			c0.2,0.1,0.3,0.1,0.4,0.2c0.1,0.1,0.3,0.1,0.3,0.3c0.1,0.3,0.1,0.7,0.2,1c0,0,0,0.1,0,0.2c-0.1-0.3-0.3-0.5-0.5-0.7
			c-0.1-0.1-0.2-0.2-0.3-0.4C30.5,26.2,30.4,26.1,30.4,25.9z M13.8,5.7c0.5,0.1,1,0.3,1.4,0.7c0.3,0.3,0.8,0.4,1.2,0.3
			c0.9-0.4,1.1-0.4,1.5-0.4c-0.1,0.2-0.4,0.7-0.5,0.7c-0.1,0.1,0.7-0.3,1,0.1c-0.2-0.1-0.4,0-0.6,0.2c0.2,0.2,0.4,0.4,0.5,0.7
			c0.1,0.3,0.1,0.5,0.1,0.8c0,0.3-0.1,0.4,0,0.7c-0.2-0.1-0.4-0.5-0.6-0.5c0.2,0.4,0.1,0.7,0.3,1c-0.2-0.1-0.3-0.3-0.4-0.5
			c-0.1-0.2-0.2-0.4-0.4-0.6c-0.3-0.4-0.6-0.8-1.1-0.9c-0.2-0.1-0.4-0.2-0.6-0.2c-0.1,0-0.1-0.1-0.2-0.1c-0.3-0.4-0.6-0.8-1-1.1
			c-0.2-0.2-0.4-0.4-0.7-0.6C13.8,5.7,13.8,5.7,13.8,5.7z M3.3,5C3.6,5.1,3.8,5.2,4,5.5C3.9,5.6,3.9,5.7,3.8,5.8
			C3.6,5.5,3.5,5.3,3.3,5z M4.2,7C4,7.1,3.7,7.1,3.4,7c0.3,0,0.5-0.2,0.7-0.4C4.3,6.4,4.4,6.2,4.6,6C4.3,6,4.2,6.2,3.9,6.3
			c0.2-0.5,0.6-0.7,0.9-0.9c-0.2,0-0.3,0-0.4,0c0.2-0.2,0.4-0.3,0.6-0.3c0.1,0.2,0.2,0.5,0.3,0.7C5.3,6.2,4.8,6.4,4.9,6.8
			c0,0,0,0-0.1,0c0-0.1,0-0.3-0.1-0.5c-0.2,0.4-0.3,0.9-0.8,1C4,7.2,4.1,7.1,4.2,7C4.2,7,4.2,7,4.2,7z M4.2,9.3C4.1,9.1,4,9,4,8.8
			c0-0.1,0-0.2,0-0.2c0.1-0.3,0.2-0.5,0.3-0.7c0,0,0,0,0,0C4.3,8.3,4.2,8.8,4.2,9.3z M8.1,7.5C8,7.4,7.9,7.3,7.8,7.1
			c0.5,0,0.9,0,1.2,0.3C8.7,7.4,8.4,7.5,8.1,7.5z M10.2,12.3c-0.4-1-0.6-2.1-0.5-3.2c0-0.5-0.2-0.8-0.5-1C9.1,8,9,8,8.9,7.9
			c0.2-0.1,0.4,0,0.6,0.1c0.2,0.2,0.4,0.4,0.4,0.7c0.1,0.6,0.3,1.3,0.4,1.9c0.1,0.5,0.3,1,0.4,1.6c0.1,0.4-0.1,0.9-0.4,1.2
			C10.4,13,10.3,12.6,10.2,12.3z M22.6,24.9c0.1,0,0.1,0.1,0.2,0.1c0.4,0.3,0.8,0.5,1.2,0.7c0.3,0.1,0.5,0.3,0.8,0.6
			c0,0,0,0.1,0.1,0.2C24.2,26.6,22.8,25.6,22.6,24.9z M25.3,22.3c-0.3-0.2-0.5-0.5-0.6-0.9c-0.1-0.2-0.2-0.4-0.5-0.5
			c0.5-0.5,0.4-1.2,0.4-1.8c0.1,0.1,0.1,0.1,0.2,0.2c0,0.2,0.1,0.3,0.1,0.5c0.1,0.9,0.1,1.8,0.6,2.6C25.4,22.3,25.3,22.3,25.3,22.3z
			 M28.6,22.7C28.7,22.7,28.7,22.8,28.6,22.7c0.1,0.5,0.1,1,0.2,1.4c-0.2,0-0.4-0.2-0.6-0.3c-0.6-0.5-1.1-1.1-1.5-1.8
			c-0.1-0.2-0.2-0.5-0.3-0.7c0-0.5-0.1-1.1-0.1-1.6c0-0.5-0.1-1.1-0.3-1.6c-0.1-0.2-0.2-0.5-0.4-0.7c0.1,0.8,0.3,1.5-0.2,2.2
			c0-0.1-0.1-0.1-0.1-0.2c-0.1-0.4-0.3-0.8-0.4-1.3c-0.1-0.2-0.1-0.4,0-0.6c0.2-0.6,0.1-1.1-0.4-1.5c-0.2-0.1-0.4-0.3-0.5-0.4
			c0,0-0.1,0-0.2-0.1c0.1,0.1,0.1,0.2,0.1,0.3c0.4,1,0.3,1.9-0.5,2.6c-0.4,0.4-0.9,0.6-1.5,0.8c-0.4,0.1-0.7,0.2-1.1,0.2
			c-1.2-0.1-2.3-0.6-3.2-1.4c-0.3-0.3-0.6-0.5-0.8-0.9c0.2-0.2,0.3-0.5,0.2-0.8c0-0.2,0-0.4,0-0.5c0-0.4-0.1-0.8-0.1-1.3
			c-0.1-0.6,0.1-1.1,0.5-1.4c0.3-0.2,0.5-0.4,0.9-0.6c0.1,0,0.1-0.1,0.2-0.1c-0.3-0.4-0.5-0.9-0.8-1.3c-0.1,0.2-0.1,0.4-0.2,0.5
			c-0.1,0.3-0.1,0.5-0.4,0.7c-0.1,0.1-0.2,0.2-0.3,0.3C17,12.9,17,13,16.9,13.1c-0.1-0.2-0.1-0.3-0.2-0.4c0,0,0,0-0.1,0
			c0,0.2-0.1,0.4-0.1,0.6c-0.2,1-0.4,1.9-0.6,2.9c-0.1,0.4-0.2,0.8-0.4,1.2c-0.3,0.5-0.7,0.7-1.3,0.6c0-0.2,0-0.4,0-0.6
			c-0.1,0.1-0.2,0.2-0.3,0.4c-0.4,0.5-1,0.6-1.6,0.3c-0.5-0.2-1.1-0.4-1.7-0.4c-0.3,0-0.5,0-0.8-0.1c-0.1,0.3-0.1,0.6-0.2,0.9
			c0.3,0.5,0.6,0.9,0.8,1.4c0,0,0,0,0,0c-0.1-0.1-0.3-0.2-0.4-0.3c0,0,0,0,0,0c0.1,0.3,0.4,0.5,0.6,0.7c0.1,0.1,0.2,0.1,0.4,0.2
			c0.4,0.1,0.4,0.1,0.5,0.4c0.1,0.1,0.3,0.1,0.4,0.4c0,0.1-0.1,0.2-0.3,0.1c-0.1,0-0.3,0-0.4-0.1c-0.3-0.1-0.5-0.2-0.5-0.5
			c0-0.1-0.1-0.2-0.1-0.3c-0.4-0.4-0.6-0.8-0.8-1.2c-0.1-0.2-0.3-0.5-0.4-0.7c-0.1,0.1-0.2,0.1-0.2,0.2c-0.1-0.1-0.2-0.2-0.3-0.2
			c-0.1-0.1-0.2-0.2-0.3-0.3c-0.1-0.1-0.2-0.2-0.2-0.4c0-0.2,0-0.4,0-0.5c0.1-0.5,0.4-0.8,0.9-0.8c0.1,0,0.2,0,0.4,0
			c0.5-0.2,0.9-0.4,1.4-0.7c0.2-0.1,0.4-0.3,0.6-0.5c0.2-0.3,0.4-0.5,0.6-0.7c0.3-0.3,0.5-0.3,0.8-0.1c0.2,0.1,0.4,0.3,0.6,0.4
			c0.1,0.1,0.2,0.1,0.4,0.2c-0.1-0.2-0.2-0.3-0.3-0.5C13.2,14.3,13,14,12.6,14c-0.1-0.9-0.2-1.8,0.4-2.6c0.1-0.1,0.1-0.2-0.1-0.3
			c-0.1-0.1-0.3-0.1-0.4-0.1c-0.2-0.1-0.3-0.1-0.5-0.1c-0.2-0.1-0.3-0.2-0.3-0.3c-0.1-0.6-0.2-1.1-0.5-1.6c-0.4-0.8-1-1.5-1.9-1.7
			c0,0,0,0,0,0c0.3-0.2,0.5,0,0.8,0C10,7,9.9,6.8,9.8,6.7c-0.5-0.3-1-0.4-1.5-0.4c-0.2,0-0.4,0.1-0.5,0.1c-0.1,0-0.2,0.2-0.2,0.3
			c0,0.2-0.1,0.4-0.1,0.5c0.1,0.3,0.3,0.6,0.5,0.9C8.2,9.1,8,9.9,7.6,10.8c0,0.1-0.1,0.2-0.2,0.3c-0.2,0.2-0.3,0.2-0.6,0.1
			c-0.1,0-0.2-0.1-0.3-0.1c-0.1,0-0.2,0-0.2,0.1c0,0.2,0.1,0.5,0.1,0.7c0,0.3-0.1,0.5-0.2,0.8C6,12.5,6.1,12.3,6,12.1
			c-0.1,0.3-0.1,0.5-0.1,0.7c0.3,0,0.4,0.1,0.4,0.3c-0.1,0-0.2,0.1-0.3,0.1c-0.1,0.2-0.1,0.4-0.2,0.6c0,0.1,0,0.1,0,0.2
			c0,0.2,0,0.4-0.1,0.5c-0.1,0.2-0.3,0.3-0.5,0.2c-0.2-0.1-0.4-0.3-0.6-0.5c-0.1-0.1-0.1-0.3-0.1-0.5c-0.2-0.2-0.2-0.4-0.1-0.6
			c0.1-0.2,0.1-0.4,0.2-0.5c0,0,0,0,0,0c-0.1,0.1-0.1,0.1-0.2,0.2c0,0,0-0.1,0-0.1c0,0,0-0.1,0-0.1c0.1-0.5,0.2-1,0.2-1.5
			c0-0.1,0-0.1,0-0.2c0.1-0.5,0.3-1,0.6-1.4c-0.1,0-0.2,0-0.3,0C5,9.4,5,9.3,5,9.3c0.2-0.1,0.2-0.3,0.1-0.5c0-0.1,0-0.1-0.1-0.2
			C4.9,8.1,4.9,8,5.4,7.8c0,0,0,0,0-0.1C5.2,7.5,5.2,7.3,5.4,7c0.1-0.2,0.2-0.4,0.1-0.6c-0.1-0.1,0-0.3,0.1-0.4
			c0.2,0.1,0.4,0.2,0.5,0.3c0.2-0.3,0.1-0.6,0.4-0.8c0.2,0.3,0.3,0.5,0.2,0.9c0,0.2,0.1,0.3,0.3,0.4c0-0.2,0-0.3,0-0.5
			c0-0.3-0.2-0.7-0.3-1C6.5,5.1,6.4,4.8,6.3,4.6c0,0,0,0,0.1,0C6.5,4.7,6.6,4.8,6.8,5C6.9,5,7.1,5,7.2,4.9c0.5-0.2,1-0.1,1.6,0
			c0.1,0,0.1,0,0.2,0C8.9,4.7,8.8,4.6,8.6,4.6c-0.3,0-0.5,0-0.8,0c-0.1,0-0.2,0-0.2-0.2c0.1,0,0.2-0.1,0.3-0.1
			c0.6-0.1,1.2-0.1,1.8,0.1c2,0.5,3.7,1.5,5,3c0.3,0.3,0.6,0.6,1,0.7c0.1,0,0.2,0.1,0.4,0.1c0.2,0.1,0.3,0.2,0.4,0.3
			c0.4,0.6,0.8,1.1,1.2,1.7c0.2,0.2,0.3,0.5,0.4,0.8c0.1,0.2,0.1,0.4,0.2,0.6c0.3,0.6,0.8,1.1,1.3,1.5c1,0.8,2.2,1.4,3.4,1.9
			c0.1,0,0.2,0,0.2,0c1,0.1,1.8,0.3,2.6,1c0.1,0.1,0.2,0.2,0.3,0.3c0.9,0.9,1.8,1.8,2.2,3.1c0.1,0.4,0.2,0.9,0.1,1.4
			c-0.1,0.6-0.1,1.2-0.2,1.8c0,0.1,0,0.2,0,0.3c0,0,0.1,0.1,0.1,0.1C28.6,23,28.6,22.9,28.6,22.7z M36.6,23.9
			c-0.4-0.2-0.7-0.4-1-0.6c-0.3-0.2-0.6-0.3-1-0.4c0,0,0,0-0.1,0c0,0,0,0,0,0c0.2,0.2,0.4,0.4,0.6,0.6c0.1,0.1,0.2,0.1,0.3,0.2
			c0.1,0,0.1,0,0.2,0.1c0,0,0,0,0,0.1c-0.2,0-0.4,0-0.6,0c-0.6,0-1-0.3-1.5-0.6c-0.5-0.4-1-0.9-1.4-1.4c0-0.1-0.1-0.1-0.2-0.2
			c-0.1,0.7,0.1,1.2,0.6,1.6c0.1,0.1,0.2,0.2,0.4,0.3c0,0,0.1,0.1,0.2,0.2c-0.9-0.3-1.5-0.8-1.7-1.6c-0.2-0.6-0.2-1.2-0.4-1.8
			c-0.1-0.3-0.1-0.6-0.2-0.9c0.6,0.5,0.8,1.1,0.9,1.7c0.1-0.4,0.1-0.9,0.1-1.3c-0.1-0.4-0.3-0.8-0.6-1.2c0.2,0.1,0.4,0.1,0.6,0.2
			c0.1,0,0.2,0.1,0.3,0.1c0.1,0.1,0.2,0.2,0.3,0.2c0,0,0,0,0,0c-0.1-0.1-0.1-0.1-0.2-0.2c-0.7-0.8-1.5-1.4-2.5-1.7
			c-0.8-0.3-1.5-0.5-2.4-0.3c-0.1-0.1,0-0.2,0-0.2c0.1-0.1,0.2-0.1,0.2-0.1c0.4-0.1,0.8-0.2,1.3-0.1c0.9,0.1,1.7,0.5,2.4,1
			c0.5,0.4,1,0.9,1.5,1.3c0.4,0.4,0.8,0.8,1.4,0.9c-0.3,0.1-0.6,0-0.9-0.1c0.4,0.5,1.1,0.5,1.7,0.5C34.5,20,34.1,20,33.7,20
			c-0.4,0-0.8-0.2-1.2-0.5c0.2,0.7,0.7,1.2,1.3,1.6c0.4,0.2,0.8,0.4,1.2,0.5c0.4,0.2,0.8,0.4,1.2,0.7c0.2,0.2,0.4,0.3,0.5,0.6
			c-0.4-0.2-0.7-0.5-1.2-0.4c0.4,0.2,0.8,0.5,1.1,0.8c0.4,0.4,0.8,0.8,1.4,0.8C37.5,24.2,37,24.1,36.6,23.9z"/>
	</g>
	<g>
		<path class="st0" d="M11.7,8.4c-0.2,0.1-0.2,0.2-0.1,0.3c0.1,0.2,0.1,0.4,0.2,0.6c0.2,0.3,0.4,0.6,0.6,0.9
			c0.1,0.1,0.2,0.2,0.3,0.3c0.1-0.6,0.4-1,0.8-1.4C12.9,8.9,12.2,8.9,11.7,8.4z"/>
		<path class="st0" d="M12.8,10.6L12.8,10.6c-0.1-0.1-0.2-0.1-0.2-0.1c-0.1-0.1-0.2-0.1-0.2-0.2c-0.2-0.3-0.4-0.6-0.6-0.9
			c-0.1-0.2-0.2-0.4-0.2-0.6c0-0.1-0.1-0.3,0.2-0.4l0,0l0,0c0.4,0.4,1,0.5,1.6,0.6c0.1,0,0.1,0,0.2,0l0.1,0l-0.1,0.1
			C13.2,9.5,12.9,9.9,12.8,10.6L12.8,10.6z M11.7,8.5c-0.1,0.1-0.1,0.1-0.1,0.3c0,0.2,0.1,0.4,0.2,0.6c0.2,0.3,0.4,0.7,0.6,0.9
			c0,0.1,0.1,0.1,0.2,0.2c0,0,0,0,0.1,0c0.1-0.5,0.4-0.9,0.7-1.3c0,0-0.1,0-0.1,0C12.7,9,12.2,8.9,11.7,8.5z"/>
	</g>
	<g>
		<path class="st0" d="M14.8,9c-0.2,0.2-0.4,0.5-0.5,0.8c-0.1,0.3-0.2,0.6-0.3,0.9c-0.1,0.3-0.2,0.5-0.4,0.7c0,0-0.1,0.1-0.1,0.2
			c0,0,0,0,0,0.1c0.3,0,0.6-0.2,0.8-0.4c0.2-0.3,0.3-0.5,0.4-0.8c0.1-0.3,0.2-0.6,0.3-0.8c0.1-0.2,0.3-0.4,0.5-0.6
			c0.1,0,0.2-0.1,0.3-0.1C15.6,8.6,15.1,8.7,14.8,9z"/>
		<path class="st0" d="M13.5,11.7l-0.1-0.1l0,0c0,0,0,0,0-0.1c0,0,0.1-0.1,0.1-0.1c0.2-0.2,0.3-0.4,0.4-0.7c0-0.1,0.1-0.2,0.1-0.3
			c0.1-0.2,0.1-0.4,0.2-0.6c0.1-0.3,0.2-0.6,0.5-0.8c0.3-0.3,0.8-0.4,1.2-0.2L16,8.8l-0.1,0c0,0-0.1,0-0.1,0c-0.1,0-0.2,0-0.2,0.1
			c-0.2,0.1-0.4,0.3-0.5,0.5C15.1,9.6,15,9.8,15,9.9c0,0.1-0.1,0.3-0.1,0.4c0,0,0,0.1,0,0.1c-0.1,0.2-0.2,0.5-0.3,0.7
			C14.2,11.5,13.9,11.6,13.5,11.7L13.5,11.7z M13.6,11.5L13.6,11.5c0.3,0,0.6-0.2,0.8-0.4c0.1-0.2,0.2-0.5,0.3-0.7c0,0,0-0.1,0-0.1
			c0.1-0.1,0.1-0.3,0.1-0.4c0-0.1,0.1-0.3,0.2-0.4c0.1-0.3,0.3-0.5,0.5-0.6c0.1,0,0.1-0.1,0.2-0.1c-0.3-0.1-0.7,0-0.9,0.3l0,0
			c-0.2,0.2-0.4,0.5-0.5,0.8c-0.1,0.2-0.1,0.4-0.2,0.6c0,0.1-0.1,0.2-0.1,0.3c-0.1,0.2-0.2,0.5-0.4,0.7
			C13.6,11.5,13.6,11.5,13.6,11.5C13.6,11.5,13.6,11.5,13.6,11.5z"/>
	</g>
	<g>
		<path class="st0" d="M11.6,16.4c0.4,0,0.7,0,1-0.3c0.2-0.1,0.3-0.3,0.3-0.4c0-0.1,0.1-0.2,0.1-0.3c0-0.1,0-0.1,0-0.2
			c0,0-0.1,0-0.1,0c-0.1,0.1-0.1,0.1-0.2,0.2c-0.2,0.3-0.5,0.5-0.9,0.6c-0.3,0.1-0.5,0.1-0.8,0.2c-0.2,0-0.4,0.1-0.6,0.3
			c0.1,0,0.1,0,0.2,0C11,16.4,11.3,16.3,11.6,16.4z"/>
		<path class="st0" d="M10.4,16.5l0.1-0.1c0.2-0.2,0.4-0.3,0.6-0.3c0.2,0,0.3-0.1,0.5-0.1c0.1,0,0.2,0,0.3-0.1
			c0.4-0.1,0.6-0.3,0.8-0.5c0-0.1,0.1-0.1,0.1-0.2c0,0,0,0,0.1-0.1l0,0l0.2,0l0,0c0,0,0,0,0,0.1c0,0,0,0.1,0,0.1c0,0,0,0.1-0.1,0.1
			c0,0-0.1,0.1-0.1,0.1c-0.1,0.2-0.2,0.4-0.3,0.5c-0.3,0.2-0.7,0.3-1,0.3c-0.2,0-0.4,0-0.6,0c-0.1,0-0.2,0-0.2,0c0,0-0.1,0-0.1,0
			c0,0-0.1,0-0.1,0L10.4,16.5z M13,15.2C13,15.2,13,15.3,13,15.2c-0.1,0.1-0.1,0.1-0.2,0.2c-0.2,0.3-0.5,0.5-0.9,0.6
			c-0.1,0-0.2,0-0.3,0.1c-0.2,0-0.3,0.1-0.5,0.1c-0.1,0-0.3,0.1-0.4,0.2c0,0,0,0,0,0c0.1,0,0.2,0,0.2,0c0.2,0,0.4,0,0.6,0
			c0.4,0,0.7,0,1-0.2c0.2-0.1,0.3-0.2,0.3-0.4c0-0.1,0-0.1,0.1-0.2c0,0,0-0.1,0.1-0.1C13,15.3,13,15.3,13,15.2
			C13,15.2,13,15.2,13,15.2L13,15.2z"/>
	</g>
	<g>
		<path class="st0" d="M5.5,13c-0.2-0.1-0.3-0.3-0.3-0.6c0-0.2-0.1-0.4-0.1-0.6c0,0,0,0,0-0.1c-0.1,0.1-0.2,0.3-0.2,0.5
			c0,0.2,0,0.4,0,0.6c0,0.2,0.1,0.3,0.3,0.5c0.2,0.1,0.3,0.3,0.4,0.4C5.7,13.5,5.6,13.1,5.5,13z"/>
		<path class="st0" d="M5.6,13.7L5.6,13.7c-0.1-0.1-0.1-0.2-0.2-0.2c-0.1-0.1-0.2-0.2-0.3-0.3c-0.2-0.1-0.3-0.3-0.3-0.5
			c0-0.2,0-0.4,0-0.6c0-0.1,0-0.3,0.2-0.5l0,0l0,0c0,0,0,0,0,0c0,0,0,0,0,0.1l0,0.1c0,0.2,0.1,0.3,0.1,0.5c0,0.2,0.1,0.4,0.3,0.5h0
			C5.7,13.1,5.7,13.5,5.6,13.7L5.6,13.7z M5,11.8c-0.1,0.1-0.1,0.3-0.1,0.4c0,0.2,0,0.4,0,0.6c0,0.2,0.1,0.3,0.3,0.4
			c0.1,0.1,0.2,0.2,0.3,0.3c0,0,0,0.1,0.1,0.1c0-0.2,0-0.5-0.1-0.6h0c-0.2-0.2-0.3-0.4-0.3-0.6C5.1,12.2,5,12.1,5,11.8L5,11.8z"/>
	</g>
	<g>
		<path class="st0" d="M13,16.4c-0.1,0.1-0.1,0.1-0.2,0.2c-0.2,0.3-0.5,0.3-0.8,0.3c-0.3,0-0.5-0.1-0.8-0.1c-0.1,0-0.2,0-0.3,0
			c0,0,0,0,0,0.1c0.5,0.2,1,0.3,1.6,0.3c0.1,0,0.2-0.1,0.3-0.2c0.2-0.2,0.4-0.5,0.7-0.6C13.3,16.2,13.1,16.3,13,16.4z"/>
		<path class="st0" d="M12.2,17.2c-0.4,0-0.8-0.1-1.3-0.3l0,0l0-0.2l0.1,0c0,0,0.1,0,0.1,0c0.1,0,0.1,0,0.2,0c0.1,0,0.2,0,0.3,0
			c0.2,0,0.3,0,0.5,0c0.3,0,0.5,0,0.7-0.3c0,0,0.1-0.1,0.1-0.1c0,0,0,0,0.1-0.1c0.1-0.1,0.3-0.2,0.6-0.2l0.2,0l-0.2,0.1
			c-0.3,0.1-0.4,0.3-0.6,0.5c0,0-0.1,0.1-0.1,0.1c0,0-0.2,0.2-0.4,0.2C12.4,17.2,12.3,17.2,12.2,17.2z M11,16.8
			c0.5,0.2,1,0.3,1.4,0.2c0.1,0,0.2-0.1,0.3-0.2c0,0,0.1-0.1,0.1-0.1c0.1-0.2,0.3-0.3,0.5-0.5c-0.1,0-0.2,0.1-0.3,0.1l0,0
			c0,0,0,0-0.1,0.1c0,0-0.1,0.1-0.1,0.1c-0.2,0.3-0.5,0.3-0.8,0.3c-0.2,0-0.3,0-0.5,0c-0.1,0-0.2,0-0.3,0
			C11.2,16.8,11.1,16.8,11,16.8C11,16.8,11,16.8,11,16.8z"/>
	</g>
	<g>
		<path class="st0" d="M14.5,15.6c0-0.3,0-0.5-0.2-0.7c0,0.4,0,0.8-0.3,1.1c0.2,0.3,0.5,0.6,0.5,1c0.2-0.2,0.1-0.5,0.1-0.7
			C14.5,16.1,14.5,15.9,14.5,15.6z"/>
		<path class="st0" d="M14.5,17.1l0-0.2c0-0.3-0.2-0.5-0.3-0.7C14.1,16.2,14,16.1,14,16l0,0l0,0c0.2-0.3,0.2-0.6,0.3-1
			c0,0,0-0.1,0-0.1l0-0.2l0.1,0.1c0.2,0.3,0.2,0.5,0.2,0.8l0,0c0,0.2,0,0.5,0.1,0.7c0.1,0.2,0.1,0.5-0.1,0.7L14.5,17.1z M14.1,16
			c0,0.1,0.1,0.1,0.1,0.2c0.1,0.2,0.3,0.4,0.3,0.6c0.1-0.2,0-0.3,0-0.5c-0.1-0.2-0.1-0.4-0.1-0.7c0-0.2,0-0.4-0.1-0.6
			C14.3,15.4,14.3,15.7,14.1,16z"/>
	</g>
	<g>
		<path class="st0" d="M5,13.4c-0.2-0.1-0.3,0-0.4,0.2c0.1,0.1,0.2,0.1,0.3,0.2c0,0,0,0.1,0,0.1c-0.1,0.1-0.1,0.2,0,0.3
			c0.1,0.1,0.4,0.1,0.5,0c0.1-0.1,0.1-0.2,0.1-0.3C5.4,13.7,5.2,13.5,5,13.4z"/>
		<path class="st0" d="M5.1,14.4c-0.1,0-0.2,0-0.3-0.1c-0.1-0.1-0.1-0.3,0-0.4l0,0c0,0,0,0,0,0c0,0,0,0,0,0l-0.3-0.2l0,0
			c0.1-0.2,0.2-0.3,0.4-0.2l0,0c0.3,0.1,0.4,0.3,0.5,0.5c0,0.1,0.1,0.3-0.1,0.4C5.3,14.4,5.2,14.4,5.1,14.4z M4.7,13.6l0.2,0.2l0,0
			c0,0,0,0,0,0c0,0,0,0,0,0.1l0,0c-0.1,0.1-0.1,0.2,0,0.2c0.1,0.1,0.3,0.1,0.4,0c0.1-0.1,0.1-0.1,0.1-0.3c-0.1-0.2-0.2-0.4-0.4-0.5
			l0,0C4.8,13.4,4.8,13.5,4.7,13.6z"/>
	</g>
	<g>
		<path class="st0" d="M9.2,17.3c0,0.1-0.1,0.2-0.1,0.3c0,0.2,0,0.4,0,0.6c0.1-0.1,0.2-0.2,0.2-0.4c0-0.1,0-0.2,0.1-0.3
			c0-0.1,0-0.2,0-0.4C9.3,17.2,9.2,17.2,9.2,17.3z"/>
		<path class="st0" d="M9.1,18.2L9.1,18.2c0-0.1,0-0.2,0-0.2c0-0.1,0-0.3,0-0.4c0-0.1,0-0.2,0.1-0.3l0,0c0-0.1,0.1-0.1,0.1-0.2
			c0,0,0,0,0.1-0.1l0-0.1l0,0.1c0.1,0.1,0.1,0.2,0,0.4c0,0.1,0,0.2-0.1,0.3C9.4,17.9,9.3,18.1,9.1,18.2L9.1,18.2z M9.3,17.2
			C9.3,17.2,9.3,17.2,9.3,17.2c-0.1,0.1-0.1,0.1-0.1,0.2l0,0c-0.1,0.1-0.1,0.2-0.1,0.2c0,0.1,0,0.3,0,0.4c0,0,0,0.1,0,0.1
			c0.1-0.1,0.1-0.2,0.1-0.3c0-0.1,0-0.2,0.1-0.3C9.4,17.3,9.4,17.3,9.3,17.2z"/>
	</g>
	<g>
		<path class="st0" d="M5.9,7C5.7,7.2,6,7.4,6,7.6C5.8,7.5,5.7,7.5,5.5,7.4c0,0.1,0,0.2,0,0.2c0.2,0,0.4,0.1,0.6,0.1
			C6.2,7.5,5.8,7.3,5.9,7z"/>
		<path class="st0" d="M6.1,7.8L5.4,7.7l0-0.3l0.4,0.1c0,0,0-0.1,0-0.1C5.8,7.3,5.7,7.1,5.9,7l0.2-0.2L6,7c0,0.1,0,0.2,0.1,0.3
			C6.1,7.5,6.2,7.6,6.1,7.8L6.1,7.8z M5.6,7.6L6,7.7c0-0.1,0-0.1,0-0.2c0,0,0,0,0,0l0,0.1L5.6,7.5L5.6,7.6z"/>
	</g>
	<g>
		<path class="st0" d="M13.7,2.9c0,0.2-0.2,0.8-0.5,0.9c0.1,0,0.7,0.1,1.2,0c0.7-0.2,0.8-0.4,1-0.7C15.7,3.4,15.8,4,15.8,4
			s0.3-0.5,0.3-0.6c0.1,0.3,0.2,0.6,0.2,0.9c0,0.3-0.1,0.5-0.4,0.6C15.7,4.9,15.5,5,15.2,5c-0.4,0.1-0.8,0.1-1.3,0.1
			c-0.2,0-0.5,0-0.7,0c-0.3,0-0.5-0.1-0.8-0.2c-0.2-0.1-0.6-0.3-0.6-0.3C11.1,4.3,10.7,4.2,9.9,4C9.8,4,9.7,3.9,9.6,3.9
			c0.1-0.1,0.2-0.1,0.2-0.2c0.3-0.2,0.7-0.4,1-0.4c0.1,0,0.2,0,0.2,0c0.3,0,0.6,0,0.9,0c0.1,0,0.1,0,0.2,0C13,3.3,13.3,3.2,13.7,2.9
			 M15.8,1.8L15.8,3c0,0,0-0.1-0.1-0.1l-0.3-0.5l-0.3,0.5c-0.1,0.2-0.2,0.4-0.8,0.6c-0.1,0-0.3,0.1-0.4,0.1C14,3.3,14.1,3.1,14,2.9
			l0-0.6l-0.5,0.3c-0.3,0.2-0.6,0.3-1.4,0.4c0,0-0.1,0-0.1,0c-0.1,0-0.3,0-0.4,0c-0.2,0-0.3,0-0.5,0c-0.1,0-0.2,0-0.3,0
			c-0.5,0-0.9,0.2-1.2,0.5c-0.1,0-0.1,0.1-0.2,0.1c0,0-0.1,0.1-0.1,0.1L8.9,4l0.6,0.2c0.1,0,0.1,0,0.1,0c0.1,0,0.2,0,0.2,0.1
			c0.2,0,0.3,0.1,0.5,0.1c0.5,0.1,0.8,0.2,1.3,0.4c0,0,0.1,0,0.1,0.1c0.1,0.1,0.4,0.2,0.5,0.2l0,0l0,0c0.3,0.1,0.6,0.3,1,0.3
			c0.1,0,0.1,0,0.2,0c0.2,0,0.4,0,0.5,0c0.4,0,0.9,0,1.4-0.1c0.2-0.1,0.5-0.1,0.8-0.3c0.3-0.2,0.5-0.5,0.6-0.9c0-0.3,0-0.7-0.2-1
			L15.8,1.8L15.8,1.8z"/>
		<path class="st0" d="M14,5.6c-0.2,0-0.4,0-0.5,0l-0.2,0c-0.4,0-0.7-0.1-1-0.3l0,0c-0.1-0.1-0.4-0.2-0.5-0.2c-0.1,0-0.1,0-0.1-0.1
			c-0.5-0.2-0.8-0.3-1.3-0.4c-0.1,0-0.3-0.1-0.5-0.1c-0.1,0-0.1,0-0.2-0.1c0,0-0.1,0-0.1,0L8.8,4.1l0.5-0.5c0,0,0.1-0.1,0.1-0.1
			c0.1,0,0.1-0.1,0.2-0.1c0.3-0.3,0.8-0.4,1.3-0.5c0.1,0,0.2,0,0.3,0c0.2,0,0.3,0,0.5,0c0.1,0,0.3,0,0.4,0c0,0,0.1,0,0.1,0
			c0.8,0,1.1-0.2,1.4-0.4l0.6-0.4l0,0.7c0,0.2,0,0.4-0.1,0.5c0.1,0,0.2,0,0.3-0.1c0.6-0.2,0.7-0.3,0.8-0.5l0.4-0.6l0.3,0.6l0.1-1.2
			l0.7,1.6c0.2,0.4,0.2,0.7,0.2,1.1c0,0.4-0.2,0.8-0.6,0.9c-0.3,0.1-0.5,0.2-0.8,0.3C14.8,5.5,14.3,5.6,14,5.6z M9,4l0.5,0.2
			c0.1,0,0.1,0,0.1,0c0.1,0,0.2,0,0.2,0.1c0.2,0,0.3,0.1,0.5,0.1c0.5,0.1,0.8,0.2,1.3,0.5c0,0,0.1,0,0.1,0.1
			c0.1,0.1,0.4,0.2,0.5,0.2l0,0c0.3,0.1,0.6,0.3,1,0.3l0.2,0c0.2,0,0.4,0,0.5,0c0.4,0,0.9,0,1.3-0.1c0.2-0.1,0.5-0.1,0.8-0.3
			c0.3-0.2,0.5-0.5,0.5-0.8c0-0.3,0-0.6-0.2-1L15.9,2l-0.1,1.3L15.7,3c0,0,0-0.1-0.1-0.1l-0.2-0.5l-0.3,0.4
			c-0.1,0.2-0.3,0.4-0.9,0.6c-0.1,0-0.3,0.1-0.4,0.1l-0.1,0l0.1-0.1C13.9,3.3,14,3.1,14,2.9l0-0.5l-0.5,0.3C13.2,2.9,13,3,12.1,3
			c0,0-0.1,0-0.1,0c-0.1,0-0.3,0-0.4,0c-0.2,0-0.3,0-0.5,0c-0.1,0-0.2,0-0.3,0c-0.5,0-0.9,0.2-1.2,0.5c0,0-0.1,0.1-0.1,0.1
			c0,0-0.1,0.1-0.1,0.1L9,4z M14,5.2c-0.2,0-0.4,0-0.5,0l-0.2,0c-0.3,0-0.5-0.1-0.9-0.2c-0.1-0.1-0.4-0.2-0.5-0.3c0,0-0.1,0-0.1-0.1
			c-0.5-0.3-0.9-0.3-1.4-0.5c-0.1,0-0.3-0.1-0.5-0.1C9.9,4,9.8,4,9.7,4c0,0-0.1,0-0.1,0l-0.1,0l0.1-0.1c0,0,0.1-0.1,0.1-0.1
			c0.1,0,0.1-0.1,0.1-0.1c0.3-0.2,0.6-0.4,1.1-0.4c0.1,0,0.2,0,0.2,0c0.1,0,0.3,0,0.4,0c0.1,0,0.3,0,0.4,0c0.1,0,0.1,0,0.2,0
			c0.9,0,1.1-0.2,1.5-0.4l0.1,0l0,0.1c0,0.2-0.2,0.7-0.4,0.8c0.2,0,0.6,0.1,1-0.1c0.7-0.2,0.8-0.4,1-0.7l0-0.1l0,0
			c0.2,0.2,0.4,0.6,0.4,0.8c0.1-0.2,0.2-0.4,0.2-0.5l0-0.2l0.1,0.2c0.1,0.3,0.2,0.6,0.2,0.9c0,0.3-0.2,0.5-0.4,0.6
			C15.7,5,15.5,5,15.2,5.1C14.8,5.2,14.3,5.2,14,5.2z M9.7,3.9C9.7,3.9,9.7,3.9,9.7,3.9c0.1,0,0.2,0.1,0.3,0.1
			c0.2,0,0.3,0.1,0.5,0.1c0.5,0.1,0.8,0.2,1.4,0.5c0,0,0.1,0,0.1,0.1c0.2,0.1,0.4,0.2,0.5,0.3C12.7,5,13,5.1,13.2,5.1l0.2,0
			c0.2,0,0.4,0,0.5,0c0.4,0,0.8,0,1.3-0.1c0.2,0,0.4-0.1,0.7-0.2c0.3-0.1,0.3-0.4,0.3-0.5c0-0.2,0-0.5-0.1-0.7C16,3.7,15.9,4,15.9,4
			l-0.1,0.1l0-0.1c0,0-0.1-0.5-0.4-0.8c-0.2,0.3-0.4,0.5-1,0.7c-0.5,0.2-1,0.1-1.2,0c0,0,0,0,0,0l-0.3,0l0.3-0.1
			c0.2-0.1,0.4-0.5,0.5-0.7c-0.3,0.2-0.7,0.3-1.5,0.4c0,0-0.1,0-0.2,0c-0.1,0-0.3,0-0.4,0c-0.1,0-0.3,0-0.4,0c-0.1,0-0.2,0-0.2,0
			c-0.4,0-0.7,0.2-1,0.4C9.8,3.8,9.8,3.8,9.7,3.9C9.7,3.9,9.7,3.9,9.7,3.9z"/>
	</g>
	<g>
		<path class="st0" d="M5.5,10.7c0-0.2,0.1-0.4,0.1-0.5c0.1-0.3,0.1-0.6,0.2-0.9C5.8,9.2,5.8,9.1,6,9c0,0,0,0,0,0
			c0.5-0.3,0.4-0.2,0.3-0.7c0-0.2,0-0.3-0.1-0.5c-0.1,0-0.1,0.1-0.1,0.1C6,8.1,5.8,8.3,5.6,8.5c0,0.1-0.1,0.1-0.1,0.2
			C5.5,9.3,5.5,10,5.5,10.7C5.4,10.6,5.4,10.7,5.5,10.7C5.5,10.7,5.5,10.7,5.5,10.7z"/>
	</g>
</g>
<path class="st0" d="M54.7,22.8h2.7c0.1,1.7,1.4,2.8,3.7,2.8c2.4,0,3.8-1.1,3.8-2.8c0-1.8-1.9-2.1-4-2.5c-2.7-0.5-5.9-1-5.9-4.9
	c0-3.2,2.4-5.4,6.1-5.4c3.6,0,6,2.1,6.1,5.2h-2.6c-0.1-1.6-1.3-2.7-3.4-2.7c-2.2,0-3.5,1.2-3.5,2.8c0,1.8,1.9,2.1,4,2.5
	c2.8,0.5,5.9,1,5.9,4.9c0,3.3-2.6,5.4-6.5,5.4C57.3,28.2,54.8,26.1,54.7,22.8"/>
<path class="st0" d="M70.1,26.4c0-1,0.8-1.8,1.8-1.8s1.8,0.8,1.8,1.8s-0.8,1.8-1.8,1.8l0,0c-0.9,0-1.7-0.7-1.8-1.7
	C70.1,26.5,70.1,26.4,70.1,26.4"/>
<path class="st0" d="M75.3,19.1c0-5.2,3.8-9.1,9.3-9.1c4.1-0.2,7.8,2.5,9,6.5h-2.9c-1.4-3.3-5.3-4.9-8.7-3.4c-2.4,1-4,3.4-4,6
	c0,3.6,3,6.6,6.6,6.6c2.6,0,5-1.6,6-4h2.9c-1.1,4-4.8,6.6-9,6.5C79.2,28.2,75.3,24.3,75.3,19.1"/>
<path class="st0" d="M96.3,10.4h12.9v2.5H99v4.8h8.6v2.5H99v5.1h10.1v2.5H96.3V10.4z"/>
<path class="st0" d="M112.2,10.4h7.3c4.4,0,6.4,2.4,6.4,5.7s-2,5.8-6.4,5.8h-4.6v6h-2.7L112.2,10.4z M119.5,19.4
	c2.6,0,3.6-1.4,3.6-3.3c0-1.8-0.9-3.2-3.6-3.2h-4.6v6.5H119.5z"/>
<path class="st0" d="M128.2,10.4H141v2.5h-10.1v4.8h8.6v2.5h-8.6v5.1H141v2.5h-12.9V10.4z"/>
<path class="st0" d="M144.1,10.4h2.7v15h9.8v2.5h-12.5V10.4z"/>
<path class="st0" d="M159.1,10.4h12.9v2.5h-10.1v4.8h8.6v2.5h-8.6v5.1h10.1v2.5h-12.9V10.4z"/>
<polygon class="st0" points="44.2,37.5 24.8,37.5 24.8,34.8 23.8,33.7 21.3,36.2 21.3,32.2 19.3,32.2 19.3,34.9 17,32.8 14.4,34.8 
	14.4,31.9 12.4,30.2 9.1,32.7 9.1,28.4 6.6,25.5 4.1,28.5 4.1,37.5 2.2,37.5 2.2,36.3 2.9,36.3 2.9,28.1 6.7,23.6 10.3,28 
	10.3,30.2 12.4,28.6 15.6,31.3 15.6,32.3 17,31.2 18.1,32.2 18.1,31 22.5,31 22.5,33.2 23.8,32 26.1,34.3 26.1,36.3 44.2,36.3 "/>
</svg>
