<svg xmlns="http://www.w3.org/2000/svg" xmlns:xlink="http://www.w3.org/1999/xlink" width="171.942" height="38.37" viewBox="0 0 171.942 38.37"><defs><clipPath id="a"><rect width="46.63" height="38.37" fill="none"/></clipPath><clipPath id="b"><rect width="117.267" height="18.173" transform="translate(0 0)" fill="#fff"/></clipPath></defs><g transform="translate(-143 -11)"><g transform="translate(143 11)"><g transform="translate(0 0)" clip-path="url(#a)"><path d="M45.187,30.108a2.453,2.453,0,0,1-1.3-.524,2.755,2.755,0,0,0,2.243-.6c-.069.018-.14.033-.208.057a1.932,1.932,0,0,1-2.217-.545c-.356-.386-.712-.773-1.08-1.147a6.426,6.426,0,0,0-3.052-1.7,8.239,8.239,0,0,1-1.033-.3c.323.024.647.035.968.074.344.041.687.1,1.026.167s.656.154.976.254.625.226.944.321A7.05,7.05,0,0,0,39.562,24.8c.275-.047.552-.081.822-.144a3.254,3.254,0,0,0,.77-.283c-.277-.045-.555-.081-.83-.136a7.8,7.8,0,0,1-3.355-1.649,20.5,20.5,0,0,1-2.056-1.843,5.014,5.014,0,0,0-5.806-.98c-.061.031-.124.058-.184.086a.308.308,0,0,1-.084-.043,5.277,5.277,0,0,0-3.175-1.676,8.937,8.937,0,0,1-3.627-1.61A7.2,7.2,0,0,1,19.809,14.2a1.6,1.6,0,0,1-.135-.295c-.223-.645-.442-1.292-.662-1.938A.719.719,0,0,1,19,11.878c.462.362.462.362.752.366a2.717,2.717,0,0,1-.187-.26,2.885,2.885,0,0,1-.132-.326,1.221,1.221,0,0,0,1.149.086,2.023,2.023,0,0,0-.205-.068.922.922,0,0,1-.855-.973c-.01-.128-.009-.258-.017-.386a1.328,1.328,0,0,0-.437-1c.656.111.7.1.925-.242-.288.106-.444-.059-.643-.2a4.445,4.445,0,0,0-.409-.237.628.628,0,0,1,.427-.237c.176-.031.354-.045.531-.063a.707.707,0,0,0,.511-.246,4.837,4.837,0,0,1-1.575-.282,2.481,2.481,0,0,0-1.484.139,4.847,4.847,0,0,1-.924.19,1.124,1.124,0,0,1-.615-.278,3.482,3.482,0,0,0-2.746-.692c-.028-.016-.058-.029-.084-.047a8.6,8.6,0,0,0-.761-.511A12.511,12.511,0,0,0,8.852,5.483a6.959,6.959,0,0,0-2.43-.255,2.536,2.536,0,0,0-.4.109c-.368.117-.738.247-1.129.375-.05-.057-.115-.142-.191-.215a2.374,2.374,0,0,0-.359-.308c-.181-.112-.3-.047-.342.16a.333.333,0,0,0-.008.118,2.255,2.255,0,0,1-.17.97,1.494,1.494,0,0,0-1.11.686C2.437,6.9,2.157,6.7,1.9,6.467s-.476-.493-.7-.734a.18.18,0,0,0-.2.22,5.742,5.742,0,0,0,.345,1.975,3.5,3.5,0,0,0,.471.6,1.022,1.022,0,0,1-.306,0c-.253-.082-.5-.187-.748-.283A1.573,1.573,0,0,0,0,8.048l.625.376c-.01.022-.021.043-.031.065l-.474-.1c0,.013-.009.025-.014.038a2.585,2.585,0,0,1,.346.247c.1.1.168.247.273.35a3.3,3.3,0,0,0,.4.306.563.563,0,0,1,.19.162l-.32.071a1.161,1.161,0,0,0,1.138-.008v.385c-.376.3-.419.784-.617,1.171a2.946,2.946,0,0,1,.569,1.334c.031.384.124.762.173,1.145a3.534,3.534,0,0,1,.014.557c-.014.525-.037,1.049-.054,1.574,0,.147,0,.295,0,.414a.892.892,0,0,1-.091.09c-.3.21-.336.407-.119.716a.392.392,0,0,1,.088.149,1.33,1.33,0,0,0,.43.73,4.547,4.547,0,0,0,.769.582.552.552,0,0,0,.337.1,3.225,3.225,0,0,0,1.36-.273.818.818,0,0,0,.329-.9c-.058-.176-.091-.359-.14-.558.363-.093.405-.342.362-.63a.776.776,0,0,1,.172-.609,2.3,2.3,0,0,0,.5-1.064.369.369,0,0,1,.2-.234,1.464,1.464,0,0,0,.757-.839c.144-.335.257-.685.383-1.028.026-.073.048-.147.075-.231a.36.36,0,0,1,.288.4c-.014.3-.053.594-.044.89.014.474.062.946.089,1.42a.621.621,0,0,1-.031.312,3.666,3.666,0,0,0-.343,2.793,4.325,4.325,0,0,0-.937,2,.91.91,0,0,1-.382.548A8.886,8.886,0,0,1,5.5,21a.742.742,0,0,0-.368.691,2.073,2.073,0,0,0,.652,1.571A5.038,5.038,0,0,1,6.855,25c.09.239.136.495.206.742.064.228.124.459.2.683a.692.692,0,0,0,.463.428,2.892,2.892,0,0,1,1.513,1.486.8.8,0,0,0,.515.535c.14.046.266.131.4.189a10.171,10.171,0,0,0,.958.391.518.518,0,0,0,.676-.278,1.273,1.273,0,0,0,.15-.918,2.781,2.781,0,0,0-.6-1.31.88.88,0,0,0-.355-.257,5.53,5.53,0,0,0-.823-.244.661.661,0,0,0-.34.063,1.975,1.975,0,0,0-.294.174L9,26.183l.139-.268a1.926,1.926,0,0,0-.917-.937.533.533,0,0,1-.242-.249c-.247-.485-.483-.975-.713-1.468a1.763,1.763,0,0,1,.076-.868,4.191,4.191,0,0,1,.9.711c.3.4.624.8.89,1.225a3.487,3.487,0,0,1,.368.9,1.223,1.223,0,0,0,.4.675,1.756,1.756,0,0,0,1.6.412,3.483,3.483,0,0,1,1.3-.078,2.6,2.6,0,0,0,1.577-.32c.432-.234.5-.517.236-.934a4.789,4.789,0,0,0-1.2-1.224.286.286,0,0,0-.16-.065,1.321,1.321,0,0,0-1.148.434.733.733,0,0,1-.075.091c-.272.25-.277.263-.194.638l-.349.071a1.123,1.123,0,0,0-.979-.787A10.128,10.128,0,0,1,9.427,22.47c-.127-.249-.114-.3.071-.613a10.553,10.553,0,0,1,1.543.307,18.579,18.579,0,0,1,2.8,1.375,6.589,6.589,0,0,1,.777.642,14.738,14.738,0,0,0,3.86,2.367,10.5,10.5,0,0,0,1.154.385c.382.1.774.164,1.2.251A5.73,5.73,0,0,0,22.344,28.9a1.755,1.755,0,0,1,.331.407c.354.584.69,1.179,1.046,1.762a1.723,1.723,0,0,0,.79.639c.939.445,1.868.915,2.77,1.43.7.4,1.361.883,2.035,1.335a.769.769,0,0,1,.2.216c.369.564.731,1.132,1.1,1.7a2.045,2.045,0,0,1,.325.912,1.665,1.665,0,0,0,.92,1.221,6.665,6.665,0,0,1,.9.758c.055.05.059.163.076.249a.881.881,0,0,0,.429.672c.439.247.862.523,1.3.768a.683.683,0,0,0,.626.071,2.112,2.112,0,0,0,.443-1.561,1.027,1.027,0,0,0-.324-.62c-.222-.2-.44-.4-.675-.58a.559.559,0,0,0-.739-.021,1.153,1.153,0,0,1-.222.1l-.525-.52a.564.564,0,0,1-.016-.086,1.146,1.146,0,0,0-.767-1.325,3.524,3.524,0,0,1-1.567-1.9c-.107-.206-.051-.489-.11-.727-.123-.5-.263-.993-.415-1.483a.808.808,0,0,0-.684-.586c-.244-.041-.488-.089-.733-.119a.907.907,0,0,1-.689-.408,5.992,5.992,0,0,0-.537-.711,4.7,4.7,0,0,1-.864-2.24.293.293,0,0,1,.368.047,9.289,9.289,0,0,1,.761.615c.361.338.7.7,1.051,1.05a1.668,1.668,0,0,0,.643.413,9.863,9.863,0,0,1,2.132,1.228.7.7,0,0,1,.186.259,3.479,3.479,0,0,0,1.15,1.378,2.231,2.231,0,0,1,.815.916,20.168,20.168,0,0,1,1.237,2.662,1.206,1.206,0,0,0,.849.845,1.278,1.278,0,0,1,.451.262c.162.129.3.293.451.43a1.612,1.612,0,0,1,.513.746.586.586,0,0,0,.177.265c.443.366.884.734,1.346,1.075.3.225.394.2.663-.072a1.693,1.693,0,0,0,.388-1.549,1.843,1.843,0,0,0-1.107-1.442,1.012,1.012,0,0,0-.632-.048.806.806,0,0,1-.839-.3l-.286-.31a1.105,1.105,0,0,0-.5-1.184,1,1,0,0,0-.166-.125,3.434,3.434,0,0,1-1.213-1.426,3.45,3.45,0,0,1-.543-1.647,8.076,8.076,0,0,0-.115-.883,2.329,2.329,0,0,0-.168-.5.623.623,0,0,0-.465-.372,2.35,2.35,0,0,1-1.226-.686.689.689,0,0,0-.126-.125,1.077,1.077,0,0,1-.454-1.017,25.632,25.632,0,0,0-.431-4.133c-.124-.637-.347-1.254-.523-1.873a.8.8,0,0,1,.719.574,5.455,5.455,0,0,1,.173.93c.073.769.1,1.543.186,2.31a5.574,5.574,0,0,0,1.028,2.842,3.545,3.545,0,0,0,1.307,1.069,4.966,4.966,0,0,1-.994-2.479c.1.163.2.329.31.49a3.332,3.332,0,0,0,1.522,1.369,3.011,3.011,0,0,0,.8.208,16.439,16.439,0,0,0,1.659.056,3.963,3.963,0,0,1-2.555-1.7,7.5,7.5,0,0,0,.887.51c.731.3,1.478.565,2.219.841.343.128.691.242,1.031.379a4.906,4.906,0,0,1,1.5.953,2.9,2.9,0,0,0-1.892-1.9l.026-.055c.2.073.405.132.6.221.62.285,1.227.6,1.856.869a6.46,6.46,0,0,0,4.869.113c.054-.02.107-.043.218-.088-.521-.048-.984-.075-1.443-.138M6.815,21.577c-.015.172-.066.34-.092.51a.353.353,0,0,1-.278.348c.025-.1.093-.207.066-.28a.936.936,0,0,1,.176-.914.124.124,0,0,1,.017-.018h.077a1.856,1.856,0,0,1,.033.354m22.6,10.5a.421.421,0,0,1,.215.077,1.1,1.1,0,0,1,.378.742c-.276-.175-.545-.348-.818-.514a.587.587,0,0,1-.309-.35c.19.015.363.023.534.045m3.836-1.088c.181.075.348.154.523.214a.436.436,0,0,1,.326.344c.071.387.142.773.209,1.161a.746.746,0,0,1-.01.176,2.867,2.867,0,0,0-.572-.87,2.809,2.809,0,0,1-.317-.426.913.913,0,0,1-.159-.6M13.961,7.53A2.893,2.893,0,0,1,15.6,8.3a1.263,1.263,0,0,0,1.363.307,2.949,2.949,0,0,1,1.7-.412,2.9,2.9,0,0,1-.588.853c-.174.094.765-.293,1.176.059a.827.827,0,0,0-.693.178c.256.283.471.418.57.79a2.091,2.091,0,0,1,.064.9,1.589,1.589,0,0,0,0,.763c-.217-.059-.445-.556-.691-.623.245.443.141.78.368,1.192-.269-.1-.365-.31-.506-.557s-.28-.5-.436-.743a2.416,2.416,0,0,0-1.315-1.057,5.112,5.112,0,0,1-.656-.278.5.5,0,0,1-.2-.164A6.887,6.887,0,0,0,14.6,8.226c-.244-.225-.492-.447-.767-.7.074,0,.1,0,.131,0M1.732,6.7a1.508,1.508,0,0,1,.742.6L2.266,7.7l-.534-1M2.76,8.99a1.021,1.021,0,0,1-.89.027.992.992,0,0,0,.768-.457c.175-.226.351-.452.538-.693-.294-.008-.48.192-.739.361.192-.557.641-.771,1.09-1.075l-.46.04A.831.831,0,0,1,3.808,6.9l.3.835c-.065.413-.623.579-.539,1.085L3.5,8.808l-.09-.532C3.2,8.774,3.121,9.35,2.44,9.4L2.8,9.039,2.76,8.99m-.045,2.7c-.082-.211-.153-.371-.2-.537a.434.434,0,0,1-.018-.259c.109-.294.236-.581.357-.871l.024.015c-.051.533-.1,1.066-.159,1.652m4.52-2.066L6.918,9.17a1.772,1.772,0,0,1,1.421.3l-1.1.163M9.7,15.164a8.825,8.825,0,0,1-.578-3.73,1.243,1.243,0,0,0-.627-1.157c-.077-.054-.16-.1-.294-.181a.71.71,0,0,1,.656.138,1.4,1.4,0,0,1,.5.819c.154.736.293,1.477.47,2.207.149.615.346,1.219.515,1.829a1.29,1.29,0,0,1-.487,1.343A2.291,2.291,0,0,0,9.7,15.164m14.41,14.65.2.144a5.093,5.093,0,0,0,1.451.786,2.338,2.338,0,0,1,.9.649c.041.041.045.118.066.179-.726.232-2.369-.876-2.615-1.759m3.151-3.023a2.761,2.761,0,0,1-.731-1,1.062,1.062,0,0,0-.6-.619c.627-.627.487-1.387.489-2.13a.648.648,0,0,1,.178.255,3.764,3.764,0,0,1,.117.55,7.486,7.486,0,0,0,.729,3.035.566.566,0,0,1-.179-.093m3.912.557.035.016c.067.551.134,1.1.2,1.661a1.387,1.387,0,0,1-.733-.358,8.086,8.086,0,0,1-1.764-2.034,1.865,1.865,0,0,1-.3-.859c-.048-.612-.081-1.224-.118-1.837a6.109,6.109,0,0,0-.309-1.837,1.967,1.967,0,0,0-.5-.782c.068.888.334,1.736-.208,2.562a2.163,2.163,0,0,1-.108-.223c-.158-.49-.307-.983-.47-1.471a.969.969,0,0,1,.029-.714,1.372,1.372,0,0,0-.426-1.733,7.006,7.006,0,0,0-.621-.457,1.084,1.084,0,0,0-.195-.082c.066.14.114.236.158.335a2.521,2.521,0,0,1-.631,3.08,3.9,3.9,0,0,1-1.686.9,3.619,3.619,0,0,1-1.251.2A6.527,6.527,0,0,1,18.544,22.1a4.822,4.822,0,0,1-.9-1.034,1.467,1.467,0,0,0,.279-.922c-.009-.207-.029-.415-.052-.621-.055-.492-.125-.983-.17-1.475a1.914,1.914,0,0,1,.632-1.685,3.565,3.565,0,0,1,1.007-.673c.08-.033.157-.075.25-.119-.342-.479-.533-1.029-.949-1.523-.072.237-.132.41-.176.588a1.215,1.215,0,0,1-.45.835,1.554,1.554,0,0,0-.3.366c-.072.091-.142.183-.239.309l-.213-.477-.083,0c-.056.218-.12.435-.165.656-.226,1.105-.442,2.213-.671,3.317a4.41,4.41,0,0,1-.5,1.424,1.418,1.418,0,0,1-1.474.73v-.71c-.146.159-.27.285-.384.421a1.391,1.391,0,0,1-1.811.375,6.931,6.931,0,0,0-1.919-.506c-.31-.04-.624-.047-.936-.068l-.253,1.009.965,1.59L10,23.937l-.442-.367-.049.047a2.209,2.209,0,0,0,.725.855,1.136,1.136,0,0,0,.429.188c.464.09.472.086.541.514.136.138.393.17.407.418a.235.235,0,0,1-.293.158c-.147-.019-.295-.04-.44-.07a.68.68,0,0,1-.585-.621.631.631,0,0,0-.146-.345,6.251,6.251,0,0,1-.982-1.409c-.157-.269-.3-.545-.456-.822l-.29.263c-.143-.1-.278-.176-.4-.273a4.167,4.167,0,0,0-.4-.351.563.563,0,0,1-.28-.43,2.526,2.526,0,0,1-.028-.619.985.985,0,0,1,1.031-.919,1.33,1.33,0,0,0,.409-.056,6.951,6.951,0,0,0,1.6-.772,2.587,2.587,0,0,0,.642-.609,6.46,6.46,0,0,1,.745-.843.676.676,0,0,1,.968-.088c.23.135.441.3.664.449.114.075.237.137.407.234-.15-.227-.276-.384-.365-.558a1.227,1.227,0,0,0-.874-.786,3.837,3.837,0,0,1,.484-2.98c.12-.161.092-.272-.088-.358a3.24,3.24,0,0,0-.477-.159c-.2-.059-.4-.1-.6-.165a.443.443,0,0,1-.328-.4,6.473,6.473,0,0,0-.578-1.9,3.43,3.43,0,0,0-2.189-2c-.012,0-.018-.029-.034-.057.3-.189.584-.012.887.042a1.743,1.743,0,0,0-.4-.419,3.011,3.011,0,0,0-1.747-.49,2,2,0,0,0-.629.146.382.382,0,0,0-.249.369,5.612,5.612,0,0,1-.105.618,7.266,7.266,0,0,1,.529,1.031,3.923,3.923,0,0,1-.266,3,1.262,1.262,0,0,1-.246.333.523.523,0,0,1-.651.122c-.106-.052-.216-.1-.326-.141s-.229-.058-.279.066a2.49,2.49,0,0,1,.091.784,6.764,6.764,0,0,1-.271.966c-.232-.114-.16-.353-.232-.6a1.124,1.124,0,0,0-.067.814c.365.047.41.083.5.393l-.324.154c-.081.228-.162.44-.231.655a1.7,1.7,0,0,0-.029.233,3.837,3.837,0,0,1-.116.6.42.42,0,0,1-.6.254,2.963,2.963,0,0,1-.705-.567c-.1-.106-.09-.311-.144-.529-.231-.182-.238-.434-.062-.738a3.526,3.526,0,0,0,.223-.632l-.049-.015-.261.229a.32.32,0,0,1-.031-.083.706.706,0,0,1,.014-.117A6.316,6.316,0,0,0,3.148,13.8a.825.825,0,0,1,.033-.234,3.638,3.638,0,0,1,.688-1.6l-.3-.056a1.332,1.332,0,0,1,.152-.225.537.537,0,0,0,.125-.6l-.06-.2c-.179-.579-.163-.621.343-.936.014-.008.019-.03.036-.059-.294-.26-.251-.537-.043-.839A.632.632,0,0,0,4.206,8.4a.418.418,0,0,1,.087-.439l.621.338c.25-.308.1-.748.439-.986a1.413,1.413,0,0,1,.29.992.457.457,0,0,0,.311.493,4.871,4.871,0,0,0,.038-.579,2.506,2.506,0,0,0-.4-1.107c-.158-.277-.274-.577-.409-.868L5.263,6.2l.469.549c.178-.045.37-.083.557-.141a3.653,3.653,0,0,1,1.822.021,2.089,2.089,0,0,0,.241.016A.615.615,0,0,0,7.826,6.2a7.7,7.7,0,0,0-.886-.033c-.125,0-.236.012-.259-.185A1.933,1.933,0,0,1,7,5.9a6.882,6.882,0,0,1,2.13.089,10.985,10.985,0,0,1,5.847,3.493,2.931,2.931,0,0,0,1.219.853,2.252,2.252,0,0,1,.414.161,1.747,1.747,0,0,1,.516.385c.493.658.97,1.328,1.423,2.014a5.976,5.976,0,0,1,.429.908,6.34,6.34,0,0,0,.281.682,6.363,6.363,0,0,0,1.47,1.7,15.016,15.016,0,0,0,3.987,2.21,1.021,1.021,0,0,0,.288.047,4.764,4.764,0,0,1,2.985,1.166c.131.121.27.234.4.358A9.149,9.149,0,0,1,30.9,23.555a3.086,3.086,0,0,1,.143,1.572c-.125.689-.158,1.394-.221,2.093a1.255,1.255,0,0,0,.046.381c.012.053.069.1.128.172l.172-.425m9.283,1.292c-.409-.222-.8-.486-1.209-.7-.36-.184-.743-.321-1.116-.477a.287.287,0,0,0-.085-.023.118.118,0,0,0-.049,0c.23.218.459.449.7.661a1.726,1.726,0,0,0,.375.22,1.353,1.353,0,0,0,.248.069c0,.024,0,.048-.005.071-.244,0-.489.016-.732,0a3.21,3.21,0,0,1-1.722-.742,12.5,12.5,0,0,1-1.684-1.675c-.052-.059-.112-.112-.191-.19a2.055,2.055,0,0,0,.71,1.908c.143.122.289.241.431.364.052.045.1.1.189.186a2.582,2.582,0,0,1-2-1.913c-.175-.7-.28-1.416-.417-2.125-.067-.348-.136-.695-.213-1.085A2.9,2.9,0,0,1,34.7,25.18a2.85,2.85,0,0,0,.059-1.545,4.019,4.019,0,0,0-.678-1.388c.255.066.494.119.727.192a1.594,1.594,0,0,1,.372.174,4.01,4.01,0,0,1,.349.272l.033-.036c-.058-.078-.114-.159-.176-.234A6.406,6.406,0,0,0,32.5,20.64a4.91,4.91,0,0,0-2.749-.359c-.108-.114-.053-.209.041-.278a1.133,1.133,0,0,1,.287-.15,3.135,3.135,0,0,1,1.466-.133,5.517,5.517,0,0,1,2.734,1.15c.609.474,1.182.995,1.761,1.505a4.122,4.122,0,0,0,1.6,1.091,2.348,2.348,0,0,1-1.1-.133,2.352,2.352,0,0,0,1.922.592,3.6,3.6,0,0,1-1.451.25,2.2,2.2,0,0,1-1.364-.524,2.94,2.94,0,0,0,1.5,1.807c.437.231.895.424,1.346.628a5.863,5.863,0,0,1,1.356.792,2.389,2.389,0,0,1,.569.652,2.8,2.8,0,0,0-1.395-.494,5.255,5.255,0,0,1,1.283.947,2.735,2.735,0,0,0,1.664.952,2.163,2.163,0,0,1-1.52-.3" transform="translate(0 -2.712)" fill="#fff"/><path d="M24.112,16.874c-.226.075-.192.245-.157.378a2.5,2.5,0,0,0,.241.666,12.15,12.15,0,0,0,.738,1.071,1.975,1.975,0,0,0,.393.3,3.4,3.4,0,0,1,.9-1.625,4.074,4.074,0,0,1-2.116-.786" transform="translate(-12.64 -8.913)" fill="#fff"/><path d="M25.3,19.314l-.075-.055c-.054-.04-.1-.073-.155-.105a.921.921,0,0,1-.25-.2,12.427,12.427,0,0,1-.742-1.076,2.558,2.558,0,0,1-.247-.682.321.321,0,0,1,.2-.45l.033-.011.025.024a3.582,3.582,0,0,0,1.869.73l.218.042.1.02-.07.078a3.373,3.373,0,0,0-.887,1.6Zm-1.268-2.447c-.135.059-.121.16-.086.3a2.474,2.474,0,0,0,.234.65,12.374,12.374,0,0,0,.735,1.066.828.828,0,0,0,.22.175l.087.057a3.428,3.428,0,0,1,.827-1.487l-.116-.022a3.728,3.728,0,0,1-1.9-.735" transform="translate(-12.574 -8.837)" fill="#fff"/><path d="M30.276,18.043a2.509,2.509,0,0,0-.557.938c-.125.334-.231.674-.346,1.011a1.737,1.737,0,0,1-.458.786.982.982,0,0,0-.131.185c.015.023.03.045.045.067a1.209,1.209,0,0,0,.968-.523,5.468,5.468,0,0,0,.45-.962c.131-.321.219-.658.352-.977a1.147,1.147,0,0,1,.585-.645c.125-.056.259-.092.387-.137a1.151,1.151,0,0,0-1.3.256" transform="translate(-15.204 -9.341)" fill="#fff"/><path d="M28.719,21.028l-.086-.13.023-.033c.013-.019.025-.039.036-.059a.571.571,0,0,1,.1-.138,1.7,1.7,0,0,0,.442-.761c.036-.106.071-.212.107-.319.075-.228.154-.464.24-.694a2.572,2.572,0,0,1,.57-.96,1.218,1.218,0,0,1,1.365-.267l.127.063-.134.047-.124.041c-.087.028-.176.058-.26.094a1.1,1.1,0,0,0-.554.614c-.067.162-.125.334-.18.5s-.108.32-.171.477l-.053.132a4.692,4.692,0,0,1-.4.84,1.265,1.265,0,0,1-1.014.55Zm.057-.13,0,.006a1.138,1.138,0,0,0,.889-.493,4.624,4.624,0,0,0,.392-.819l.053-.132c.062-.153.116-.315.168-.47s.115-.341.184-.507a1.207,1.207,0,0,1,.616-.677,2.509,2.509,0,0,1,.236-.088,1.129,1.129,0,0,0-1.079.3,2.467,2.467,0,0,0-.543.917c-.085.227-.163.462-.239.69-.035.107-.071.213-.107.319a1.8,1.8,0,0,1-.475.811.454.454,0,0,0-.081.11l-.018.03" transform="translate(-15.124 -9.276)" fill="#fff"/><path d="M22.685,34.94a1.743,1.743,0,0,0,1.181-.3.868.868,0,0,0,.372-.518c.029-.112.108-.209.147-.32A.75.75,0,0,0,24.4,33.6l-.1-.019c-.068.082-.143.159-.2.246a1.523,1.523,0,0,1-.988.656c-.3.065-.6.118-.9.189a1.3,1.3,0,0,0-.694.351c.109-.018.171-.034.233-.038a6.5,6.5,0,0,1,.941-.041" transform="translate(-11.362 -17.736)" fill="#fff"/><path d="M21.152,35.035l.127-.13A1.353,1.353,0,0,1,22,34.538c.18-.042.364-.079.542-.115.12-.024.24-.048.36-.074a1.458,1.458,0,0,0,.953-.631A1.788,1.788,0,0,1,24,33.542c.022-.025.044-.05.065-.075l.022-.027.19.035,0,.052c0,.02,0,.041,0,.062a.464.464,0,0,1-.017.162,1.109,1.109,0,0,1-.073.15.744.744,0,0,0-.074.164.923.923,0,0,1-.4.552,1.8,1.8,0,0,1-1.22.309,3.715,3.715,0,0,0-.655.02c-.091.008-.185.017-.277.022a.947.947,0,0,0-.125.019l-.1.018ZM24.13,33.57l-.044.05a1.652,1.652,0,0,0-.131.164,1.593,1.593,0,0,1-1.026.681c-.121.026-.242.05-.362.075-.177.035-.36.072-.538.114a1.424,1.424,0,0,0-.5.2l.025,0c.091-.005.184-.013.273-.021a3.854,3.854,0,0,1,.677-.02,1.687,1.687,0,0,0,1.143-.288.811.811,0,0,0,.348-.484.812.812,0,0,1,.084-.192.908.908,0,0,0,.065-.134.369.369,0,0,0,.011-.121c0-.006,0-.011,0-.017Z" transform="translate(-11.173 -17.663)" fill="#fff"/><path d="M8.083,26.488a.983.983,0,0,1-.353-.659c-.045-.242-.1-.483-.151-.724,0-.017-.025-.029-.056-.062a.688.688,0,0,0-.2.524,5.178,5.178,0,0,0,.042.677.653.653,0,0,0,.357.531,2.666,2.666,0,0,1,.51.523.765.765,0,0,0-.146-.811" transform="translate(-3.866 -13.228)" fill="#fff"/><path d="M8.179,27.31l-.06-.064c-.049-.052-.1-.111-.144-.168a1.476,1.476,0,0,0-.352-.344.712.712,0,0,1-.386-.577,5.358,5.358,0,0,1-.042-.685.748.748,0,0,1,.222-.566l.044-.041.041.044.026.027A.123.123,0,0,1,7.57,25l.027.125c.043.2.087.4.125.6a.938.938,0,0,0,.331.623.825.825,0,0,1,.164.884Zm-.723-2.275a.657.657,0,0,0-.143.44,5.171,5.171,0,0,0,.042.67.6.6,0,0,0,.328.486A1.553,1.553,0,0,1,8.066,27l.073.088a.7.7,0,0,0-.159-.649,1.04,1.04,0,0,1-.375-.695c-.037-.2-.081-.4-.124-.6Z" transform="translate(-3.799 -13.134)" fill="#fff"/><path d="M24.775,36.383a1.244,1.244,0,0,0-.19.185.852.852,0,0,1-.882.348c-.315-.024-.629-.058-.944-.085-.124-.01-.248-.015-.371-.021,0,.027,0,.054-.006.082a3.394,3.394,0,0,0,1.8.3.7.7,0,0,0,.381-.249,2.62,2.62,0,0,1,.82-.754.706.706,0,0,0-.612.189" transform="translate(-11.822 -19.114)" fill="#fff"/><path d="M23.752,37.213a3.694,3.694,0,0,1-1.464-.334l-.039-.017.014-.183.058,0,.116.006c.084,0,.172.008.258.016l.391.036c.181.018.368.035.552.049a.8.8,0,0,0,.827-.321.634.634,0,0,1,.132-.136c.024-.02.046-.039.067-.06a.763.763,0,0,1,.661-.206l.208.022-.189.09a2.205,2.205,0,0,0-.713.635l-.089.1a.779.779,0,0,1-.418.269,2.865,2.865,0,0,1-.371.024m-1.326-.405a3.26,3.26,0,0,0,1.681.263.659.659,0,0,0,.343-.229l.088-.1a2.878,2.878,0,0,1,.558-.552.587.587,0,0,0-.35.172c-.024.025-.05.045-.074.067a.5.5,0,0,0-.108.109.911.911,0,0,1-.936.376c-.185-.014-.372-.032-.554-.05l-.39-.036c-.084-.007-.17-.012-.253-.015h-.005" transform="translate(-11.752 -19.048)" fill="#fff"/><path d="M30.623,33.664a1.226,1.226,0,0,0-.215-.867,2.235,2.235,0,0,1-.334,1.321,2.254,2.254,0,0,1,.593,1.146.854.854,0,0,0,.059-.8,1.682,1.682,0,0,1-.1-.8" transform="translate(-15.886 -17.324)" fill="#fff"/><path d="M30.532,35.244l-.006-.179a1.548,1.548,0,0,0-.406-.87c-.059-.079-.12-.16-.176-.244l-.024-.036.026-.034a1.885,1.885,0,0,0,.311-1.129c0-.053.007-.106.01-.159l.013-.176.1.147a1.292,1.292,0,0,1,.224.908,1.641,1.641,0,0,0,.1.776.907.907,0,0,1-.067.849Zm-.466-1.325c.048.07.1.138.149.2a1.972,1.972,0,0,1,.4.742.909.909,0,0,0-.032-.581,1.746,1.746,0,0,1-.1-.83,1.11,1.11,0,0,0-.11-.656,1.993,1.993,0,0,1-.307,1.12" transform="translate(-15.804 -17.122)" fill="#fff"/><path d="M7.246,29.265c-.212-.066-.321,0-.438.256l.292.219a.3.3,0,0,1-.007.095c-.059.127-.135.253,0,.376a.612.612,0,0,0,.593.013c.144-.1.125-.232.088-.371a.771.771,0,0,0-.53-.587" transform="translate(-3.596 -15.445)" fill="#fff"/><path d="M7.318,30.286a.549.549,0,0,1-.344-.1c-.161-.143-.084-.3-.029-.418l.013-.027a.158.158,0,0,0,0-.032V29.7l-.305-.23.02-.043c.109-.241.232-.373.509-.288a.831.831,0,0,1,.57.628.359.359,0,0,1-.112.436.6.6,0,0,1-.322.08M6.8,29.436l.278.209,0,.032c0,.011,0,.022,0,.032a.187.187,0,0,1-.012.085l-.014.028c-.061.127-.089.2,0,.278a.566.566,0,0,0,.52.008c.1-.071.1-.159.064-.307a.709.709,0,0,0-.491-.545c-.154-.048-.24-.033-.345.18" transform="translate(-3.514 -15.379)" fill="#fff"/><path d="M17.989,38.57a.663.663,0,0,0-.092.3c0,.216.033.431.052.646.168-.075.194-.245.212-.426a1.644,1.644,0,0,1,.073-.365.416.416,0,0,0-.048-.41,1.908,1.908,0,0,0-.2.257" transform="translate(-9.453 -20.237)" fill="#fff"/><path d="M17.829,39.492l-.008-.083c-.006-.062-.012-.125-.018-.187-.017-.151-.033-.308-.034-.464a.731.731,0,0,1,.1-.326,1.077,1.077,0,0,1,.137-.188c.021-.025.043-.051.064-.078l.048-.061.046.063a.473.473,0,0,1,.057.464,1.584,1.584,0,0,0-.069.352.507.507,0,0,1-.247.474Zm.281-1.186-.013.015a.963.963,0,0,0-.123.167.605.605,0,0,0-.086.269c0,.15.017.3.033.452l.009.089a.532.532,0,0,0,.1-.326,1.713,1.713,0,0,1,.075-.378.376.376,0,0,0,0-.288" transform="translate(-9.386 -20.127)" fill="#fff"/><path d="M9.52,13.417c-.218.255.053.464.072.687l-.525-.182c-.014.125-.022.193-.028.245l.659.148c.15-.353-.317-.565-.179-.9" transform="translate(-4.775 -7.087)" fill="#fff"/><path d="M9.662,14.024l-.759-.17.042-.371.491.17c-.013-.034-.029-.069-.046-.1a.433.433,0,0,1,.013-.529l.242-.283L9.5,13.08c-.056.136.01.25.087.382a.542.542,0,0,1,.092.517Zm-.629-.263.555.125a.318.318,0,0,0-.018-.2.465.465,0,0,1,.009.057l.008.091-.541-.187Z" transform="translate(-4.703 -6.727)" fill="#fff"/><path d="M22.931,1.876c.007.273-.245.921-.585,1a3.106,3.106,0,0,0,1.382-.047,1.769,1.769,0,0,0,1.181-.807,2.715,2.715,0,0,1,.5,1.072,3.071,3.071,0,0,0,.342-.729,2.118,2.118,0,0,1,.2,1.01.759.759,0,0,1-.422.674,3.568,3.568,0,0,1-.8.29,7.047,7.047,0,0,1-1.485.129c-.275,0-.55-.007-.825-.012a2.408,2.408,0,0,1-.98-.27c-.178-.1-.639-.3-.747-.351a11.3,11.3,0,0,0-2.124-.692c-.118-.033-.235-.073-.41-.127.122-.107.191-.173.266-.232a2.237,2.237,0,0,1,1.21-.45c.092-.008.187-.011.283-.011.334,0,.686.039,1.017.039.06,0,.12,0,.179,0a3.228,3.228,0,0,0,1.824-.482M25.414.55l-.067,1.44a1.356,1.356,0,0,0-.068-.158L24.955,1.2l-.393.59c-.167.252-.288.433-.958.641a2.509,2.509,0,0,1-.46.092,1.063,1.063,0,0,0,.2-.658l-.017-.718-.614.371a2.814,2.814,0,0,1-1.63.422c-.049,0-.1,0-.157,0-.154,0-.313-.009-.483-.019s-.355-.02-.535-.02c-.116,0-.221,0-.32.013a2.652,2.652,0,0,0-1.43.537c-.059.047-.113.095-.176.151l-.108.1-.558.491.71.22.159.05c.095.03.177.056.261.08.2.057.385.1.546.147a7.744,7.744,0,0,1,1.515.521l.134.061c.163.074.468.211.591.278l.016.008.016.007a2.789,2.789,0,0,0,1.139.305l.209,0c.2,0,.414.008.623.008a7.54,7.54,0,0,0,1.573-.138,3.986,3.986,0,0,0,.9-.323A1.18,1.18,0,0,0,26.367,3.4a2.545,2.545,0,0,0-.237-1.2Z" transform="translate(-9.149 -0.29)" fill="#fff"/><path d="M23.105,4.653c-.21,0-.42,0-.624-.008l-.209,0a2.828,2.828,0,0,1-1.162-.31l-.036-.017c-.121-.066-.424-.2-.586-.276l-.136-.062a7.733,7.733,0,0,0-1.505-.518c-.162-.042-.344-.091-.547-.148-.086-.024-.168-.05-.264-.08l-.159-.05-.811-.251.638-.56.106-.094c.064-.058.118-.107.179-.155a2.712,2.712,0,0,1,1.462-.55c.1-.009.207-.013.325-.013.181,0,.362.01.537.02s.328.019.48.019c.055,0,.105,0,.154,0a2.768,2.768,0,0,0,1.6-.413l.7-.425.02.82a1.128,1.128,0,0,1-.143.584,2.18,2.18,0,0,0,.323-.073c.65-.2.759-.367.926-.617l.45-.675.338.659L25.233,0l.817,1.885a2.591,2.591,0,0,1,.242,1.229A1.238,1.238,0,0,1,25.6,4.186a4.06,4.06,0,0,1-.913.327,7.613,7.613,0,0,1-1.586.14M17.3,2.877l.609.189.158.05c.1.03.177.056.261.08.2.057.384.1.544.147a7.835,7.835,0,0,1,1.526.525l.134.061c.165.075.47.213.595.28l.026.013a2.735,2.735,0,0,0,1.117.3l.209,0c.2,0,.413.008.622.008a7.465,7.465,0,0,0,1.56-.137,3.907,3.907,0,0,0,.886-.318,1.12,1.12,0,0,0,.621-.972,2.482,2.482,0,0,0-.232-1.174L25.328.518,25.26,2l-.1-.281a1.219,1.219,0,0,0-.066-.151l-.278-.541-.337.506c-.174.261-.3.451-.989.665a2.484,2.484,0,0,1-.47.093l-.134.015.079-.109a.994.994,0,0,0,.191-.622L23.139.962l-.527.319a2.867,2.867,0,0,1-1.658.43c-.05,0-.1,0-.16,0-.155,0-.316-.009-.485-.019s-.354-.02-.532-.02c-.115,0-.217,0-.314.013a2.594,2.594,0,0,0-1.4.525c-.058.045-.111.093-.172.148-.033.029-.067.06-.108.1Zm5.8,1.359c-.206,0-.416,0-.618-.008l-.208,0a2.458,2.458,0,0,1-1-.276c-.139-.075-.438-.21-.618-.292L20.529,3.6a8.077,8.077,0,0,0-1.575-.543c-.167-.044-.34-.09-.54-.146-.079-.022-.159-.048-.251-.077L18,2.782l-.1-.032.08-.07.11-.1c.06-.054.108-.1.158-.136a2.308,2.308,0,0,1,1.242-.462c.088-.008.182-.012.288-.012.169,0,.344.01.514.02s.339.019.5.019c.063,0,.12,0,.176,0a3.169,3.169,0,0,0,1.8-.473l.088-.053,0,.1a1.459,1.459,0,0,1-.452.97,2.812,2.812,0,0,0,1.172-.072A1.7,1.7,0,0,0,24.726,1.7l.042-.063.051.056a2.526,2.526,0,0,1,.475.957,2.163,2.163,0,0,0,.261-.577l.011-.256.1.235a2.171,2.171,0,0,1,.208,1.037.82.82,0,0,1-.455.724,3.639,3.639,0,0,1-.818.294,7.205,7.205,0,0,1-1.5.13M18.137,2.7l.061.019c.095.03.17.054.247.075.2.056.371.1.539.145a8.135,8.135,0,0,1,1.6.551l.129.059c.181.082.484.218.621.293a2.327,2.327,0,0,0,.952.263l.209,0c.2,0,.411.008.616.008a7.064,7.064,0,0,0,1.473-.128A3.5,3.5,0,0,0,25.37,3.7a.7.7,0,0,0,.389-.624,1.939,1.939,0,0,0-.134-.823,4.646,4.646,0,0,1-.3.577l-.078.128-.031-.146a2.8,2.8,0,0,0-.433-.987,1.846,1.846,0,0,1-1.169.767,3.063,3.063,0,0,1-1.358.056l-.05-.008-.32-.043.314-.074c.265-.062.487-.539.532-.834a3.335,3.335,0,0,1-1.754.431c-.058,0-.117,0-.182,0-.167,0-.342-.01-.51-.019s-.342-.02-.507-.02c-.1,0-.193,0-.277.011a2.18,2.18,0,0,0-1.179.438c-.048.037-.094.078-.152.131l-.032.029" transform="translate(-9.015 0)" fill="#fff"/><path d="M8.943,18.807c.043-.21.088-.421.13-.632.069-.34.141-.678.2-1.019a.365.365,0,0,1,.211-.3l.019-.011c.536-.314.446-.2.4-.788-.015-.185-.04-.369-.063-.585a.8.8,0,0,0-.142.094c-.2.219-.4.437-.588.665a.433.433,0,0,0-.092.233c-.048.749-.088,1.5-.131,2.247a.9.9,0,0,0,.006.1h.049" transform="translate(-4.694 -8.171)" fill="#fff"/></g></g><g transform="translate(197.675 21)"><g transform="translate(0 0)" clip-path="url(#b)"><path d="M0,12.828H2.7c.054,1.71,1.363,2.833,3.742,2.833,2.432,0,3.795-1.122,3.795-2.833,0-1.844-1.871-2.138-3.982-2.512C3.528,9.835.4,9.3.4,5.372.4,2.191,2.806,0,6.467,0c3.581,0,5.986,2.085,6.093,5.211H9.968c-.08-1.55-1.283-2.7-3.447-2.7-2.245,0-3.5,1.176-3.5,2.779,0,1.844,1.9,2.138,4.009,2.512,2.753.481,5.879,1.016,5.879,4.944,0,3.341-2.566,5.425-6.467,5.425C2.619,18.173.08,16.142,0,12.828" transform="translate(0 0)" fill="#fff"/><path d="M106.146,102.75a1.764,1.764,0,1,1,1.764,1.764,1.713,1.713,0,0,1-1.764-1.764" transform="translate(-90.753 -86.341)" fill="#fff"/><path d="M142.447,9.087c0-5.238,3.848-9.086,9.3-9.086A8.912,8.912,0,0,1,160.7,6.468h-2.886A6.58,6.58,0,0,0,145.2,9.087a6.58,6.58,0,0,0,12.614,2.619H160.7a8.912,8.912,0,0,1-8.953,6.467c-5.452,0-9.3-3.848-9.3-9.086" transform="translate(-121.789 -0.001)" fill="#fff"/><path d="M286.922,2.4h12.855V4.908H289.648v4.81h8.579v2.512h-8.579v5.131h10.129v2.512H286.922Z" transform="translate(-245.312 -2.049)" fill="#fff"/><path d="M396.384,2.4h7.323c4.41,0,6.36,2.432,6.36,5.746s-1.951,5.772-6.36,5.772h-4.6v5.96h-2.726ZM403.76,11.4c2.619,0,3.554-1.39,3.554-3.26,0-1.844-.935-3.234-3.554-3.234h-4.65V11.4Z" transform="translate(-338.9 -2.049)" fill="#fff"/><path d="M506.951,2.4h12.855V4.908H509.677v4.81h8.579v2.512h-8.579v5.131h10.129v2.512H506.951Z" transform="translate(-433.432 -2.049)" fill="#fff"/><path d="M616.413,2.4h2.726V17.362h9.808v2.512H616.413Z" transform="translate(-527.02 -2.049)" fill="#fff"/><path d="M719.978,2.4h12.854V4.908H722.7v4.81h8.579v2.512H722.7v5.131h10.129v2.512H719.978Z" transform="translate(-615.566 -2.049)" fill="#fff"/></g></g></g></svg>