<svg xmlns="http://www.w3.org/2000/svg" xmlns:xlink="http://www.w3.org/1999/xlink" width="112.296" height="90.014" viewBox="0 0 112.296 90.014"><defs><clipPath id="a"><rect width="112.296" height="90.014" fill="none"/></clipPath></defs><g transform="translate(0 0)"><g transform="translate(0 0)" clip-path="url(#a)"><path d="M6.121,49.745A50.726,50.726,0,0,0,24.786,88.522l64.059.209a50.073,50.073,0,0,0,15.366-21.963" transform="translate(0.034 0.276)" fill="none" stroke="#d92323" stroke-linecap="round" stroke-linejoin="round" stroke-width="2"/><path d="M105.748,50.994A50,50,0,0,0,8.007,36.128" transform="translate(0.044 0.005)" fill="none" stroke="#d92323" stroke-linecap="round" stroke-linejoin="round" stroke-width="2"/><path d="M1,52.631l5.149-5.148L11.3,52.631" transform="translate(0.006 0.264)" fill="none" stroke="#d92323" stroke-linecap="round" stroke-linejoin="round" stroke-width="2"/><path d="M110.733,47.74l-5.148,5.148-5.148-5.148" transform="translate(0.558 0.265)" fill="none" stroke="#d92323" stroke-linecap="round" stroke-linejoin="round" stroke-width="2"/><rect width="38.706" height="61.547" transform="translate(37.569 27.267)" fill="none" stroke="#f4f4f4" stroke-linecap="round" stroke-linejoin="round" stroke-width="2"/><rect width="22.871" height="4.209" transform="translate(45.485 23.058)" fill="none" stroke="#f4f4f4" stroke-linecap="round" stroke-linejoin="round" stroke-width="2"/><rect width="6.901" height="2.366" transform="translate(53.471 20.692)" fill="none" stroke="#f4f4f4" stroke-linecap="round" stroke-linejoin="round" stroke-width="2"/><rect width="5.934" height="51.397" transform="translate(42.337 32.342)" fill="none" stroke="#f4f4f4" stroke-linecap="round" stroke-linejoin="round" stroke-width="2"/><rect width="5.934" height="51.397" transform="translate(53.954 32.342)" fill="none" stroke="#f4f4f4" stroke-linecap="round" stroke-linejoin="round" stroke-width="2"/><rect width="5.934" height="51.397" transform="translate(65.39 32.342)" fill="none" stroke="#f4f4f4" stroke-linecap="round" stroke-linejoin="round" stroke-width="2"/><line y2="5.984" transform="translate(30.158 82.088)" fill="none" stroke="#f4f4f4" stroke-linecap="round" stroke-linejoin="round" stroke-width="2"/><path d="M30.027,68.647h0a2.065,2.065,0,0,0-2.046,1.781L26.9,78.191a3.091,3.091,0,1,0,6.129.051l-.95-7.779A2.066,2.066,0,0,0,30.027,68.647Z" transform="translate(0.149 0.381)" fill="none" stroke="#f4f4f4" stroke-linecap="round" stroke-linejoin="round" stroke-width="2"/><line x2="64.059" transform="translate(24.819 88.798)" fill="none" stroke="#f4f4f4" stroke-linecap="round" stroke-linejoin="round" stroke-width="2"/></g></g></svg>