<svg xmlns="http://www.w3.org/2000/svg" xmlns:xlink="http://www.w3.org/1999/xlink" width="123.494" height="90.808" viewBox="0 0 123.494 90.808"><defs><clipPath id="a"><rect width="123.494" height="90.808" fill="none" stroke="#707070" stroke-width="2"/></clipPath></defs><g transform="translate(0 0)"><g transform="translate(0 0)"><g clip-path="url(#a)"><path d="M111.653,44.812v-2.2h-2.2" transform="translate(10.744 4.183)" fill="none" stroke="#d92323" stroke-linecap="round" stroke-linejoin="round" stroke-width="2"/></g></g><line x1="25.912" transform="translate(89.577 46.798)" fill="none" stroke="#d92323" stroke-linecap="round" stroke-linejoin="round" stroke-width="2" stroke-dasharray="4.29 4.29"/><path d="M79.622,42.615h-2.2v2.2" transform="translate(7.6 4.183)" fill="none" stroke="#d92323" stroke-linecap="round" stroke-linejoin="round" stroke-width="2"/><line y2="32.098" transform="translate(85.025 53.275)" fill="none" stroke="#d92323" stroke-linecap="round" stroke-linejoin="round" stroke-width="2" stroke-dasharray="3.897 3.897"/><g transform="translate(0 0)"><g clip-path="url(#a)"><path d="M77.425,79.691v2.2h2.2" transform="translate(7.6 7.823)" fill="none" stroke="#d92323" stroke-linecap="round" stroke-linejoin="round" stroke-width="2"/><line x2="25.912" transform="translate(91.933 89.71)" fill="none" stroke="#d92323" stroke-linecap="round" stroke-linejoin="round" stroke-width="2" stroke-dasharray="4.29 4.29"/><path d="M109.457,81.887h2.2v-2.2" transform="translate(10.744 7.823)" fill="none" stroke="#d92323" stroke-linecap="round" stroke-linejoin="round" stroke-width="2"/><line y1="32.098" transform="translate(122.397 51.135)" fill="none" stroke="#d92323" stroke-linecap="round" stroke-linejoin="round" stroke-width="2" stroke-dasharray="3.897 3.897"/><path d="M45.589,19.05,6.821,37.987V87.84H45.589Z" transform="translate(0.669 1.87)" fill="none" stroke="#f4f4f4" stroke-linecap="round" stroke-linejoin="round" stroke-width="2"/><path d="M80.891,28.364,42.123,3.541V89.362H80.891Z" transform="translate(4.135 0.348)" fill="none" stroke="#f4f4f4" stroke-linecap="round" stroke-linejoin="round" stroke-width="2"/><path d="M71.242,23.522,59.774,16.179V1.23H71.242Z" transform="translate(5.867 0.121)" fill="none" stroke="#f4f4f4" stroke-linecap="round" stroke-linejoin="round" stroke-width="2"/><rect width="11.941" height="19.297" transform="translate(22.977 70.413)" fill="none" stroke="#f4f4f4" stroke-linecap="round" stroke-linejoin="round" stroke-width="2"/><circle cx="5.971" cy="5.971" r="5.971" transform="translate(22.977 43.521)" fill="none" stroke="#f4f4f4" stroke-linecap="round" stroke-linejoin="round" stroke-width="2"/><rect width="11.374" height="15.315" transform="translate(58.006 58.958)" fill="none" stroke="#f4f4f4" stroke-linecap="round" stroke-linejoin="round" stroke-width="2"/><path d="M64.195,43.984H52.821V28.669l11.374,6.189Z" transform="translate(5.185 2.815)" fill="none" stroke="#f4f4f4" stroke-linecap="round" stroke-linejoin="round" stroke-width="2"/><line x1="6.392" y2="3.059" transform="translate(1.098 39.857)" fill="none" stroke="#f4f4f4" stroke-linecap="round" stroke-linejoin="round" stroke-width="2"/><path d="M38.232,1l4.274,2.789L81.272,28.614l6.07,3.847" transform="translate(3.753 0.099)" fill="none" stroke="#f4f4f4" stroke-linecap="round" stroke-linejoin="round" stroke-width="2"/></g></g></g></svg>