<svg xmlns="http://www.w3.org/2000/svg" xmlns:xlink="http://www.w3.org/1999/xlink" width="113.069" height="90.634" viewBox="0 0 113.069 90.634"><defs><clipPath id="a"><rect width="113.069" height="90.634" fill="none"/></clipPath></defs><g transform="translate(0 0)"><g transform="translate(0 0)" clip-path="url(#a)"><path d="M87.813,49.626l-30.7-15.217V89.192h30.7Z" transform="translate(0.712 0.429)" fill="none" stroke="#f4f4f4" stroke-linecap="round" stroke-linejoin="round" stroke-width="2"/><rect width="32.312" height="28.84" transform="translate(25.514 60.78)" fill="none" stroke="#f4f4f4" stroke-linecap="round" stroke-linejoin="round" stroke-width="2"/><rect width="16.806" height="14.953" transform="translate(33.267 74.668)" fill="none" stroke="#f4f4f4" stroke-linecap="round" stroke-linejoin="round" stroke-width="2"/><rect width="8.468" height="14.953" transform="translate(68.81 74.668)" fill="none" stroke="#f4f4f4" stroke-linecap="round" stroke-linejoin="round" stroke-width="2"/><path d="M77.77,58.655a5.558,5.558,0,1,0-5.557,5.557A5.558,5.558,0,0,0,77.77,58.655Z" transform="translate(0.831 0.662)" fill="none" stroke="#f4f4f4" stroke-linecap="round" stroke-linejoin="round" stroke-width="2"/><path d="M6.121,49.745A50.236,50.236,0,0,0,24.44,88.589" transform="translate(0.076 0.62)" fill="none" stroke="#d92323" stroke-linecap="round" stroke-linejoin="round" stroke-width="2"/><path d="M106.769,51.338A50.346,50.346,0,0,0,8.355,36.37" transform="translate(0.104 0.012)" fill="none" stroke="#d92323" stroke-linecap="round" stroke-linejoin="round" stroke-width="2"/><path d="M88.387,88.789a50.421,50.421,0,0,0,15.472-22.115" transform="translate(1.103 0.832)" fill="none" stroke="#d92323" stroke-linecap="round" stroke-linejoin="round" stroke-width="2"/><path d="M1,52.667l5.185-5.184,5.184,5.184" transform="translate(0.012 0.592)" fill="none" stroke="#d92323" stroke-linecap="round" stroke-linejoin="round" stroke-width="2"/><path d="M110.8,47.74l-5.184,5.184-5.184-5.184" transform="translate(1.253 0.595)" fill="none" stroke="#d92323" stroke-linecap="round" stroke-linejoin="round" stroke-width="2"/></g></g></svg>