<svg xmlns="http://www.w3.org/2000/svg" xmlns:xlink="http://www.w3.org/1999/xlink" width="79.74" height="89.413" viewBox="0 0 79.74 89.413"><defs><clipPath id="a"><rect width="79.739" height="89.413" fill="none"/></clipPath></defs><g transform="translate(0 0)"><g transform="translate(0 0)" clip-path="url(#a)"><path d="M72,27.516V1H1V82.643H33.8V41.822" transform="translate(0.316 0.317)" fill="none" stroke="#f4f4f4" stroke-linecap="round" stroke-linejoin="round" stroke-width="2"/><rect width="42.263" height="11.843" rx="2.063" transform="translate(32.176 29.654)" fill="none" stroke="#d92323" stroke-linecap="round" stroke-linejoin="round" stroke-width="2"/><path d="M62.575,27.022h3.032v7.549L40.492,51.752v4.716" transform="translate(12.817 8.553)" fill="none" stroke="#d92323" stroke-linecap="round" stroke-linejoin="round" stroke-width="2"/><path d="M41.614,72.464h0a5.083,5.083,0,0,1-5.075-5.375l.774-13.53a4.422,4.422,0,0,1,8.833.072l.549,13.542A5.085,5.085,0,0,1,41.614,72.464Z" transform="translate(11.563 15.633)" fill="none" stroke="#d92323" stroke-linecap="round" stroke-linejoin="round" stroke-width="2"/></g></g></svg>