<svg xmlns="http://www.w3.org/2000/svg" xmlns:xlink="http://www.w3.org/1999/xlink" width="173.606" height="89.665" viewBox="0 0 173.606 89.665"><defs><clipPath id="a"><rect width="173.606" height="89.665" fill="none"/></clipPath></defs><g clip-path="url(#a)"><path d="M117.818,14.464,67.3,68.044H1L54.58,14.464h63.237l53.6,53.6H153.671l-44.156-44.79" transform="translate(0.596 8.626)" fill="none" stroke="#f4f4f4" stroke-linecap="round" stroke-linejoin="round" stroke-width="2"/><line y1="11.382" transform="translate(17.681 76.687)" fill="none" stroke="#f4f4f4" stroke-linecap="round" stroke-linejoin="round" stroke-width="2"/><line y1="11.382" transform="translate(62.38 76.687)" fill="none" stroke="#f4f4f4" stroke-linecap="round" stroke-linejoin="round" stroke-width="2"/><line y1="11.382" transform="translate(154.97 76.687)" fill="none" stroke="#f4f4f4" stroke-linecap="round" stroke-linejoin="round" stroke-width="2"/><path d="M40.945,45.3h0a4.732,4.732,0,0,1-3.413-8.011l9.741-10.134H60.4L44.356,43.85A4.727,4.727,0,0,1,40.945,45.3" transform="translate(21.59 16.196)"/><path d="M40.945,45.3h0a4.732,4.732,0,0,1-3.413-8.011l9.741-10.134H60.4L44.356,43.85A4.727,4.727,0,0,1,40.945,45.3Z" transform="translate(21.59 16.196)" fill="none" stroke="#d92323" stroke-linecap="round" stroke-linejoin="round" stroke-width="2"/><path d="M32.7,45.3h0a4.732,4.732,0,0,1-3.413-8.011l9.74-10.134H52.158L36.115,43.85A4.724,4.724,0,0,1,32.7,45.3" transform="translate(16.676 16.196)"/><path d="M32.7,45.3h0a4.732,4.732,0,0,1-3.413-8.011l9.74-10.134H52.158L36.115,43.85A4.724,4.724,0,0,1,32.7,45.3Z" transform="translate(16.676 16.196)" fill="none" stroke="#d92323" stroke-linecap="round" stroke-linejoin="round" stroke-width="2"/><path d="M23.988,45.3h0a4.732,4.732,0,0,1-3.411-8.011l9.739-10.134H43.445L27.4,43.85A4.731,4.731,0,0,1,23.988,45.3" transform="translate(11.479 16.196)"/><path d="M23.988,45.3h0a4.732,4.732,0,0,1-3.411-8.011l9.739-10.134H43.445L27.4,43.85A4.731,4.731,0,0,1,23.988,45.3Z" transform="translate(11.479 16.196)" fill="none" stroke="#d92323" stroke-linecap="round" stroke-linejoin="round" stroke-width="2"/><path d="M14.61,45.3h0A4.732,4.732,0,0,1,11.2,37.292L20.94,27.158H34.067L18.023,43.85A4.731,4.731,0,0,1,14.61,45.3" transform="translate(5.886 16.196)"/><path d="M14.61,45.3h0A4.732,4.732,0,0,1,11.2,37.292L20.94,27.158H34.067L18.023,43.85A4.731,4.731,0,0,1,14.61,45.3Z" transform="translate(5.886 16.196)" stroke="#d92323" stroke-linecap="round" stroke-linejoin="round" stroke-width="2"/><path d="M49.218,37.072h0a4.733,4.733,0,0,1-3.413-8.011l9.741-10.134H68.673L52.631,35.62a4.733,4.733,0,0,1-3.413,1.453" transform="translate(26.525 11.288)"/><path d="M49.218,37.072h0a4.733,4.733,0,0,1-3.413-8.011l9.741-10.134H68.673L52.631,35.62A4.733,4.733,0,0,1,49.218,37.072Z" transform="translate(26.525 11.288)" stroke="#d92323" stroke-linecap="round" stroke-linejoin="round" stroke-width="2"/><path d="M40.978,37.072h0a4.733,4.733,0,0,1-3.413-8.011l9.741-10.134H60.433L44.391,35.62a4.733,4.733,0,0,1-3.413,1.453" transform="translate(21.611 11.288)"/><path d="M40.978,37.072h0a4.733,4.733,0,0,1-3.413-8.011l9.741-10.134H60.433L44.391,35.62A4.733,4.733,0,0,1,40.978,37.072Z" transform="translate(21.611 11.288)" stroke="#d92323" stroke-linecap="round" stroke-linejoin="round" stroke-width="2"/><path d="M32.264,37.072h0a4.732,4.732,0,0,1-3.413-8.011l9.741-10.134H51.719L35.675,35.62a4.727,4.727,0,0,1-3.411,1.453" transform="translate(16.413 11.288)"/><path d="M32.264,37.072h0a4.732,4.732,0,0,1-3.413-8.011l9.741-10.134H51.719L35.675,35.62A4.727,4.727,0,0,1,32.264,37.072Z" transform="translate(16.413 11.288)" stroke="#d92323" stroke-linecap="round" stroke-linejoin="round" stroke-width="2"/><path d="M22.886,37.072h0a4.732,4.732,0,0,1-3.413-8.011l9.741-10.134H42.341L26.3,35.62a4.727,4.727,0,0,1-3.411,1.453" transform="translate(10.82 11.288)"/><path d="M22.886,37.072h0a4.732,4.732,0,0,1-3.413-8.011l9.741-10.134H42.341L26.3,35.62A4.727,4.727,0,0,1,22.886,37.072Z" transform="translate(10.82 11.288)" stroke="#d92323" stroke-linecap="round" stroke-linejoin="round" stroke-width="2"/><path d="M58.873,27.758h0a4.733,4.733,0,0,1-3.413-8.012L65.2,9.612H78.328L62.284,26.305a4.733,4.733,0,0,1-3.411,1.453" transform="translate(32.282 5.732)"/><path d="M58.873,27.758h0a4.733,4.733,0,0,1-3.413-8.012L65.2,9.612H78.328L62.284,26.305A4.733,4.733,0,0,1,58.873,27.758Z" transform="translate(32.282 5.732)" stroke="#d92323" stroke-linecap="round" stroke-linejoin="round" stroke-width="2"/><path d="M50.633,27.758h0a4.733,4.733,0,0,1-3.413-8.012L56.961,9.612H70.088L54.044,26.305a4.733,4.733,0,0,1-3.411,1.453" transform="translate(27.368 5.732)"/><path d="M50.633,27.758h0a4.733,4.733,0,0,1-3.413-8.012L56.961,9.612H70.088L54.044,26.305A4.733,4.733,0,0,1,50.633,27.758Z" transform="translate(27.368 5.732)" stroke="#d92323" stroke-linecap="round" stroke-linejoin="round" stroke-width="2"/><path d="M41.916,27.758h0A4.733,4.733,0,0,1,38.5,19.746L48.246,9.612H61.373L45.329,26.305a4.737,4.737,0,0,1-3.413,1.453" transform="translate(22.17 5.732)"/><path d="M41.916,27.758h0A4.733,4.733,0,0,1,38.5,19.746L48.246,9.612H61.373L45.329,26.305A4.737,4.737,0,0,1,41.916,27.758Z" transform="translate(22.17 5.732)" stroke="#d92323" stroke-linecap="round" stroke-linejoin="round" stroke-width="2"/><path d="M32.54,27.758h0a4.733,4.733,0,0,1-3.413-8.012L38.868,9.612H51.995L35.951,26.305a4.733,4.733,0,0,1-3.411,1.453" transform="translate(16.578 5.732)"/><path d="M32.54,27.758h0a4.733,4.733,0,0,1-3.413-8.012L38.868,9.612H51.995L35.951,26.305A4.733,4.733,0,0,1,32.54,27.758Z" transform="translate(16.578 5.732)" stroke="#d92323" stroke-linecap="round" stroke-linejoin="round" stroke-width="2"/><path d="M67.147,19.145h0a4.733,4.733,0,0,1-3.411-8.012L73.475,1H86.6L70.56,17.693a4.733,4.733,0,0,1-3.413,1.453" transform="translate(37.218 0.597)"/><path d="M67.147,19.145h0a4.733,4.733,0,0,1-3.411-8.012L73.475,1H86.6L70.56,17.693A4.733,4.733,0,0,1,67.147,19.145Z" transform="translate(37.218 0.597)" stroke="#d92323" stroke-linecap="round" stroke-linejoin="round" stroke-width="2"/><path d="M58.907,19.145h0A4.733,4.733,0,0,1,55.5,11.133L65.235,1H78.362L62.32,17.693a4.733,4.733,0,0,1-3.413,1.453" transform="translate(32.304 0.597)"/><path d="M58.907,19.145h0A4.733,4.733,0,0,1,55.5,11.133L65.235,1H78.362L62.32,17.693A4.733,4.733,0,0,1,58.907,19.145Z" transform="translate(32.304 0.597)" stroke="#d92323" stroke-linecap="round" stroke-linejoin="round" stroke-width="2"/><path d="M50.193,19.145h0a4.733,4.733,0,0,1-3.413-8.012L56.521,1H69.648L53.6,17.693a4.727,4.727,0,0,1-3.411,1.453" transform="translate(27.106 0.597)"/><path d="M50.193,19.145h0a4.733,4.733,0,0,1-3.413-8.012L56.521,1H69.648L53.6,17.693A4.727,4.727,0,0,1,50.193,19.145Z" transform="translate(27.106 0.597)" stroke="#d92323" stroke-linecap="round" stroke-linejoin="round" stroke-width="2"/><path d="M40.814,19.145h0A4.734,4.734,0,0,1,37.4,11.133L47.142,1H60.269L44.227,17.693a4.733,4.733,0,0,1-3.413,1.453" transform="translate(21.513 0.597)"/><path d="M40.814,19.145h0A4.734,4.734,0,0,1,37.4,11.133L47.142,1H60.269L44.227,17.693A4.733,4.733,0,0,1,40.814,19.145Z" transform="translate(21.513 0.597)" stroke="#d92323" stroke-linecap="round" stroke-linejoin="round" stroke-width="2"/></g></svg>